%
M48
M72
T01C0.02362
T02C0.03150
T03C0.03200
T04C0.03600
T05C0.04000
T06C0.09055
T07C0.11024
%
T01
X206800Y175030
T02
X29300Y197530
X24300Y183780
X11800Y185030
X26800Y170030
X36800Y170030
X46800Y170030
X56800Y170030
X66800Y170030
X76800Y170030
X86800Y170030
X103050Y177530
X116800Y177530
X131800Y170030
X141800Y170030
X151800Y170030
X161800Y170030
X171800Y170030
X181800Y170030
X191800Y170030
X205550Y163780
X221800Y175030
X236800Y170030
X246800Y170030
X256800Y170030
X266800Y170030
X276800Y170030
X286800Y170030
X296800Y170030
X311800Y165030
X328050Y178780
X300550Y187530
X300550Y201280
X300550Y215030
X260550Y215030
X260550Y201280
X260550Y187530
X250550Y187530
X210550Y187530
X189300Y195030
X173050Y201280
X173050Y215030
X189300Y215030
X133050Y215030
X133050Y201280
X101800Y195030
X88050Y195030
X69300Y197530
X64300Y183780
X88050Y215030
X101800Y215030
X11800Y145030
X26800Y140030
X36800Y140030
X46800Y140030
X56800Y140030
X66800Y140030
X76800Y140030
X86800Y140030
X103050Y137530
X116800Y137530
X131800Y140030
X141800Y140030
X151800Y140030
X161800Y140030
X171800Y140030
X181800Y140030
X191800Y140030
X205550Y143780
X221800Y135030
X236800Y140030
X246800Y140030
X256800Y140030
X266800Y140030
X276800Y140030
X286800Y140030
X296800Y140030
X311800Y145030
X328050Y138780
X331800Y125030
X311800Y125030
X296800Y125030
X276800Y125030
X256800Y120030
X256800Y106280
X266800Y105030
X266800Y91280
X256800Y92530
X216800Y92530
X206800Y96280
X216800Y106280
X206800Y110030
X216800Y120030
X196800Y125030
X176800Y125030
X166800Y110030
X155550Y110030
X155550Y96280
X166800Y96280
X141800Y125030
X115550Y110030
X101800Y110030
X101800Y96280
X115550Y96280
X101800Y125030
X86800Y125030
X66800Y125030
X51800Y125030
X51800Y111280
X61800Y110030
X61800Y96280
X11800Y111280
X11800Y125030
X306800Y105030
X316800Y105030
X306800Y91280
X356800Y105030
X385550Y138780
X385550Y178780
T03
X340550Y163780
X350550Y163780
X363050Y163780
X373050Y163780
T04
X331800Y215030
X341800Y215030
X351800Y215030
X361800Y215030
X371800Y215030
X371800Y205030
X361800Y205030
X351800Y205030
X341800Y205030
X331800Y205030
T05
X196800Y50030
X196800Y30030
X326800Y30030
X326800Y50030
X66800Y50030
X66800Y30030
T06
X36800Y24872
X101800Y24872
X166800Y24872
X231800Y24872
X296800Y24872
X361800Y24872
X382272Y68179
X361013Y76841
X317272Y68179
X296013Y76841
X252272Y68179
X231013Y76841
X187272Y68179
X166013Y76841
X122272Y68179
X101013Y76841
X57272Y68179
X36013Y76841
T07
X16800Y215030
X234300Y215030
M30
