G75*
%MOIN*%
%OFA0B0*%
%FSLAX25Y25*%
%IPPOS*%
%LPD*%
%AMOC8*
5,1,8,0,0,1.08239X$1,22.5*
%
%ADD10C,0.00000*%
%ADD11C,0.00400*%
%ADD12C,0.01200*%
%ADD13C,0.00500*%
%ADD14C,0.00300*%
%ADD15C,0.00600*%
%ADD16C,0.00200*%
%ADD17C,0.00800*%
D10*
X0001800Y0015030D02*
X0001800Y0229990D01*
X0394800Y0229990D01*
X0394800Y0015030D01*
X0001800Y0015030D01*
X0011288Y0215030D02*
X0011290Y0215178D01*
X0011296Y0215326D01*
X0011306Y0215474D01*
X0011320Y0215621D01*
X0011338Y0215768D01*
X0011359Y0215914D01*
X0011385Y0216060D01*
X0011415Y0216205D01*
X0011448Y0216349D01*
X0011486Y0216492D01*
X0011527Y0216634D01*
X0011572Y0216775D01*
X0011620Y0216915D01*
X0011673Y0217054D01*
X0011729Y0217191D01*
X0011789Y0217326D01*
X0011852Y0217460D01*
X0011919Y0217592D01*
X0011990Y0217722D01*
X0012064Y0217850D01*
X0012141Y0217976D01*
X0012222Y0218100D01*
X0012306Y0218222D01*
X0012393Y0218341D01*
X0012484Y0218458D01*
X0012578Y0218573D01*
X0012674Y0218685D01*
X0012774Y0218795D01*
X0012876Y0218901D01*
X0012982Y0219005D01*
X0013090Y0219106D01*
X0013201Y0219204D01*
X0013314Y0219300D01*
X0013430Y0219392D01*
X0013548Y0219481D01*
X0013669Y0219566D01*
X0013792Y0219649D01*
X0013917Y0219728D01*
X0014044Y0219804D01*
X0014173Y0219876D01*
X0014304Y0219945D01*
X0014437Y0220010D01*
X0014572Y0220071D01*
X0014708Y0220129D01*
X0014845Y0220184D01*
X0014984Y0220234D01*
X0015125Y0220281D01*
X0015266Y0220324D01*
X0015409Y0220364D01*
X0015553Y0220399D01*
X0015697Y0220431D01*
X0015843Y0220458D01*
X0015989Y0220482D01*
X0016136Y0220502D01*
X0016283Y0220518D01*
X0016430Y0220530D01*
X0016578Y0220538D01*
X0016726Y0220542D01*
X0016874Y0220542D01*
X0017022Y0220538D01*
X0017170Y0220530D01*
X0017317Y0220518D01*
X0017464Y0220502D01*
X0017611Y0220482D01*
X0017757Y0220458D01*
X0017903Y0220431D01*
X0018047Y0220399D01*
X0018191Y0220364D01*
X0018334Y0220324D01*
X0018475Y0220281D01*
X0018616Y0220234D01*
X0018755Y0220184D01*
X0018892Y0220129D01*
X0019028Y0220071D01*
X0019163Y0220010D01*
X0019296Y0219945D01*
X0019427Y0219876D01*
X0019556Y0219804D01*
X0019683Y0219728D01*
X0019808Y0219649D01*
X0019931Y0219566D01*
X0020052Y0219481D01*
X0020170Y0219392D01*
X0020286Y0219300D01*
X0020399Y0219204D01*
X0020510Y0219106D01*
X0020618Y0219005D01*
X0020724Y0218901D01*
X0020826Y0218795D01*
X0020926Y0218685D01*
X0021022Y0218573D01*
X0021116Y0218458D01*
X0021207Y0218341D01*
X0021294Y0218222D01*
X0021378Y0218100D01*
X0021459Y0217976D01*
X0021536Y0217850D01*
X0021610Y0217722D01*
X0021681Y0217592D01*
X0021748Y0217460D01*
X0021811Y0217326D01*
X0021871Y0217191D01*
X0021927Y0217054D01*
X0021980Y0216915D01*
X0022028Y0216775D01*
X0022073Y0216634D01*
X0022114Y0216492D01*
X0022152Y0216349D01*
X0022185Y0216205D01*
X0022215Y0216060D01*
X0022241Y0215914D01*
X0022262Y0215768D01*
X0022280Y0215621D01*
X0022294Y0215474D01*
X0022304Y0215326D01*
X0022310Y0215178D01*
X0022312Y0215030D01*
X0022310Y0214882D01*
X0022304Y0214734D01*
X0022294Y0214586D01*
X0022280Y0214439D01*
X0022262Y0214292D01*
X0022241Y0214146D01*
X0022215Y0214000D01*
X0022185Y0213855D01*
X0022152Y0213711D01*
X0022114Y0213568D01*
X0022073Y0213426D01*
X0022028Y0213285D01*
X0021980Y0213145D01*
X0021927Y0213006D01*
X0021871Y0212869D01*
X0021811Y0212734D01*
X0021748Y0212600D01*
X0021681Y0212468D01*
X0021610Y0212338D01*
X0021536Y0212210D01*
X0021459Y0212084D01*
X0021378Y0211960D01*
X0021294Y0211838D01*
X0021207Y0211719D01*
X0021116Y0211602D01*
X0021022Y0211487D01*
X0020926Y0211375D01*
X0020826Y0211265D01*
X0020724Y0211159D01*
X0020618Y0211055D01*
X0020510Y0210954D01*
X0020399Y0210856D01*
X0020286Y0210760D01*
X0020170Y0210668D01*
X0020052Y0210579D01*
X0019931Y0210494D01*
X0019808Y0210411D01*
X0019683Y0210332D01*
X0019556Y0210256D01*
X0019427Y0210184D01*
X0019296Y0210115D01*
X0019163Y0210050D01*
X0019028Y0209989D01*
X0018892Y0209931D01*
X0018755Y0209876D01*
X0018616Y0209826D01*
X0018475Y0209779D01*
X0018334Y0209736D01*
X0018191Y0209696D01*
X0018047Y0209661D01*
X0017903Y0209629D01*
X0017757Y0209602D01*
X0017611Y0209578D01*
X0017464Y0209558D01*
X0017317Y0209542D01*
X0017170Y0209530D01*
X0017022Y0209522D01*
X0016874Y0209518D01*
X0016726Y0209518D01*
X0016578Y0209522D01*
X0016430Y0209530D01*
X0016283Y0209542D01*
X0016136Y0209558D01*
X0015989Y0209578D01*
X0015843Y0209602D01*
X0015697Y0209629D01*
X0015553Y0209661D01*
X0015409Y0209696D01*
X0015266Y0209736D01*
X0015125Y0209779D01*
X0014984Y0209826D01*
X0014845Y0209876D01*
X0014708Y0209931D01*
X0014572Y0209989D01*
X0014437Y0210050D01*
X0014304Y0210115D01*
X0014173Y0210184D01*
X0014044Y0210256D01*
X0013917Y0210332D01*
X0013792Y0210411D01*
X0013669Y0210494D01*
X0013548Y0210579D01*
X0013430Y0210668D01*
X0013314Y0210760D01*
X0013201Y0210856D01*
X0013090Y0210954D01*
X0012982Y0211055D01*
X0012876Y0211159D01*
X0012774Y0211265D01*
X0012674Y0211375D01*
X0012578Y0211487D01*
X0012484Y0211602D01*
X0012393Y0211719D01*
X0012306Y0211838D01*
X0012222Y0211960D01*
X0012141Y0212084D01*
X0012064Y0212210D01*
X0011990Y0212338D01*
X0011919Y0212468D01*
X0011852Y0212600D01*
X0011789Y0212734D01*
X0011729Y0212869D01*
X0011673Y0213006D01*
X0011620Y0213145D01*
X0011572Y0213285D01*
X0011527Y0213426D01*
X0011486Y0213568D01*
X0011448Y0213711D01*
X0011415Y0213855D01*
X0011385Y0214000D01*
X0011359Y0214146D01*
X0011338Y0214292D01*
X0011320Y0214439D01*
X0011306Y0214586D01*
X0011296Y0214734D01*
X0011290Y0214882D01*
X0011288Y0215030D01*
X0228788Y0215030D02*
X0228790Y0215178D01*
X0228796Y0215326D01*
X0228806Y0215474D01*
X0228820Y0215621D01*
X0228838Y0215768D01*
X0228859Y0215914D01*
X0228885Y0216060D01*
X0228915Y0216205D01*
X0228948Y0216349D01*
X0228986Y0216492D01*
X0229027Y0216634D01*
X0229072Y0216775D01*
X0229120Y0216915D01*
X0229173Y0217054D01*
X0229229Y0217191D01*
X0229289Y0217326D01*
X0229352Y0217460D01*
X0229419Y0217592D01*
X0229490Y0217722D01*
X0229564Y0217850D01*
X0229641Y0217976D01*
X0229722Y0218100D01*
X0229806Y0218222D01*
X0229893Y0218341D01*
X0229984Y0218458D01*
X0230078Y0218573D01*
X0230174Y0218685D01*
X0230274Y0218795D01*
X0230376Y0218901D01*
X0230482Y0219005D01*
X0230590Y0219106D01*
X0230701Y0219204D01*
X0230814Y0219300D01*
X0230930Y0219392D01*
X0231048Y0219481D01*
X0231169Y0219566D01*
X0231292Y0219649D01*
X0231417Y0219728D01*
X0231544Y0219804D01*
X0231673Y0219876D01*
X0231804Y0219945D01*
X0231937Y0220010D01*
X0232072Y0220071D01*
X0232208Y0220129D01*
X0232345Y0220184D01*
X0232484Y0220234D01*
X0232625Y0220281D01*
X0232766Y0220324D01*
X0232909Y0220364D01*
X0233053Y0220399D01*
X0233197Y0220431D01*
X0233343Y0220458D01*
X0233489Y0220482D01*
X0233636Y0220502D01*
X0233783Y0220518D01*
X0233930Y0220530D01*
X0234078Y0220538D01*
X0234226Y0220542D01*
X0234374Y0220542D01*
X0234522Y0220538D01*
X0234670Y0220530D01*
X0234817Y0220518D01*
X0234964Y0220502D01*
X0235111Y0220482D01*
X0235257Y0220458D01*
X0235403Y0220431D01*
X0235547Y0220399D01*
X0235691Y0220364D01*
X0235834Y0220324D01*
X0235975Y0220281D01*
X0236116Y0220234D01*
X0236255Y0220184D01*
X0236392Y0220129D01*
X0236528Y0220071D01*
X0236663Y0220010D01*
X0236796Y0219945D01*
X0236927Y0219876D01*
X0237056Y0219804D01*
X0237183Y0219728D01*
X0237308Y0219649D01*
X0237431Y0219566D01*
X0237552Y0219481D01*
X0237670Y0219392D01*
X0237786Y0219300D01*
X0237899Y0219204D01*
X0238010Y0219106D01*
X0238118Y0219005D01*
X0238224Y0218901D01*
X0238326Y0218795D01*
X0238426Y0218685D01*
X0238522Y0218573D01*
X0238616Y0218458D01*
X0238707Y0218341D01*
X0238794Y0218222D01*
X0238878Y0218100D01*
X0238959Y0217976D01*
X0239036Y0217850D01*
X0239110Y0217722D01*
X0239181Y0217592D01*
X0239248Y0217460D01*
X0239311Y0217326D01*
X0239371Y0217191D01*
X0239427Y0217054D01*
X0239480Y0216915D01*
X0239528Y0216775D01*
X0239573Y0216634D01*
X0239614Y0216492D01*
X0239652Y0216349D01*
X0239685Y0216205D01*
X0239715Y0216060D01*
X0239741Y0215914D01*
X0239762Y0215768D01*
X0239780Y0215621D01*
X0239794Y0215474D01*
X0239804Y0215326D01*
X0239810Y0215178D01*
X0239812Y0215030D01*
X0239810Y0214882D01*
X0239804Y0214734D01*
X0239794Y0214586D01*
X0239780Y0214439D01*
X0239762Y0214292D01*
X0239741Y0214146D01*
X0239715Y0214000D01*
X0239685Y0213855D01*
X0239652Y0213711D01*
X0239614Y0213568D01*
X0239573Y0213426D01*
X0239528Y0213285D01*
X0239480Y0213145D01*
X0239427Y0213006D01*
X0239371Y0212869D01*
X0239311Y0212734D01*
X0239248Y0212600D01*
X0239181Y0212468D01*
X0239110Y0212338D01*
X0239036Y0212210D01*
X0238959Y0212084D01*
X0238878Y0211960D01*
X0238794Y0211838D01*
X0238707Y0211719D01*
X0238616Y0211602D01*
X0238522Y0211487D01*
X0238426Y0211375D01*
X0238326Y0211265D01*
X0238224Y0211159D01*
X0238118Y0211055D01*
X0238010Y0210954D01*
X0237899Y0210856D01*
X0237786Y0210760D01*
X0237670Y0210668D01*
X0237552Y0210579D01*
X0237431Y0210494D01*
X0237308Y0210411D01*
X0237183Y0210332D01*
X0237056Y0210256D01*
X0236927Y0210184D01*
X0236796Y0210115D01*
X0236663Y0210050D01*
X0236528Y0209989D01*
X0236392Y0209931D01*
X0236255Y0209876D01*
X0236116Y0209826D01*
X0235975Y0209779D01*
X0235834Y0209736D01*
X0235691Y0209696D01*
X0235547Y0209661D01*
X0235403Y0209629D01*
X0235257Y0209602D01*
X0235111Y0209578D01*
X0234964Y0209558D01*
X0234817Y0209542D01*
X0234670Y0209530D01*
X0234522Y0209522D01*
X0234374Y0209518D01*
X0234226Y0209518D01*
X0234078Y0209522D01*
X0233930Y0209530D01*
X0233783Y0209542D01*
X0233636Y0209558D01*
X0233489Y0209578D01*
X0233343Y0209602D01*
X0233197Y0209629D01*
X0233053Y0209661D01*
X0232909Y0209696D01*
X0232766Y0209736D01*
X0232625Y0209779D01*
X0232484Y0209826D01*
X0232345Y0209876D01*
X0232208Y0209931D01*
X0232072Y0209989D01*
X0231937Y0210050D01*
X0231804Y0210115D01*
X0231673Y0210184D01*
X0231544Y0210256D01*
X0231417Y0210332D01*
X0231292Y0210411D01*
X0231169Y0210494D01*
X0231048Y0210579D01*
X0230930Y0210668D01*
X0230814Y0210760D01*
X0230701Y0210856D01*
X0230590Y0210954D01*
X0230482Y0211055D01*
X0230376Y0211159D01*
X0230274Y0211265D01*
X0230174Y0211375D01*
X0230078Y0211487D01*
X0229984Y0211602D01*
X0229893Y0211719D01*
X0229806Y0211838D01*
X0229722Y0211960D01*
X0229641Y0212084D01*
X0229564Y0212210D01*
X0229490Y0212338D01*
X0229419Y0212468D01*
X0229352Y0212600D01*
X0229289Y0212734D01*
X0229229Y0212869D01*
X0229173Y0213006D01*
X0229120Y0213145D01*
X0229072Y0213285D01*
X0229027Y0213426D01*
X0228986Y0213568D01*
X0228948Y0213711D01*
X0228915Y0213855D01*
X0228885Y0214000D01*
X0228859Y0214146D01*
X0228838Y0214292D01*
X0228820Y0214439D01*
X0228806Y0214586D01*
X0228796Y0214734D01*
X0228790Y0214882D01*
X0228788Y0215030D01*
D11*
X0227802Y0189833D02*
X0225750Y0189833D01*
X0225750Y0185730D01*
X0225750Y0187097D02*
X0227802Y0187097D01*
X0228486Y0187781D01*
X0228486Y0189149D01*
X0227802Y0189833D01*
X0229894Y0189149D02*
X0230577Y0189833D01*
X0231945Y0189833D01*
X0232629Y0189149D01*
X0232629Y0188465D01*
X0229894Y0185730D01*
X0232629Y0185730D01*
X0234037Y0185730D02*
X0234037Y0186413D01*
X0236773Y0189149D01*
X0236773Y0189833D01*
X0234037Y0189833D01*
X0228486Y0185730D02*
X0227118Y0187097D01*
X0223416Y0158822D02*
X0222732Y0158822D01*
X0222048Y0158138D01*
X0222048Y0156770D01*
X0221364Y0156086D01*
X0220680Y0156086D01*
X0219996Y0156770D01*
X0219996Y0158138D01*
X0220680Y0158822D01*
X0221364Y0158822D01*
X0222048Y0158138D01*
X0222048Y0156770D02*
X0222732Y0156086D01*
X0223416Y0156086D01*
X0224100Y0156770D01*
X0224100Y0158138D01*
X0223416Y0158822D01*
X0224100Y0154678D02*
X0224100Y0151942D01*
X0221364Y0154678D01*
X0220680Y0154678D01*
X0219996Y0153994D01*
X0219996Y0152626D01*
X0220680Y0151942D01*
X0220680Y0150535D02*
X0222048Y0150535D01*
X0222732Y0149851D01*
X0222732Y0147799D01*
X0222732Y0149167D02*
X0224100Y0150535D01*
X0224100Y0147799D02*
X0219996Y0147799D01*
X0219996Y0149851D01*
X0220680Y0150535D01*
X0257000Y0152730D02*
X0260069Y0152730D01*
X0257000Y0152730D02*
X0257000Y0157333D01*
X0261604Y0157333D02*
X0264673Y0157333D01*
X0263139Y0157333D02*
X0263139Y0152730D01*
X0266208Y0153497D02*
X0266975Y0152730D01*
X0268510Y0152730D01*
X0269277Y0153497D01*
X0269277Y0154264D01*
X0268510Y0155031D01*
X0267742Y0155031D01*
X0268510Y0155031D02*
X0269277Y0155799D01*
X0269277Y0156566D01*
X0268510Y0157333D01*
X0266975Y0157333D01*
X0266208Y0156566D01*
X0273319Y0185230D02*
X0273319Y0189333D01*
X0275371Y0189333D01*
X0276055Y0188649D01*
X0276055Y0187281D01*
X0275371Y0186597D01*
X0273319Y0186597D01*
X0274687Y0186597D02*
X0276055Y0185230D01*
X0277463Y0185230D02*
X0280199Y0187965D01*
X0280199Y0188649D01*
X0279515Y0189333D01*
X0278147Y0189333D01*
X0277463Y0188649D01*
X0281606Y0189333D02*
X0281606Y0187281D01*
X0282974Y0187965D01*
X0283658Y0187965D01*
X0284342Y0187281D01*
X0284342Y0185913D01*
X0283658Y0185230D01*
X0282290Y0185230D01*
X0281606Y0185913D01*
X0280199Y0185230D02*
X0277463Y0185230D01*
X0281606Y0189333D02*
X0284342Y0189333D01*
X0284721Y0199480D02*
X0286089Y0199480D01*
X0286773Y0200163D01*
X0286773Y0200847D01*
X0286089Y0201531D01*
X0284037Y0201531D01*
X0284037Y0200163D01*
X0284721Y0199480D01*
X0282629Y0199480D02*
X0279894Y0199480D01*
X0282629Y0202215D01*
X0282629Y0202899D01*
X0281945Y0203583D01*
X0280577Y0203583D01*
X0279894Y0202899D01*
X0278486Y0202899D02*
X0278486Y0201531D01*
X0277802Y0200847D01*
X0275750Y0200847D01*
X0275750Y0199480D02*
X0275750Y0203583D01*
X0277802Y0203583D01*
X0278486Y0202899D01*
X0277118Y0200847D02*
X0278486Y0199480D01*
X0284037Y0201531D02*
X0285405Y0202899D01*
X0286773Y0203583D01*
X0286089Y0213230D02*
X0284721Y0213230D01*
X0284037Y0213913D01*
X0282629Y0213230D02*
X0279894Y0213230D01*
X0282629Y0215965D01*
X0282629Y0216649D01*
X0281945Y0217333D01*
X0280577Y0217333D01*
X0279894Y0216649D01*
X0278486Y0216649D02*
X0278486Y0215281D01*
X0277802Y0214597D01*
X0275750Y0214597D01*
X0275750Y0213230D02*
X0275750Y0217333D01*
X0277802Y0217333D01*
X0278486Y0216649D01*
X0277118Y0214597D02*
X0278486Y0213230D01*
X0284037Y0216649D02*
X0284721Y0217333D01*
X0286089Y0217333D01*
X0286773Y0216649D01*
X0286773Y0215965D01*
X0286089Y0215281D01*
X0286773Y0214597D01*
X0286773Y0213913D01*
X0286089Y0213230D01*
X0286089Y0215281D02*
X0285405Y0215281D01*
X0317000Y0189833D02*
X0319302Y0189833D01*
X0320069Y0189066D01*
X0320069Y0187531D01*
X0319302Y0186764D01*
X0317000Y0186764D01*
X0317000Y0185230D02*
X0317000Y0189833D01*
X0318535Y0186764D02*
X0320069Y0185230D01*
X0321604Y0185997D02*
X0322371Y0185230D01*
X0323906Y0185230D01*
X0324673Y0186764D02*
X0321604Y0186764D01*
X0321604Y0185997D02*
X0321604Y0187531D01*
X0322371Y0188299D01*
X0323906Y0188299D01*
X0324673Y0187531D01*
X0324673Y0186764D01*
X0326208Y0185997D02*
X0326208Y0187531D01*
X0326975Y0188299D01*
X0329277Y0188299D01*
X0329277Y0189833D02*
X0329277Y0185230D01*
X0326975Y0185230D01*
X0326208Y0185997D01*
X0335416Y0185230D02*
X0337718Y0185230D01*
X0338485Y0185997D01*
X0337718Y0186764D01*
X0336183Y0186764D01*
X0335416Y0187531D01*
X0336183Y0188299D01*
X0338485Y0188299D01*
X0340020Y0188299D02*
X0341554Y0188299D01*
X0340787Y0189066D02*
X0340787Y0185997D01*
X0341554Y0185230D01*
X0343089Y0185230D02*
X0343089Y0188299D01*
X0344624Y0188299D02*
X0345391Y0188299D01*
X0344624Y0188299D02*
X0343089Y0186764D01*
X0346926Y0185230D02*
X0348460Y0185230D01*
X0347693Y0185230D02*
X0347693Y0188299D01*
X0346926Y0188299D01*
X0347693Y0189833D02*
X0347693Y0190601D01*
X0349995Y0188299D02*
X0352297Y0188299D01*
X0353064Y0187531D01*
X0353064Y0185997D01*
X0352297Y0185230D01*
X0349995Y0185230D01*
X0349995Y0183695D02*
X0349995Y0188299D01*
X0354599Y0187531D02*
X0355366Y0188299D01*
X0356901Y0188299D01*
X0357668Y0187531D01*
X0357668Y0186764D01*
X0354599Y0186764D01*
X0354599Y0185997D02*
X0354599Y0187531D01*
X0354599Y0185997D02*
X0355366Y0185230D01*
X0356901Y0185230D01*
X0363807Y0187531D02*
X0366876Y0187531D01*
X0368410Y0187531D02*
X0371480Y0187531D01*
X0373014Y0185230D02*
X0376084Y0187531D01*
X0373014Y0189833D01*
X0386826Y0189833D02*
X0386826Y0185230D01*
X0387850Y0162572D02*
X0387850Y0159836D01*
X0385114Y0162572D01*
X0384430Y0162572D01*
X0383746Y0161888D01*
X0383746Y0160520D01*
X0384430Y0159836D01*
X0384430Y0158428D02*
X0385798Y0158428D01*
X0386482Y0157744D01*
X0386482Y0155692D01*
X0387850Y0155692D02*
X0383746Y0155692D01*
X0383746Y0157744D01*
X0384430Y0158428D01*
X0386482Y0157060D02*
X0387850Y0158428D01*
X0368635Y0158382D02*
X0368635Y0157782D01*
X0368035Y0157181D01*
X0368635Y0156581D01*
X0368635Y0155980D01*
X0368035Y0155380D01*
X0366834Y0155380D01*
X0366233Y0155980D01*
X0364952Y0155980D02*
X0364352Y0155380D01*
X0363151Y0155380D01*
X0362550Y0155980D01*
X0362550Y0158382D01*
X0363151Y0158983D01*
X0364352Y0158983D01*
X0364952Y0158382D01*
X0366233Y0158382D02*
X0366834Y0158983D01*
X0368035Y0158983D01*
X0368635Y0158382D01*
X0368035Y0157181D02*
X0367434Y0157181D01*
X0346135Y0157782D02*
X0343733Y0155380D01*
X0346135Y0155380D01*
X0346135Y0157782D02*
X0346135Y0158382D01*
X0345535Y0158983D01*
X0344334Y0158983D01*
X0343733Y0158382D01*
X0342452Y0158382D02*
X0341852Y0158983D01*
X0340651Y0158983D01*
X0340050Y0158382D01*
X0340050Y0155980D01*
X0340651Y0155380D01*
X0341852Y0155380D01*
X0342452Y0155980D01*
X0330350Y0155692D02*
X0326246Y0155692D01*
X0326246Y0157744D01*
X0326930Y0158428D01*
X0328298Y0158428D01*
X0328982Y0157744D01*
X0328982Y0155692D01*
X0328982Y0157060D02*
X0330350Y0158428D01*
X0330350Y0159836D02*
X0330350Y0162572D01*
X0330350Y0161204D02*
X0326246Y0161204D01*
X0327614Y0159836D01*
X0332000Y0107333D02*
X0334052Y0107333D01*
X0334736Y0106649D01*
X0334736Y0105281D01*
X0334052Y0104597D01*
X0332000Y0104597D01*
X0332000Y0103230D02*
X0332000Y0107333D01*
X0333368Y0104597D02*
X0334736Y0103230D01*
X0336144Y0103230D02*
X0338879Y0105965D01*
X0338879Y0106649D01*
X0338195Y0107333D01*
X0336827Y0107333D01*
X0336144Y0106649D01*
X0340287Y0106649D02*
X0340287Y0105965D01*
X0340971Y0105281D01*
X0343023Y0105281D01*
X0343023Y0103913D02*
X0342339Y0103230D01*
X0340971Y0103230D01*
X0340287Y0103913D01*
X0338879Y0103230D02*
X0336144Y0103230D01*
X0340287Y0106649D02*
X0340971Y0107333D01*
X0342339Y0107333D01*
X0343023Y0106649D01*
X0343023Y0103913D01*
X0290592Y0104097D02*
X0289908Y0104781D01*
X0287856Y0104781D01*
X0287856Y0103413D01*
X0288540Y0102730D01*
X0289908Y0102730D01*
X0290592Y0103413D01*
X0290592Y0104097D01*
X0289224Y0106149D02*
X0287856Y0104781D01*
X0289224Y0106149D02*
X0290592Y0106833D01*
X0285081Y0106833D02*
X0283713Y0105465D01*
X0282305Y0104781D02*
X0281621Y0104097D01*
X0279569Y0104097D01*
X0279569Y0102730D02*
X0279569Y0106833D01*
X0281621Y0106833D01*
X0282305Y0106149D01*
X0282305Y0104781D01*
X0280937Y0104097D02*
X0282305Y0102730D01*
X0283713Y0102730D02*
X0286449Y0102730D01*
X0285081Y0102730D02*
X0285081Y0106833D01*
X0285765Y0093083D02*
X0284397Y0093083D01*
X0283713Y0092399D01*
X0282305Y0092399D02*
X0281621Y0093083D01*
X0279569Y0093083D01*
X0279569Y0088980D01*
X0279569Y0090347D02*
X0281621Y0090347D01*
X0282305Y0091031D01*
X0282305Y0092399D01*
X0280937Y0090347D02*
X0282305Y0088980D01*
X0283713Y0088980D02*
X0286449Y0091715D01*
X0286449Y0092399D01*
X0285765Y0093083D01*
X0287856Y0091031D02*
X0290592Y0091031D01*
X0289908Y0088980D02*
X0289908Y0093083D01*
X0287856Y0091031D01*
X0286449Y0088980D02*
X0283713Y0088980D01*
X0243023Y0090730D02*
X0240287Y0090730D01*
X0241655Y0090730D02*
X0241655Y0094833D01*
X0240287Y0093465D01*
X0238879Y0093465D02*
X0236144Y0090730D01*
X0238879Y0090730D01*
X0238879Y0093465D02*
X0238879Y0094149D01*
X0238195Y0094833D01*
X0236827Y0094833D01*
X0236144Y0094149D01*
X0234736Y0094149D02*
X0234736Y0092781D01*
X0234052Y0092097D01*
X0232000Y0092097D01*
X0232000Y0090730D02*
X0232000Y0094833D01*
X0234052Y0094833D01*
X0234736Y0094149D01*
X0233368Y0092097D02*
X0234736Y0090730D01*
X0234736Y0104480D02*
X0233368Y0105847D01*
X0234052Y0105847D02*
X0232000Y0105847D01*
X0232000Y0104480D02*
X0232000Y0108583D01*
X0234052Y0108583D01*
X0234736Y0107899D01*
X0234736Y0106531D01*
X0234052Y0105847D01*
X0236144Y0104480D02*
X0238879Y0104480D01*
X0237511Y0104480D02*
X0237511Y0108583D01*
X0236144Y0107215D01*
X0240287Y0108583D02*
X0243023Y0108583D01*
X0243023Y0107899D01*
X0240287Y0105163D01*
X0240287Y0104480D01*
X0239908Y0117730D02*
X0238540Y0117730D01*
X0237856Y0118413D01*
X0240592Y0121149D01*
X0240592Y0118413D01*
X0239908Y0117730D01*
X0237856Y0118413D02*
X0237856Y0121149D01*
X0238540Y0121833D01*
X0239908Y0121833D01*
X0240592Y0121149D01*
X0236449Y0121149D02*
X0236449Y0120465D01*
X0233713Y0117730D01*
X0236449Y0117730D01*
X0232305Y0117730D02*
X0230937Y0119097D01*
X0231621Y0119097D02*
X0229569Y0119097D01*
X0229569Y0117730D02*
X0229569Y0121833D01*
X0231621Y0121833D01*
X0232305Y0121149D01*
X0232305Y0119781D01*
X0231621Y0119097D01*
X0233713Y0121149D02*
X0234397Y0121833D01*
X0235765Y0121833D01*
X0236449Y0121149D01*
X0193023Y0111649D02*
X0193023Y0110965D01*
X0190287Y0108230D01*
X0193023Y0108230D01*
X0188879Y0108230D02*
X0186144Y0108230D01*
X0188879Y0110965D01*
X0188879Y0111649D01*
X0188195Y0112333D01*
X0186827Y0112333D01*
X0186144Y0111649D01*
X0184736Y0111649D02*
X0184736Y0110281D01*
X0184052Y0109597D01*
X0182000Y0109597D01*
X0182000Y0108230D02*
X0182000Y0112333D01*
X0184052Y0112333D01*
X0184736Y0111649D01*
X0183368Y0109597D02*
X0184736Y0108230D01*
X0190287Y0111649D02*
X0190971Y0112333D01*
X0192339Y0112333D01*
X0193023Y0111649D01*
X0190592Y0098083D02*
X0187856Y0098083D01*
X0187856Y0096031D01*
X0189224Y0096715D01*
X0189908Y0096715D01*
X0190592Y0096031D01*
X0190592Y0094663D01*
X0189908Y0093980D01*
X0188540Y0093980D01*
X0187856Y0094663D01*
X0186449Y0093980D02*
X0183713Y0093980D01*
X0185081Y0093980D02*
X0185081Y0098083D01*
X0183713Y0096715D01*
X0182305Y0097399D02*
X0182305Y0096031D01*
X0181621Y0095347D01*
X0179569Y0095347D01*
X0179569Y0093980D02*
X0179569Y0098083D01*
X0181621Y0098083D01*
X0182305Y0097399D01*
X0180937Y0095347D02*
X0182305Y0093980D01*
X0141773Y0096531D02*
X0139037Y0096531D01*
X0141089Y0098583D01*
X0141089Y0094480D01*
X0137629Y0094480D02*
X0134894Y0094480D01*
X0136261Y0094480D02*
X0136261Y0098583D01*
X0134894Y0097215D01*
X0133486Y0096531D02*
X0132802Y0095847D01*
X0130750Y0095847D01*
X0130750Y0094480D02*
X0130750Y0098583D01*
X0132802Y0098583D01*
X0133486Y0097899D01*
X0133486Y0096531D01*
X0132118Y0095847D02*
X0133486Y0094480D01*
X0132463Y0107730D02*
X0132463Y0111833D01*
X0134515Y0111833D01*
X0135199Y0111149D01*
X0135199Y0109781D01*
X0134515Y0109097D01*
X0132463Y0109097D01*
X0133831Y0109097D02*
X0135199Y0107730D01*
X0136606Y0108413D02*
X0136606Y0109097D01*
X0137290Y0109781D01*
X0138658Y0109781D01*
X0139342Y0109097D01*
X0139342Y0108413D01*
X0138658Y0107730D01*
X0137290Y0107730D01*
X0136606Y0108413D01*
X0137290Y0109781D02*
X0136606Y0110465D01*
X0136606Y0111149D01*
X0137290Y0111833D01*
X0138658Y0111833D01*
X0139342Y0111149D01*
X0139342Y0110465D01*
X0138658Y0109781D01*
X0127339Y0123230D02*
X0128023Y0123913D01*
X0128023Y0126649D01*
X0127339Y0127333D01*
X0125971Y0127333D01*
X0125287Y0126649D01*
X0125287Y0125965D01*
X0125971Y0125281D01*
X0128023Y0125281D01*
X0127339Y0123230D02*
X0125971Y0123230D01*
X0125287Y0123913D01*
X0123879Y0123230D02*
X0121144Y0123230D01*
X0122511Y0123230D02*
X0122511Y0127333D01*
X0121144Y0125965D01*
X0119736Y0125281D02*
X0119052Y0124597D01*
X0117000Y0124597D01*
X0117000Y0123230D02*
X0117000Y0127333D01*
X0119052Y0127333D01*
X0119736Y0126649D01*
X0119736Y0125281D01*
X0118368Y0124597D02*
X0119736Y0123230D01*
X0085592Y0111833D02*
X0084224Y0111149D01*
X0082856Y0109781D01*
X0084908Y0109781D01*
X0085592Y0109097D01*
X0085592Y0108413D01*
X0084908Y0107730D01*
X0083540Y0107730D01*
X0082856Y0108413D01*
X0082856Y0109781D01*
X0081449Y0109781D02*
X0080765Y0109097D01*
X0078713Y0109097D01*
X0078713Y0107730D02*
X0078713Y0111833D01*
X0080765Y0111833D01*
X0081449Y0111149D01*
X0081449Y0109781D01*
X0080081Y0109097D02*
X0081449Y0107730D01*
X0081144Y0098583D02*
X0081144Y0096531D01*
X0082511Y0097215D01*
X0083195Y0097215D01*
X0083879Y0096531D01*
X0083879Y0095163D01*
X0083195Y0094480D01*
X0081827Y0094480D01*
X0081144Y0095163D01*
X0079736Y0094480D02*
X0078368Y0095847D01*
X0079052Y0095847D02*
X0077000Y0095847D01*
X0077000Y0094480D02*
X0077000Y0098583D01*
X0079052Y0098583D01*
X0079736Y0097899D01*
X0079736Y0096531D01*
X0079052Y0095847D01*
X0081144Y0098583D02*
X0083879Y0098583D01*
X0038023Y0123913D02*
X0038023Y0126649D01*
X0035287Y0123913D01*
X0035971Y0123230D01*
X0037339Y0123230D01*
X0038023Y0123913D01*
X0035287Y0123913D02*
X0035287Y0126649D01*
X0035971Y0127333D01*
X0037339Y0127333D01*
X0038023Y0126649D01*
X0033879Y0123230D02*
X0031144Y0123230D01*
X0032511Y0123230D02*
X0032511Y0127333D01*
X0031144Y0125965D01*
X0029736Y0125281D02*
X0029052Y0124597D01*
X0027000Y0124597D01*
X0027000Y0123230D02*
X0027000Y0127333D01*
X0029052Y0127333D01*
X0029736Y0126649D01*
X0029736Y0125281D01*
X0028368Y0124597D02*
X0029736Y0123230D01*
X0030081Y0113083D02*
X0030081Y0108980D01*
X0028713Y0108980D02*
X0031449Y0108980D01*
X0032856Y0108980D02*
X0035592Y0108980D01*
X0034224Y0108980D02*
X0034224Y0113083D01*
X0032856Y0111715D01*
X0030081Y0113083D02*
X0028713Y0111715D01*
X0027305Y0111031D02*
X0026621Y0110347D01*
X0024569Y0110347D01*
X0024569Y0108980D02*
X0024569Y0113083D01*
X0026621Y0113083D01*
X0027305Y0112399D01*
X0027305Y0111031D01*
X0025937Y0110347D02*
X0027305Y0108980D01*
X0047000Y0152730D02*
X0050069Y0152730D01*
X0047000Y0152730D02*
X0047000Y0157333D01*
X0051604Y0157333D02*
X0054673Y0157333D01*
X0053139Y0157333D02*
X0053139Y0152730D01*
X0056208Y0152730D02*
X0059277Y0152730D01*
X0057742Y0152730D02*
X0057742Y0157333D01*
X0056208Y0155799D01*
X0047408Y0181480D02*
X0048092Y0182163D01*
X0048092Y0184899D01*
X0047408Y0185583D01*
X0046040Y0185583D01*
X0045356Y0184899D01*
X0045356Y0184215D01*
X0046040Y0183531D01*
X0048092Y0183531D01*
X0047408Y0181480D02*
X0046040Y0181480D01*
X0045356Y0182163D01*
X0043949Y0181480D02*
X0042581Y0182847D01*
X0043265Y0182847D02*
X0041213Y0182847D01*
X0041213Y0181480D02*
X0041213Y0185583D01*
X0043265Y0185583D01*
X0043949Y0184899D01*
X0043949Y0183531D01*
X0043265Y0182847D01*
X0046213Y0195230D02*
X0046213Y0199333D01*
X0048265Y0199333D01*
X0048949Y0198649D01*
X0048949Y0197281D01*
X0048265Y0196597D01*
X0046213Y0196597D01*
X0047581Y0196597D02*
X0048949Y0195230D01*
X0050356Y0195913D02*
X0051040Y0195230D01*
X0052408Y0195230D01*
X0053092Y0195913D01*
X0053092Y0196597D01*
X0052408Y0197281D01*
X0051724Y0197281D01*
X0052408Y0197281D02*
X0053092Y0197965D01*
X0053092Y0198649D01*
X0052408Y0199333D01*
X0051040Y0199333D01*
X0050356Y0198649D01*
X0014100Y0168138D02*
X0009996Y0168138D01*
X0012048Y0166086D01*
X0012048Y0168822D01*
X0012048Y0164678D02*
X0010680Y0164678D01*
X0009996Y0163994D01*
X0009996Y0161942D01*
X0014100Y0161942D01*
X0012732Y0161942D02*
X0012732Y0163994D01*
X0012048Y0164678D01*
X0012732Y0163310D02*
X0014100Y0164678D01*
X0101246Y0161322D02*
X0101246Y0158586D01*
X0101930Y0157178D02*
X0103298Y0157178D01*
X0103982Y0156494D01*
X0103982Y0154442D01*
X0105350Y0154442D02*
X0101246Y0154442D01*
X0101246Y0156494D01*
X0101930Y0157178D01*
X0103982Y0155810D02*
X0105350Y0157178D01*
X0105350Y0158586D02*
X0104666Y0158586D01*
X0101930Y0161322D01*
X0101246Y0161322D01*
X0114996Y0160638D02*
X0114996Y0159270D01*
X0115680Y0158586D01*
X0117048Y0159954D02*
X0117048Y0160638D01*
X0117732Y0161322D01*
X0118416Y0161322D01*
X0119100Y0160638D01*
X0119100Y0159270D01*
X0118416Y0158586D01*
X0119100Y0157178D02*
X0119100Y0154442D01*
X0119100Y0155810D02*
X0114996Y0155810D01*
X0116364Y0154442D01*
X0115680Y0153035D02*
X0117048Y0153035D01*
X0117732Y0152351D01*
X0117732Y0150299D01*
X0117732Y0151667D02*
X0119100Y0153035D01*
X0115680Y0153035D02*
X0114996Y0152351D01*
X0114996Y0150299D01*
X0119100Y0150299D01*
X0117048Y0160638D02*
X0116364Y0161322D01*
X0115680Y0161322D01*
X0114996Y0160638D01*
X0152000Y0157333D02*
X0152000Y0152730D01*
X0155069Y0152730D01*
X0158139Y0152730D02*
X0158139Y0157333D01*
X0159673Y0157333D02*
X0156604Y0157333D01*
X0161208Y0156566D02*
X0161975Y0157333D01*
X0163510Y0157333D01*
X0164277Y0156566D01*
X0164277Y0155799D01*
X0161208Y0152730D01*
X0164277Y0152730D01*
X0156158Y0198980D02*
X0154790Y0198980D01*
X0154106Y0199663D01*
X0154106Y0200347D01*
X0154790Y0201031D01*
X0156158Y0201031D01*
X0156842Y0200347D01*
X0156842Y0199663D01*
X0156158Y0198980D01*
X0156158Y0201031D02*
X0156842Y0201715D01*
X0156842Y0202399D01*
X0156158Y0203083D01*
X0154790Y0203083D01*
X0154106Y0202399D01*
X0154106Y0201715D01*
X0154790Y0201031D01*
X0152699Y0198980D02*
X0149963Y0198980D01*
X0151331Y0198980D02*
X0151331Y0203083D01*
X0149963Y0201715D01*
X0148555Y0202399D02*
X0148555Y0201031D01*
X0147871Y0200347D01*
X0145819Y0200347D01*
X0145819Y0198980D02*
X0145819Y0203083D01*
X0147871Y0203083D01*
X0148555Y0202399D01*
X0147187Y0200347D02*
X0148555Y0198980D01*
X0148555Y0212730D02*
X0147187Y0214097D01*
X0147871Y0214097D02*
X0145819Y0214097D01*
X0145819Y0212730D02*
X0145819Y0216833D01*
X0147871Y0216833D01*
X0148555Y0216149D01*
X0148555Y0214781D01*
X0147871Y0214097D01*
X0149963Y0212730D02*
X0152699Y0212730D01*
X0151331Y0212730D02*
X0151331Y0216833D01*
X0149963Y0215465D01*
X0154106Y0216149D02*
X0154790Y0216833D01*
X0156158Y0216833D01*
X0156842Y0216149D01*
X0156842Y0215465D01*
X0154106Y0212730D01*
X0156842Y0212730D01*
X0204277Y0061083D02*
X0204277Y0056480D01*
X0201975Y0056480D01*
X0201208Y0057247D01*
X0201208Y0058781D01*
X0201975Y0059549D01*
X0204277Y0059549D01*
X0199673Y0058781D02*
X0199673Y0056480D01*
X0199673Y0058781D02*
X0198906Y0059549D01*
X0196604Y0059549D01*
X0196604Y0056480D01*
X0195069Y0056480D02*
X0192767Y0056480D01*
X0192000Y0057247D01*
X0192000Y0058781D01*
X0192767Y0059549D01*
X0195069Y0059549D01*
X0195069Y0055712D01*
X0194302Y0054945D01*
X0193535Y0054945D01*
X0216110Y0032507D02*
X0215343Y0031739D01*
X0215343Y0030205D01*
X0216110Y0029437D01*
X0215343Y0027903D02*
X0218412Y0027903D01*
X0219946Y0026368D01*
X0218412Y0024833D01*
X0215343Y0024833D01*
X0216110Y0023299D02*
X0215343Y0022531D01*
X0215343Y0020997D01*
X0216110Y0020230D01*
X0219179Y0020230D01*
X0219946Y0020997D01*
X0219946Y0022531D01*
X0219179Y0023299D01*
X0219946Y0029437D02*
X0216877Y0032507D01*
X0216110Y0032507D01*
X0219946Y0032507D02*
X0219946Y0029437D01*
X0280343Y0028670D02*
X0280343Y0030205D01*
X0281110Y0030972D01*
X0281877Y0030972D01*
X0282645Y0030205D01*
X0283412Y0030972D01*
X0284179Y0030972D01*
X0284946Y0030205D01*
X0284946Y0028670D01*
X0284179Y0027903D01*
X0284946Y0026368D02*
X0280343Y0026368D01*
X0281110Y0027903D02*
X0280343Y0028670D01*
X0282645Y0029437D02*
X0282645Y0030205D01*
X0284946Y0026368D02*
X0280343Y0023299D01*
X0284946Y0023299D01*
X0284946Y0021764D02*
X0284946Y0020230D01*
X0284946Y0020997D02*
X0280343Y0020997D01*
X0280343Y0020230D02*
X0280343Y0021764D01*
X0323535Y0054945D02*
X0324302Y0054945D01*
X0325069Y0055712D01*
X0325069Y0059549D01*
X0322767Y0059549D01*
X0322000Y0058781D01*
X0322000Y0057247D01*
X0322767Y0056480D01*
X0325069Y0056480D01*
X0326604Y0056480D02*
X0326604Y0059549D01*
X0328906Y0059549D01*
X0329673Y0058781D01*
X0329673Y0056480D01*
X0331208Y0057247D02*
X0331208Y0058781D01*
X0331975Y0059549D01*
X0334277Y0059549D01*
X0334277Y0061083D02*
X0334277Y0056480D01*
X0331975Y0056480D01*
X0331208Y0057247D01*
X0346110Y0032507D02*
X0346877Y0032507D01*
X0347645Y0031739D01*
X0348412Y0032507D01*
X0349179Y0032507D01*
X0349946Y0031739D01*
X0349946Y0030205D01*
X0349179Y0029437D01*
X0348412Y0027903D02*
X0345343Y0027903D01*
X0346110Y0029437D02*
X0345343Y0030205D01*
X0345343Y0031739D01*
X0346110Y0032507D01*
X0347645Y0031739D02*
X0347645Y0030972D01*
X0348412Y0027903D02*
X0349946Y0026368D01*
X0348412Y0024833D01*
X0345343Y0024833D01*
X0346110Y0023299D02*
X0345343Y0022531D01*
X0345343Y0020997D01*
X0346110Y0020230D01*
X0349179Y0020230D01*
X0349946Y0020997D01*
X0349946Y0022531D01*
X0349179Y0023299D01*
X0154946Y0023299D02*
X0150343Y0023299D01*
X0154946Y0026368D01*
X0150343Y0026368D01*
X0151110Y0027903D02*
X0150343Y0028670D01*
X0150343Y0030205D01*
X0151110Y0030972D01*
X0151877Y0030972D01*
X0154946Y0027903D01*
X0154946Y0030972D01*
X0154946Y0021764D02*
X0154946Y0020230D01*
X0154946Y0020997D02*
X0150343Y0020997D01*
X0150343Y0020230D02*
X0150343Y0021764D01*
X0089946Y0020997D02*
X0089179Y0020230D01*
X0086110Y0020230D01*
X0085343Y0020997D01*
X0085343Y0022531D01*
X0086110Y0023299D01*
X0085343Y0024833D02*
X0088412Y0024833D01*
X0089946Y0026368D01*
X0088412Y0027903D01*
X0085343Y0027903D01*
X0086877Y0029437D02*
X0085343Y0030972D01*
X0089946Y0030972D01*
X0089946Y0029437D02*
X0089946Y0032507D01*
X0089179Y0023299D02*
X0089946Y0022531D01*
X0089946Y0020997D01*
X0064302Y0054945D02*
X0063535Y0054945D01*
X0064302Y0054945D02*
X0065069Y0055712D01*
X0065069Y0059549D01*
X0062767Y0059549D01*
X0062000Y0058781D01*
X0062000Y0057247D01*
X0062767Y0056480D01*
X0065069Y0056480D01*
X0066604Y0056480D02*
X0066604Y0059549D01*
X0068906Y0059549D01*
X0069673Y0058781D01*
X0069673Y0056480D01*
X0071208Y0057247D02*
X0071208Y0058781D01*
X0071975Y0059549D01*
X0074277Y0059549D01*
X0074277Y0061083D02*
X0074277Y0056480D01*
X0071975Y0056480D01*
X0071208Y0057247D01*
X0024946Y0030972D02*
X0024946Y0027903D01*
X0024946Y0029437D02*
X0020343Y0029437D01*
X0021877Y0027903D01*
X0020343Y0026368D02*
X0024946Y0026368D01*
X0020343Y0023299D01*
X0024946Y0023299D01*
X0024946Y0021764D02*
X0024946Y0020230D01*
X0024946Y0020997D02*
X0020343Y0020997D01*
X0020343Y0020230D02*
X0020343Y0021764D01*
D12*
X0016800Y0015030D02*
X0056800Y0015030D01*
X0056800Y0075030D01*
X0016800Y0075030D01*
X0016800Y0015030D01*
X0081800Y0015030D02*
X0121800Y0015030D01*
X0121800Y0075030D01*
X0081800Y0075030D01*
X0081800Y0015030D01*
X0146800Y0015030D02*
X0186800Y0015030D01*
X0186800Y0075030D01*
X0146800Y0075030D01*
X0146800Y0015030D01*
X0211800Y0015030D02*
X0251800Y0015030D01*
X0251800Y0075030D01*
X0211800Y0075030D01*
X0211800Y0015030D01*
X0276800Y0015030D02*
X0316800Y0015030D01*
X0316800Y0075030D01*
X0276800Y0075030D01*
X0276800Y0015030D01*
X0341800Y0015030D02*
X0381800Y0015030D01*
X0381800Y0075030D01*
X0341800Y0075030D01*
X0341800Y0015030D01*
X0301800Y0145030D02*
X0231800Y0145030D01*
X0231800Y0150030D01*
X0234300Y0150030D01*
X0234300Y0160030D01*
X0231800Y0160030D01*
X0231800Y0165030D01*
X0301800Y0165030D01*
X0301800Y0145030D01*
X0196800Y0145030D02*
X0196800Y0165030D01*
X0126800Y0165030D01*
X0126800Y0160030D01*
X0129300Y0160030D01*
X0129300Y0150030D01*
X0126800Y0150030D01*
X0126800Y0145030D01*
X0196800Y0145030D01*
X0091800Y0145030D02*
X0091800Y0165030D01*
X0021800Y0165030D01*
X0021800Y0160030D01*
X0024300Y0160030D01*
X0024300Y0150030D01*
X0021800Y0150030D01*
X0021800Y0145030D01*
X0091800Y0145030D01*
D13*
X0096800Y0145030D02*
X0096800Y0142530D01*
X0109300Y0142530D01*
X0109300Y0145030D01*
X0108050Y0147530D01*
X0108050Y0167530D01*
X0109300Y0170030D01*
X0109300Y0172530D01*
X0096800Y0172530D01*
X0096800Y0170030D01*
X0098050Y0167530D01*
X0098050Y0147530D01*
X0096800Y0145030D01*
X0110550Y0145030D02*
X0110550Y0142530D01*
X0123050Y0142530D01*
X0123050Y0145030D01*
X0121800Y0147530D01*
X0121800Y0167530D01*
X0123050Y0170030D01*
X0123050Y0172530D01*
X0110550Y0172530D01*
X0110550Y0170030D01*
X0111800Y0167530D01*
X0111800Y0147530D01*
X0110550Y0145030D01*
X0109300Y0131280D02*
X0106800Y0131280D01*
X0106800Y0118780D01*
X0109300Y0118780D01*
X0111800Y0120030D01*
X0131800Y0120030D01*
X0134300Y0118780D01*
X0136800Y0118780D01*
X0136800Y0131280D01*
X0134300Y0131280D01*
X0131800Y0130030D01*
X0111800Y0130030D01*
X0109300Y0131280D01*
X0092800Y0131030D02*
X0060800Y0131030D01*
X0060800Y0119030D01*
X0092800Y0119030D01*
X0092800Y0131030D01*
X0094300Y0116280D02*
X0091800Y0115030D01*
X0071800Y0115030D01*
X0069300Y0116280D01*
X0066800Y0116280D01*
X0066800Y0103780D01*
X0069300Y0103780D01*
X0071800Y0105030D01*
X0091800Y0105030D01*
X0094300Y0103780D01*
X0096800Y0103780D01*
X0096800Y0116280D01*
X0094300Y0116280D01*
X0094300Y0102530D02*
X0091800Y0101280D01*
X0071800Y0101280D01*
X0069300Y0102530D01*
X0066800Y0102530D01*
X0066800Y0090030D01*
X0069300Y0090030D01*
X0071800Y0091280D01*
X0091800Y0091280D01*
X0094300Y0090030D01*
X0096800Y0090030D01*
X0096800Y0102530D01*
X0094300Y0102530D01*
X0120550Y0102530D02*
X0120550Y0090030D01*
X0123050Y0090030D01*
X0125550Y0091280D01*
X0145550Y0091280D01*
X0148050Y0090030D01*
X0150550Y0090030D01*
X0150550Y0102530D01*
X0148050Y0102530D01*
X0145550Y0101280D01*
X0125550Y0101280D01*
X0123050Y0102530D01*
X0120550Y0102530D01*
X0120550Y0103780D02*
X0123050Y0103780D01*
X0125550Y0105030D01*
X0145550Y0105030D01*
X0148050Y0103780D01*
X0150550Y0103780D01*
X0150550Y0116280D01*
X0148050Y0116280D01*
X0145550Y0115030D01*
X0125550Y0115030D01*
X0123050Y0116280D01*
X0120550Y0116280D01*
X0120550Y0103780D01*
X0170800Y0119030D02*
X0170800Y0131030D01*
X0202800Y0131030D01*
X0202800Y0119030D01*
X0170800Y0119030D01*
X0171800Y0116280D02*
X0174300Y0116280D01*
X0176800Y0115030D01*
X0196800Y0115030D01*
X0199300Y0116280D01*
X0201800Y0116280D01*
X0201800Y0103780D01*
X0199300Y0103780D01*
X0196800Y0105030D01*
X0176800Y0105030D01*
X0174300Y0103780D01*
X0171800Y0103780D01*
X0171800Y0116280D01*
X0171800Y0102530D02*
X0171800Y0090030D01*
X0174300Y0090030D01*
X0176800Y0091280D01*
X0196800Y0091280D01*
X0199300Y0090030D01*
X0201800Y0090030D01*
X0201800Y0102530D01*
X0199300Y0102530D01*
X0196800Y0101280D01*
X0176800Y0101280D01*
X0174300Y0102530D01*
X0171800Y0102530D01*
X0221800Y0100030D02*
X0224300Y0100030D01*
X0226800Y0101280D01*
X0246800Y0101280D01*
X0249300Y0100030D01*
X0251800Y0100030D01*
X0251800Y0112530D01*
X0249300Y0112530D01*
X0246800Y0111280D01*
X0226800Y0111280D01*
X0224300Y0112530D01*
X0221800Y0112530D01*
X0221800Y0100030D01*
X0221800Y0098780D02*
X0224300Y0098780D01*
X0226800Y0097530D01*
X0246800Y0097530D01*
X0249300Y0098780D01*
X0251800Y0098780D01*
X0251800Y0086280D01*
X0249300Y0086280D01*
X0246800Y0087530D01*
X0226800Y0087530D01*
X0224300Y0086280D01*
X0221800Y0086280D01*
X0221800Y0098780D01*
X0221800Y0113780D02*
X0224300Y0113780D01*
X0226800Y0115030D01*
X0246800Y0115030D01*
X0249300Y0113780D01*
X0251800Y0113780D01*
X0251800Y0126280D01*
X0249300Y0126280D01*
X0246800Y0125030D01*
X0226800Y0125030D01*
X0224300Y0126280D01*
X0221800Y0126280D01*
X0221800Y0113780D01*
X0211550Y0137780D02*
X0199550Y0137780D01*
X0199550Y0169780D01*
X0211550Y0169780D01*
X0211550Y0137780D01*
X0215550Y0140030D02*
X0228050Y0140030D01*
X0228050Y0142530D01*
X0226800Y0145030D01*
X0226800Y0165030D01*
X0228050Y0167530D01*
X0228050Y0170030D01*
X0215550Y0170030D01*
X0215550Y0167530D01*
X0216800Y0165030D01*
X0216800Y0145030D01*
X0215550Y0142530D01*
X0215550Y0140030D01*
X0270800Y0131030D02*
X0270800Y0119030D01*
X0302800Y0119030D01*
X0302800Y0131030D01*
X0270800Y0131030D01*
X0271800Y0111280D02*
X0271800Y0098780D01*
X0274300Y0098780D01*
X0276800Y0100030D01*
X0296800Y0100030D01*
X0299300Y0098780D01*
X0301800Y0098780D01*
X0301800Y0111280D01*
X0299300Y0111280D01*
X0296800Y0110030D01*
X0276800Y0110030D01*
X0274300Y0111280D01*
X0271800Y0111280D01*
X0271800Y0097530D02*
X0271800Y0085030D01*
X0274300Y0085030D01*
X0276800Y0086280D01*
X0296800Y0086280D01*
X0299300Y0085030D01*
X0301800Y0085030D01*
X0301800Y0097530D01*
X0299300Y0097530D01*
X0296800Y0096280D01*
X0276800Y0096280D01*
X0274300Y0097530D01*
X0271800Y0097530D01*
X0305800Y0119030D02*
X0337800Y0119030D01*
X0337800Y0131030D01*
X0305800Y0131030D01*
X0305800Y0119030D01*
X0321800Y0111280D02*
X0324300Y0111280D01*
X0326800Y0110030D01*
X0346800Y0110030D01*
X0349300Y0111280D01*
X0351800Y0111280D01*
X0351800Y0098780D01*
X0349300Y0098780D01*
X0346800Y0100030D01*
X0326800Y0100030D01*
X0324300Y0098780D01*
X0321800Y0098780D01*
X0321800Y0111280D01*
X0317800Y0139030D02*
X0305800Y0139030D01*
X0305800Y0171030D01*
X0317800Y0171030D01*
X0317800Y0139030D01*
X0321800Y0143780D02*
X0334300Y0143780D01*
X0334300Y0146280D01*
X0333050Y0148780D01*
X0333050Y0168780D01*
X0334300Y0171280D01*
X0334300Y0173780D01*
X0321800Y0173780D01*
X0321800Y0171280D01*
X0323050Y0168780D01*
X0323050Y0148780D01*
X0321800Y0146280D01*
X0321800Y0143780D01*
X0340750Y0169080D02*
X0340750Y0171380D01*
X0339450Y0170180D02*
X0342150Y0170180D01*
X0361950Y0170180D02*
X0364650Y0170180D01*
X0363250Y0169080D02*
X0363250Y0171380D01*
X0379300Y0171280D02*
X0380550Y0168780D01*
X0380550Y0148780D01*
X0379300Y0146280D01*
X0379300Y0143780D01*
X0391800Y0143780D01*
X0391800Y0146280D01*
X0390550Y0148780D01*
X0390550Y0168780D01*
X0391800Y0171280D01*
X0391800Y0173780D01*
X0379300Y0173780D01*
X0379300Y0171280D01*
X0380449Y0202780D02*
X0377446Y0202780D01*
X0380449Y0205782D01*
X0380449Y0206533D01*
X0379698Y0207283D01*
X0378197Y0207283D01*
X0377446Y0206533D01*
X0377446Y0212780D02*
X0380449Y0212780D01*
X0378947Y0212780D02*
X0378947Y0217283D01*
X0377446Y0215782D01*
X0354449Y0222030D02*
X0353698Y0221280D01*
X0352197Y0221280D01*
X0351446Y0222030D01*
X0354449Y0225033D01*
X0354449Y0222030D01*
X0351446Y0222030D02*
X0351446Y0225033D01*
X0352197Y0225783D01*
X0353698Y0225783D01*
X0354449Y0225033D01*
X0348343Y0225783D02*
X0348343Y0221280D01*
X0346842Y0221280D02*
X0349845Y0221280D01*
X0346842Y0224282D02*
X0348343Y0225783D01*
X0295550Y0221280D02*
X0295550Y0208780D01*
X0293050Y0208780D01*
X0290550Y0210030D01*
X0270550Y0210030D01*
X0268050Y0208780D01*
X0265550Y0208780D01*
X0265550Y0221280D01*
X0268050Y0221280D01*
X0270550Y0220030D01*
X0290550Y0220030D01*
X0293050Y0221280D01*
X0295550Y0221280D01*
X0295550Y0207530D02*
X0293050Y0207530D01*
X0290550Y0206280D01*
X0270550Y0206280D01*
X0268050Y0207530D01*
X0265550Y0207530D01*
X0265550Y0195030D01*
X0268050Y0195030D01*
X0270550Y0196280D01*
X0290550Y0196280D01*
X0293050Y0195030D01*
X0295550Y0195030D01*
X0295550Y0207530D01*
X0295550Y0193780D02*
X0293050Y0193780D01*
X0290550Y0192530D01*
X0270550Y0192530D01*
X0268050Y0193780D01*
X0265550Y0193780D01*
X0265550Y0181280D01*
X0268050Y0181280D01*
X0270550Y0182530D01*
X0290550Y0182530D01*
X0293050Y0181280D01*
X0295550Y0181280D01*
X0295550Y0193780D01*
X0245550Y0193780D02*
X0245550Y0181280D01*
X0243050Y0181280D01*
X0240550Y0182530D01*
X0220550Y0182530D01*
X0218050Y0181280D01*
X0215550Y0181280D01*
X0215550Y0193780D01*
X0218050Y0193780D01*
X0220550Y0192530D01*
X0240550Y0192530D01*
X0243050Y0193780D01*
X0245550Y0193780D01*
X0195300Y0189030D02*
X0195300Y0221030D01*
X0183300Y0221030D01*
X0183300Y0189030D01*
X0195300Y0189030D01*
X0168050Y0195030D02*
X0165550Y0195030D01*
X0163050Y0196280D01*
X0143050Y0196280D01*
X0140550Y0195030D01*
X0138050Y0195030D01*
X0138050Y0207530D01*
X0140550Y0207530D01*
X0143050Y0206280D01*
X0163050Y0206280D01*
X0165550Y0207530D01*
X0168050Y0207530D01*
X0168050Y0195030D01*
X0168050Y0208780D02*
X0165550Y0208780D01*
X0163050Y0210030D01*
X0143050Y0210030D01*
X0140550Y0208780D01*
X0138050Y0208780D01*
X0138050Y0221280D01*
X0140550Y0221280D01*
X0143050Y0220030D01*
X0163050Y0220030D01*
X0165550Y0221280D01*
X0168050Y0221280D01*
X0168050Y0208780D01*
X0107800Y0221030D02*
X0107800Y0189030D01*
X0095800Y0189030D01*
X0095800Y0221030D01*
X0107800Y0221030D01*
X0094050Y0221030D02*
X0094050Y0189030D01*
X0082050Y0189030D01*
X0082050Y0221030D01*
X0094050Y0221030D01*
X0064300Y0203780D02*
X0061800Y0203780D01*
X0059300Y0202530D01*
X0039300Y0202530D01*
X0036800Y0203780D01*
X0034300Y0203780D01*
X0034300Y0191280D01*
X0036800Y0191280D01*
X0039300Y0192530D01*
X0059300Y0192530D01*
X0061800Y0191280D01*
X0064300Y0191280D01*
X0064300Y0203780D01*
X0059300Y0190030D02*
X0056800Y0190030D01*
X0054300Y0188780D01*
X0034300Y0188780D01*
X0031800Y0190030D01*
X0029300Y0190030D01*
X0029300Y0177530D01*
X0031800Y0177530D01*
X0034300Y0178780D01*
X0054300Y0178780D01*
X0056800Y0177530D01*
X0059300Y0177530D01*
X0059300Y0190030D01*
X0018050Y0180030D02*
X0018050Y0177530D01*
X0016800Y0175030D01*
X0016800Y0155030D01*
X0018050Y0152530D01*
X0018050Y0150030D01*
X0005550Y0150030D01*
X0005550Y0152530D01*
X0006800Y0155030D01*
X0006800Y0175030D01*
X0005550Y0177530D01*
X0005550Y0180030D01*
X0018050Y0180030D01*
X0019300Y0131280D02*
X0016800Y0131280D01*
X0016800Y0118780D01*
X0019300Y0118780D01*
X0021800Y0120030D01*
X0041800Y0120030D01*
X0044300Y0118780D01*
X0046800Y0118780D01*
X0046800Y0131280D01*
X0044300Y0131280D01*
X0041800Y0130030D01*
X0021800Y0130030D01*
X0019300Y0131280D01*
X0019300Y0117530D02*
X0016800Y0117530D01*
X0016800Y0105030D01*
X0019300Y0105030D01*
X0021800Y0106280D01*
X0041800Y0106280D01*
X0044300Y0105030D01*
X0046800Y0105030D01*
X0046800Y0117530D01*
X0044300Y0117530D01*
X0041800Y0116280D01*
X0021800Y0116280D01*
X0019300Y0117530D01*
X0062801Y0042283D02*
X0062050Y0041533D01*
X0062050Y0038530D01*
X0062801Y0037780D01*
X0064302Y0037780D01*
X0065053Y0038530D01*
X0065053Y0041533D01*
X0064302Y0042283D01*
X0062801Y0042283D01*
X0066654Y0042283D02*
X0066654Y0038530D01*
X0067405Y0037780D01*
X0068906Y0037780D01*
X0069656Y0038530D01*
X0069656Y0042283D01*
X0071258Y0042283D02*
X0074260Y0042283D01*
X0072759Y0042283D02*
X0072759Y0037780D01*
X0075862Y0037780D02*
X0078864Y0037780D01*
X0077363Y0037780D02*
X0077363Y0042283D01*
X0075862Y0040782D01*
X0192050Y0041533D02*
X0192050Y0038530D01*
X0192801Y0037780D01*
X0194302Y0037780D01*
X0195053Y0038530D01*
X0195053Y0041533D01*
X0194302Y0042283D01*
X0192801Y0042283D01*
X0192050Y0041533D01*
X0196654Y0042283D02*
X0196654Y0038530D01*
X0197405Y0037780D01*
X0198906Y0037780D01*
X0199656Y0038530D01*
X0199656Y0042283D01*
X0201258Y0042283D02*
X0204260Y0042283D01*
X0202759Y0042283D02*
X0202759Y0037780D01*
X0205862Y0037780D02*
X0208864Y0040782D01*
X0208864Y0041533D01*
X0208114Y0042283D01*
X0206612Y0042283D01*
X0205862Y0041533D01*
X0205862Y0037780D02*
X0208864Y0037780D01*
X0322050Y0038530D02*
X0322801Y0037780D01*
X0324302Y0037780D01*
X0325053Y0038530D01*
X0325053Y0041533D01*
X0324302Y0042283D01*
X0322801Y0042283D01*
X0322050Y0041533D01*
X0322050Y0038530D01*
X0326654Y0038530D02*
X0327405Y0037780D01*
X0328906Y0037780D01*
X0329656Y0038530D01*
X0329656Y0042283D01*
X0331258Y0042283D02*
X0334260Y0042283D01*
X0332759Y0042283D02*
X0332759Y0037780D01*
X0335862Y0038530D02*
X0336612Y0037780D01*
X0338114Y0037780D01*
X0338864Y0038530D01*
X0338864Y0039281D01*
X0338114Y0040031D01*
X0337363Y0040031D01*
X0338114Y0040031D02*
X0338864Y0040782D01*
X0338864Y0041533D01*
X0338114Y0042283D01*
X0336612Y0042283D01*
X0335862Y0041533D01*
X0326654Y0042283D02*
X0326654Y0038530D01*
D14*
X0324688Y0123980D02*
X0322753Y0123980D01*
X0323721Y0123980D02*
X0323721Y0126882D01*
X0322753Y0125915D01*
X0321742Y0123980D02*
X0319807Y0123980D01*
X0320774Y0123980D02*
X0320774Y0126882D01*
X0319807Y0125915D01*
X0318795Y0126398D02*
X0318312Y0126882D01*
X0317344Y0126882D01*
X0316860Y0126398D01*
X0316860Y0124463D01*
X0317344Y0123980D01*
X0318312Y0123980D01*
X0318795Y0124463D01*
X0289331Y0124631D02*
X0287880Y0124631D01*
X0287397Y0125115D01*
X0287397Y0125598D01*
X0287880Y0126082D01*
X0288848Y0126082D01*
X0289331Y0125598D01*
X0289331Y0123663D01*
X0288848Y0123180D01*
X0287880Y0123180D01*
X0287397Y0123663D01*
X0286385Y0123663D02*
X0285901Y0123180D01*
X0284934Y0123180D01*
X0284450Y0123663D01*
X0284450Y0125598D01*
X0284934Y0126082D01*
X0285901Y0126082D01*
X0286385Y0125598D01*
X0310431Y0150090D02*
X0312366Y0150090D01*
X0312850Y0150574D01*
X0312850Y0151541D01*
X0312366Y0152025D01*
X0312850Y0153036D02*
X0312850Y0154971D01*
X0312850Y0154004D02*
X0309948Y0154004D01*
X0310915Y0153036D01*
X0310431Y0152025D02*
X0309948Y0151541D01*
X0309948Y0150574D01*
X0310431Y0150090D01*
X0310431Y0155983D02*
X0309948Y0156467D01*
X0309948Y0157434D01*
X0310431Y0157918D01*
X0312366Y0155983D01*
X0312850Y0156467D01*
X0312850Y0157434D01*
X0312366Y0157918D01*
X0310431Y0157918D01*
X0310431Y0155983D02*
X0312366Y0155983D01*
X0207400Y0155827D02*
X0207400Y0154860D01*
X0206916Y0154376D01*
X0206433Y0154376D01*
X0205949Y0154860D01*
X0205949Y0155827D01*
X0206433Y0156311D01*
X0206916Y0156311D01*
X0207400Y0155827D01*
X0205949Y0155827D02*
X0205465Y0156311D01*
X0204981Y0156311D01*
X0204498Y0155827D01*
X0204498Y0154860D01*
X0204981Y0154376D01*
X0205465Y0154376D01*
X0205949Y0154860D01*
X0206916Y0153365D02*
X0207400Y0152881D01*
X0207400Y0151913D01*
X0206916Y0151430D01*
X0204981Y0151430D01*
X0204498Y0151913D01*
X0204498Y0152881D01*
X0204981Y0153365D01*
X0189331Y0126082D02*
X0188364Y0125598D01*
X0187397Y0124631D01*
X0188848Y0124631D01*
X0189331Y0124147D01*
X0189331Y0123663D01*
X0188848Y0123180D01*
X0187880Y0123180D01*
X0187397Y0123663D01*
X0187397Y0124631D01*
X0186385Y0125598D02*
X0185901Y0126082D01*
X0184934Y0126082D01*
X0184450Y0125598D01*
X0184450Y0123663D01*
X0184934Y0123180D01*
X0185901Y0123180D01*
X0186385Y0123663D01*
X0079331Y0123180D02*
X0077397Y0123180D01*
X0078364Y0123180D02*
X0078364Y0126082D01*
X0077397Y0125115D01*
X0076385Y0125598D02*
X0075901Y0126082D01*
X0074934Y0126082D01*
X0074450Y0125598D01*
X0074450Y0123663D01*
X0074934Y0123180D01*
X0075901Y0123180D01*
X0076385Y0123663D01*
X0086681Y0201786D02*
X0088616Y0201786D01*
X0089100Y0202270D01*
X0089100Y0203238D01*
X0088616Y0203721D01*
X0088616Y0204733D02*
X0089100Y0205217D01*
X0089100Y0206184D01*
X0088616Y0206668D01*
X0087649Y0206668D01*
X0087165Y0206184D01*
X0087165Y0205700D01*
X0087649Y0204733D01*
X0086198Y0204733D01*
X0086198Y0206668D01*
X0086681Y0203721D02*
X0086198Y0203238D01*
X0086198Y0202270D01*
X0086681Y0201786D01*
X0099948Y0202270D02*
X0100431Y0201786D01*
X0102366Y0201786D01*
X0102850Y0202270D01*
X0102850Y0203238D01*
X0102366Y0203721D01*
X0101399Y0204733D02*
X0101399Y0206668D01*
X0102850Y0206184D02*
X0099948Y0206184D01*
X0101399Y0204733D01*
X0100431Y0203721D02*
X0099948Y0203238D01*
X0099948Y0202270D01*
X0187448Y0202270D02*
X0187931Y0201786D01*
X0189866Y0201786D01*
X0190350Y0202270D01*
X0190350Y0203238D01*
X0189866Y0203721D01*
X0189866Y0204733D02*
X0190350Y0204733D01*
X0189866Y0204733D02*
X0187931Y0206668D01*
X0187448Y0206668D01*
X0187448Y0204733D01*
X0187931Y0203721D02*
X0187448Y0203238D01*
X0187448Y0202270D01*
D15*
X0222800Y0215030D02*
X0222803Y0215312D01*
X0222814Y0215594D01*
X0222831Y0215876D01*
X0222855Y0216157D01*
X0222886Y0216438D01*
X0222924Y0216717D01*
X0222969Y0216996D01*
X0223021Y0217274D01*
X0223079Y0217550D01*
X0223145Y0217824D01*
X0223217Y0218097D01*
X0223295Y0218368D01*
X0223380Y0218637D01*
X0223472Y0218904D01*
X0223571Y0219169D01*
X0223675Y0219431D01*
X0223787Y0219690D01*
X0223904Y0219947D01*
X0224028Y0220201D01*
X0224158Y0220451D01*
X0224294Y0220698D01*
X0224436Y0220942D01*
X0224584Y0221182D01*
X0224738Y0221419D01*
X0224898Y0221652D01*
X0225063Y0221881D01*
X0225234Y0222105D01*
X0225410Y0222326D01*
X0225592Y0222541D01*
X0225779Y0222753D01*
X0225971Y0222960D01*
X0226168Y0223162D01*
X0226370Y0223359D01*
X0226577Y0223551D01*
X0226789Y0223738D01*
X0227004Y0223920D01*
X0227225Y0224096D01*
X0227449Y0224267D01*
X0227678Y0224432D01*
X0227911Y0224592D01*
X0228148Y0224746D01*
X0228388Y0224894D01*
X0228632Y0225036D01*
X0228879Y0225172D01*
X0229129Y0225302D01*
X0229383Y0225426D01*
X0229640Y0225543D01*
X0229899Y0225655D01*
X0230161Y0225759D01*
X0230426Y0225858D01*
X0230693Y0225950D01*
X0230962Y0226035D01*
X0231233Y0226113D01*
X0231506Y0226185D01*
X0231780Y0226251D01*
X0232056Y0226309D01*
X0232334Y0226361D01*
X0232613Y0226406D01*
X0232892Y0226444D01*
X0233173Y0226475D01*
X0233454Y0226499D01*
X0233736Y0226516D01*
X0234018Y0226527D01*
X0234300Y0226530D01*
X0234582Y0226527D01*
X0234864Y0226516D01*
X0235146Y0226499D01*
X0235427Y0226475D01*
X0235708Y0226444D01*
X0235987Y0226406D01*
X0236266Y0226361D01*
X0236544Y0226309D01*
X0236820Y0226251D01*
X0237094Y0226185D01*
X0237367Y0226113D01*
X0237638Y0226035D01*
X0237907Y0225950D01*
X0238174Y0225858D01*
X0238439Y0225759D01*
X0238701Y0225655D01*
X0238960Y0225543D01*
X0239217Y0225426D01*
X0239471Y0225302D01*
X0239721Y0225172D01*
X0239968Y0225036D01*
X0240212Y0224894D01*
X0240452Y0224746D01*
X0240689Y0224592D01*
X0240922Y0224432D01*
X0241151Y0224267D01*
X0241375Y0224096D01*
X0241596Y0223920D01*
X0241811Y0223738D01*
X0242023Y0223551D01*
X0242230Y0223359D01*
X0242432Y0223162D01*
X0242629Y0222960D01*
X0242821Y0222753D01*
X0243008Y0222541D01*
X0243190Y0222326D01*
X0243366Y0222105D01*
X0243537Y0221881D01*
X0243702Y0221652D01*
X0243862Y0221419D01*
X0244016Y0221182D01*
X0244164Y0220942D01*
X0244306Y0220698D01*
X0244442Y0220451D01*
X0244572Y0220201D01*
X0244696Y0219947D01*
X0244813Y0219690D01*
X0244925Y0219431D01*
X0245029Y0219169D01*
X0245128Y0218904D01*
X0245220Y0218637D01*
X0245305Y0218368D01*
X0245383Y0218097D01*
X0245455Y0217824D01*
X0245521Y0217550D01*
X0245579Y0217274D01*
X0245631Y0216996D01*
X0245676Y0216717D01*
X0245714Y0216438D01*
X0245745Y0216157D01*
X0245769Y0215876D01*
X0245786Y0215594D01*
X0245797Y0215312D01*
X0245800Y0215030D01*
X0245797Y0214748D01*
X0245786Y0214466D01*
X0245769Y0214184D01*
X0245745Y0213903D01*
X0245714Y0213622D01*
X0245676Y0213343D01*
X0245631Y0213064D01*
X0245579Y0212786D01*
X0245521Y0212510D01*
X0245455Y0212236D01*
X0245383Y0211963D01*
X0245305Y0211692D01*
X0245220Y0211423D01*
X0245128Y0211156D01*
X0245029Y0210891D01*
X0244925Y0210629D01*
X0244813Y0210370D01*
X0244696Y0210113D01*
X0244572Y0209859D01*
X0244442Y0209609D01*
X0244306Y0209362D01*
X0244164Y0209118D01*
X0244016Y0208878D01*
X0243862Y0208641D01*
X0243702Y0208408D01*
X0243537Y0208179D01*
X0243366Y0207955D01*
X0243190Y0207734D01*
X0243008Y0207519D01*
X0242821Y0207307D01*
X0242629Y0207100D01*
X0242432Y0206898D01*
X0242230Y0206701D01*
X0242023Y0206509D01*
X0241811Y0206322D01*
X0241596Y0206140D01*
X0241375Y0205964D01*
X0241151Y0205793D01*
X0240922Y0205628D01*
X0240689Y0205468D01*
X0240452Y0205314D01*
X0240212Y0205166D01*
X0239968Y0205024D01*
X0239721Y0204888D01*
X0239471Y0204758D01*
X0239217Y0204634D01*
X0238960Y0204517D01*
X0238701Y0204405D01*
X0238439Y0204301D01*
X0238174Y0204202D01*
X0237907Y0204110D01*
X0237638Y0204025D01*
X0237367Y0203947D01*
X0237094Y0203875D01*
X0236820Y0203809D01*
X0236544Y0203751D01*
X0236266Y0203699D01*
X0235987Y0203654D01*
X0235708Y0203616D01*
X0235427Y0203585D01*
X0235146Y0203561D01*
X0234864Y0203544D01*
X0234582Y0203533D01*
X0234300Y0203530D01*
X0234018Y0203533D01*
X0233736Y0203544D01*
X0233454Y0203561D01*
X0233173Y0203585D01*
X0232892Y0203616D01*
X0232613Y0203654D01*
X0232334Y0203699D01*
X0232056Y0203751D01*
X0231780Y0203809D01*
X0231506Y0203875D01*
X0231233Y0203947D01*
X0230962Y0204025D01*
X0230693Y0204110D01*
X0230426Y0204202D01*
X0230161Y0204301D01*
X0229899Y0204405D01*
X0229640Y0204517D01*
X0229383Y0204634D01*
X0229129Y0204758D01*
X0228879Y0204888D01*
X0228632Y0205024D01*
X0228388Y0205166D01*
X0228148Y0205314D01*
X0227911Y0205468D01*
X0227678Y0205628D01*
X0227449Y0205793D01*
X0227225Y0205964D01*
X0227004Y0206140D01*
X0226789Y0206322D01*
X0226577Y0206509D01*
X0226370Y0206701D01*
X0226168Y0206898D01*
X0225971Y0207100D01*
X0225779Y0207307D01*
X0225592Y0207519D01*
X0225410Y0207734D01*
X0225234Y0207955D01*
X0225063Y0208179D01*
X0224898Y0208408D01*
X0224738Y0208641D01*
X0224584Y0208878D01*
X0224436Y0209118D01*
X0224294Y0209362D01*
X0224158Y0209609D01*
X0224028Y0209859D01*
X0223904Y0210113D01*
X0223787Y0210370D01*
X0223675Y0210629D01*
X0223571Y0210891D01*
X0223472Y0211156D01*
X0223380Y0211423D01*
X0223295Y0211692D01*
X0223217Y0211963D01*
X0223145Y0212236D01*
X0223079Y0212510D01*
X0223021Y0212786D01*
X0222969Y0213064D01*
X0222924Y0213343D01*
X0222886Y0213622D01*
X0222855Y0213903D01*
X0222831Y0214184D01*
X0222814Y0214466D01*
X0222803Y0214748D01*
X0222800Y0215030D01*
X0311800Y0227530D02*
X0311800Y0192530D01*
X0316800Y0192530D01*
X0316800Y0191530D01*
X0321800Y0191530D01*
X0321800Y0192530D01*
X0349300Y0192530D01*
X0349300Y0191530D01*
X0354300Y0191530D01*
X0354300Y0192530D01*
X0381800Y0192530D01*
X0381800Y0191530D01*
X0386800Y0191530D01*
X0386800Y0192530D01*
X0391800Y0192530D01*
X0391800Y0227530D01*
X0374300Y0227530D01*
X0374300Y0227030D01*
X0369300Y0227030D01*
X0369300Y0227530D01*
X0359800Y0227530D01*
X0359800Y0223530D01*
X0359800Y0222530D01*
X0386800Y0222530D01*
X0386800Y0197530D01*
X0316800Y0197530D01*
X0316800Y0222530D01*
X0333800Y0222530D01*
X0339800Y0222530D01*
X0343800Y0222530D01*
X0343800Y0223530D01*
X0343800Y0227530D01*
X0359800Y0227530D01*
X0359800Y0222530D02*
X0359800Y0219530D01*
X0343800Y0219530D01*
X0343800Y0222530D01*
X0339800Y0222530D02*
X0339800Y0223530D01*
X0339800Y0225530D01*
X0333800Y0225530D01*
X0333800Y0223530D01*
X0333800Y0222530D01*
X0333800Y0225530D02*
X0331800Y0225530D01*
X0330300Y0227530D01*
X0311800Y0227530D01*
X0339800Y0225530D02*
X0341800Y0225530D01*
X0343300Y0227530D01*
X0343800Y0227530D01*
X0334550Y0163780D02*
X0334553Y0164050D01*
X0334563Y0164320D01*
X0334580Y0164589D01*
X0334603Y0164858D01*
X0334633Y0165127D01*
X0334669Y0165394D01*
X0334712Y0165661D01*
X0334761Y0165926D01*
X0334817Y0166190D01*
X0334880Y0166453D01*
X0334948Y0166714D01*
X0335024Y0166973D01*
X0335105Y0167230D01*
X0335193Y0167486D01*
X0335287Y0167739D01*
X0335387Y0167990D01*
X0335494Y0168238D01*
X0335606Y0168483D01*
X0335725Y0168726D01*
X0335849Y0168965D01*
X0335979Y0169202D01*
X0336115Y0169435D01*
X0336257Y0169665D01*
X0336404Y0169891D01*
X0336557Y0170114D01*
X0336715Y0170333D01*
X0336878Y0170548D01*
X0337047Y0170758D01*
X0337221Y0170965D01*
X0337400Y0171167D01*
X0337583Y0171365D01*
X0337772Y0171558D01*
X0337965Y0171747D01*
X0338163Y0171930D01*
X0338365Y0172109D01*
X0338572Y0172283D01*
X0338782Y0172452D01*
X0338997Y0172615D01*
X0339216Y0172773D01*
X0339439Y0172926D01*
X0339665Y0173073D01*
X0339895Y0173215D01*
X0340128Y0173351D01*
X0340365Y0173481D01*
X0340604Y0173605D01*
X0340847Y0173724D01*
X0341092Y0173836D01*
X0341340Y0173943D01*
X0341591Y0174043D01*
X0341844Y0174137D01*
X0342100Y0174225D01*
X0342357Y0174306D01*
X0342616Y0174382D01*
X0342877Y0174450D01*
X0343140Y0174513D01*
X0343404Y0174569D01*
X0343669Y0174618D01*
X0343936Y0174661D01*
X0344203Y0174697D01*
X0344472Y0174727D01*
X0344741Y0174750D01*
X0345010Y0174767D01*
X0345280Y0174777D01*
X0345550Y0174780D01*
X0345820Y0174777D01*
X0346090Y0174767D01*
X0346359Y0174750D01*
X0346628Y0174727D01*
X0346897Y0174697D01*
X0347164Y0174661D01*
X0347431Y0174618D01*
X0347696Y0174569D01*
X0347960Y0174513D01*
X0348223Y0174450D01*
X0348484Y0174382D01*
X0348743Y0174306D01*
X0349000Y0174225D01*
X0349256Y0174137D01*
X0349509Y0174043D01*
X0349760Y0173943D01*
X0350008Y0173836D01*
X0350253Y0173724D01*
X0350496Y0173605D01*
X0350735Y0173481D01*
X0350972Y0173351D01*
X0351205Y0173215D01*
X0351435Y0173073D01*
X0351661Y0172926D01*
X0351884Y0172773D01*
X0352103Y0172615D01*
X0352318Y0172452D01*
X0352528Y0172283D01*
X0352735Y0172109D01*
X0352937Y0171930D01*
X0353135Y0171747D01*
X0353328Y0171558D01*
X0353517Y0171365D01*
X0353700Y0171167D01*
X0353879Y0170965D01*
X0354053Y0170758D01*
X0354222Y0170548D01*
X0354385Y0170333D01*
X0354543Y0170114D01*
X0354696Y0169891D01*
X0354843Y0169665D01*
X0354985Y0169435D01*
X0355121Y0169202D01*
X0355251Y0168965D01*
X0355375Y0168726D01*
X0355494Y0168483D01*
X0355606Y0168238D01*
X0355713Y0167990D01*
X0355813Y0167739D01*
X0355907Y0167486D01*
X0355995Y0167230D01*
X0356076Y0166973D01*
X0356152Y0166714D01*
X0356220Y0166453D01*
X0356283Y0166190D01*
X0356339Y0165926D01*
X0356388Y0165661D01*
X0356431Y0165394D01*
X0356467Y0165127D01*
X0356497Y0164858D01*
X0356520Y0164589D01*
X0356537Y0164320D01*
X0356547Y0164050D01*
X0356550Y0163780D01*
X0356547Y0163510D01*
X0356537Y0163240D01*
X0356520Y0162971D01*
X0356497Y0162702D01*
X0356467Y0162433D01*
X0356431Y0162166D01*
X0356388Y0161899D01*
X0356339Y0161634D01*
X0356283Y0161370D01*
X0356220Y0161107D01*
X0356152Y0160846D01*
X0356076Y0160587D01*
X0355995Y0160330D01*
X0355907Y0160074D01*
X0355813Y0159821D01*
X0355713Y0159570D01*
X0355606Y0159322D01*
X0355494Y0159077D01*
X0355375Y0158834D01*
X0355251Y0158595D01*
X0355121Y0158358D01*
X0354985Y0158125D01*
X0354843Y0157895D01*
X0354696Y0157669D01*
X0354543Y0157446D01*
X0354385Y0157227D01*
X0354222Y0157012D01*
X0354053Y0156802D01*
X0353879Y0156595D01*
X0353700Y0156393D01*
X0353517Y0156195D01*
X0353328Y0156002D01*
X0353135Y0155813D01*
X0352937Y0155630D01*
X0352735Y0155451D01*
X0352528Y0155277D01*
X0352318Y0155108D01*
X0352103Y0154945D01*
X0351884Y0154787D01*
X0351661Y0154634D01*
X0351435Y0154487D01*
X0351205Y0154345D01*
X0350972Y0154209D01*
X0350735Y0154079D01*
X0350496Y0153955D01*
X0350253Y0153836D01*
X0350008Y0153724D01*
X0349760Y0153617D01*
X0349509Y0153517D01*
X0349256Y0153423D01*
X0349000Y0153335D01*
X0348743Y0153254D01*
X0348484Y0153178D01*
X0348223Y0153110D01*
X0347960Y0153047D01*
X0347696Y0152991D01*
X0347431Y0152942D01*
X0347164Y0152899D01*
X0346897Y0152863D01*
X0346628Y0152833D01*
X0346359Y0152810D01*
X0346090Y0152793D01*
X0345820Y0152783D01*
X0345550Y0152780D01*
X0345280Y0152783D01*
X0345010Y0152793D01*
X0344741Y0152810D01*
X0344472Y0152833D01*
X0344203Y0152863D01*
X0343936Y0152899D01*
X0343669Y0152942D01*
X0343404Y0152991D01*
X0343140Y0153047D01*
X0342877Y0153110D01*
X0342616Y0153178D01*
X0342357Y0153254D01*
X0342100Y0153335D01*
X0341844Y0153423D01*
X0341591Y0153517D01*
X0341340Y0153617D01*
X0341092Y0153724D01*
X0340847Y0153836D01*
X0340604Y0153955D01*
X0340365Y0154079D01*
X0340128Y0154209D01*
X0339895Y0154345D01*
X0339665Y0154487D01*
X0339439Y0154634D01*
X0339216Y0154787D01*
X0338997Y0154945D01*
X0338782Y0155108D01*
X0338572Y0155277D01*
X0338365Y0155451D01*
X0338163Y0155630D01*
X0337965Y0155813D01*
X0337772Y0156002D01*
X0337583Y0156195D01*
X0337400Y0156393D01*
X0337221Y0156595D01*
X0337047Y0156802D01*
X0336878Y0157012D01*
X0336715Y0157227D01*
X0336557Y0157446D01*
X0336404Y0157669D01*
X0336257Y0157895D01*
X0336115Y0158125D01*
X0335979Y0158358D01*
X0335849Y0158595D01*
X0335725Y0158834D01*
X0335606Y0159077D01*
X0335494Y0159322D01*
X0335387Y0159570D01*
X0335287Y0159821D01*
X0335193Y0160074D01*
X0335105Y0160330D01*
X0335024Y0160587D01*
X0334948Y0160846D01*
X0334880Y0161107D01*
X0334817Y0161370D01*
X0334761Y0161634D01*
X0334712Y0161899D01*
X0334669Y0162166D01*
X0334633Y0162433D01*
X0334603Y0162702D01*
X0334580Y0162971D01*
X0334563Y0163240D01*
X0334553Y0163510D01*
X0334550Y0163780D01*
X0357050Y0163780D02*
X0357053Y0164050D01*
X0357063Y0164320D01*
X0357080Y0164589D01*
X0357103Y0164858D01*
X0357133Y0165127D01*
X0357169Y0165394D01*
X0357212Y0165661D01*
X0357261Y0165926D01*
X0357317Y0166190D01*
X0357380Y0166453D01*
X0357448Y0166714D01*
X0357524Y0166973D01*
X0357605Y0167230D01*
X0357693Y0167486D01*
X0357787Y0167739D01*
X0357887Y0167990D01*
X0357994Y0168238D01*
X0358106Y0168483D01*
X0358225Y0168726D01*
X0358349Y0168965D01*
X0358479Y0169202D01*
X0358615Y0169435D01*
X0358757Y0169665D01*
X0358904Y0169891D01*
X0359057Y0170114D01*
X0359215Y0170333D01*
X0359378Y0170548D01*
X0359547Y0170758D01*
X0359721Y0170965D01*
X0359900Y0171167D01*
X0360083Y0171365D01*
X0360272Y0171558D01*
X0360465Y0171747D01*
X0360663Y0171930D01*
X0360865Y0172109D01*
X0361072Y0172283D01*
X0361282Y0172452D01*
X0361497Y0172615D01*
X0361716Y0172773D01*
X0361939Y0172926D01*
X0362165Y0173073D01*
X0362395Y0173215D01*
X0362628Y0173351D01*
X0362865Y0173481D01*
X0363104Y0173605D01*
X0363347Y0173724D01*
X0363592Y0173836D01*
X0363840Y0173943D01*
X0364091Y0174043D01*
X0364344Y0174137D01*
X0364600Y0174225D01*
X0364857Y0174306D01*
X0365116Y0174382D01*
X0365377Y0174450D01*
X0365640Y0174513D01*
X0365904Y0174569D01*
X0366169Y0174618D01*
X0366436Y0174661D01*
X0366703Y0174697D01*
X0366972Y0174727D01*
X0367241Y0174750D01*
X0367510Y0174767D01*
X0367780Y0174777D01*
X0368050Y0174780D01*
X0368320Y0174777D01*
X0368590Y0174767D01*
X0368859Y0174750D01*
X0369128Y0174727D01*
X0369397Y0174697D01*
X0369664Y0174661D01*
X0369931Y0174618D01*
X0370196Y0174569D01*
X0370460Y0174513D01*
X0370723Y0174450D01*
X0370984Y0174382D01*
X0371243Y0174306D01*
X0371500Y0174225D01*
X0371756Y0174137D01*
X0372009Y0174043D01*
X0372260Y0173943D01*
X0372508Y0173836D01*
X0372753Y0173724D01*
X0372996Y0173605D01*
X0373235Y0173481D01*
X0373472Y0173351D01*
X0373705Y0173215D01*
X0373935Y0173073D01*
X0374161Y0172926D01*
X0374384Y0172773D01*
X0374603Y0172615D01*
X0374818Y0172452D01*
X0375028Y0172283D01*
X0375235Y0172109D01*
X0375437Y0171930D01*
X0375635Y0171747D01*
X0375828Y0171558D01*
X0376017Y0171365D01*
X0376200Y0171167D01*
X0376379Y0170965D01*
X0376553Y0170758D01*
X0376722Y0170548D01*
X0376885Y0170333D01*
X0377043Y0170114D01*
X0377196Y0169891D01*
X0377343Y0169665D01*
X0377485Y0169435D01*
X0377621Y0169202D01*
X0377751Y0168965D01*
X0377875Y0168726D01*
X0377994Y0168483D01*
X0378106Y0168238D01*
X0378213Y0167990D01*
X0378313Y0167739D01*
X0378407Y0167486D01*
X0378495Y0167230D01*
X0378576Y0166973D01*
X0378652Y0166714D01*
X0378720Y0166453D01*
X0378783Y0166190D01*
X0378839Y0165926D01*
X0378888Y0165661D01*
X0378931Y0165394D01*
X0378967Y0165127D01*
X0378997Y0164858D01*
X0379020Y0164589D01*
X0379037Y0164320D01*
X0379047Y0164050D01*
X0379050Y0163780D01*
X0379047Y0163510D01*
X0379037Y0163240D01*
X0379020Y0162971D01*
X0378997Y0162702D01*
X0378967Y0162433D01*
X0378931Y0162166D01*
X0378888Y0161899D01*
X0378839Y0161634D01*
X0378783Y0161370D01*
X0378720Y0161107D01*
X0378652Y0160846D01*
X0378576Y0160587D01*
X0378495Y0160330D01*
X0378407Y0160074D01*
X0378313Y0159821D01*
X0378213Y0159570D01*
X0378106Y0159322D01*
X0377994Y0159077D01*
X0377875Y0158834D01*
X0377751Y0158595D01*
X0377621Y0158358D01*
X0377485Y0158125D01*
X0377343Y0157895D01*
X0377196Y0157669D01*
X0377043Y0157446D01*
X0376885Y0157227D01*
X0376722Y0157012D01*
X0376553Y0156802D01*
X0376379Y0156595D01*
X0376200Y0156393D01*
X0376017Y0156195D01*
X0375828Y0156002D01*
X0375635Y0155813D01*
X0375437Y0155630D01*
X0375235Y0155451D01*
X0375028Y0155277D01*
X0374818Y0155108D01*
X0374603Y0154945D01*
X0374384Y0154787D01*
X0374161Y0154634D01*
X0373935Y0154487D01*
X0373705Y0154345D01*
X0373472Y0154209D01*
X0373235Y0154079D01*
X0372996Y0153955D01*
X0372753Y0153836D01*
X0372508Y0153724D01*
X0372260Y0153617D01*
X0372009Y0153517D01*
X0371756Y0153423D01*
X0371500Y0153335D01*
X0371243Y0153254D01*
X0370984Y0153178D01*
X0370723Y0153110D01*
X0370460Y0153047D01*
X0370196Y0152991D01*
X0369931Y0152942D01*
X0369664Y0152899D01*
X0369397Y0152863D01*
X0369128Y0152833D01*
X0368859Y0152810D01*
X0368590Y0152793D01*
X0368320Y0152783D01*
X0368050Y0152780D01*
X0367780Y0152783D01*
X0367510Y0152793D01*
X0367241Y0152810D01*
X0366972Y0152833D01*
X0366703Y0152863D01*
X0366436Y0152899D01*
X0366169Y0152942D01*
X0365904Y0152991D01*
X0365640Y0153047D01*
X0365377Y0153110D01*
X0365116Y0153178D01*
X0364857Y0153254D01*
X0364600Y0153335D01*
X0364344Y0153423D01*
X0364091Y0153517D01*
X0363840Y0153617D01*
X0363592Y0153724D01*
X0363347Y0153836D01*
X0363104Y0153955D01*
X0362865Y0154079D01*
X0362628Y0154209D01*
X0362395Y0154345D01*
X0362165Y0154487D01*
X0361939Y0154634D01*
X0361716Y0154787D01*
X0361497Y0154945D01*
X0361282Y0155108D01*
X0361072Y0155277D01*
X0360865Y0155451D01*
X0360663Y0155630D01*
X0360465Y0155813D01*
X0360272Y0156002D01*
X0360083Y0156195D01*
X0359900Y0156393D01*
X0359721Y0156595D01*
X0359547Y0156802D01*
X0359378Y0157012D01*
X0359215Y0157227D01*
X0359057Y0157446D01*
X0358904Y0157669D01*
X0358757Y0157895D01*
X0358615Y0158125D01*
X0358479Y0158358D01*
X0358349Y0158595D01*
X0358225Y0158834D01*
X0358106Y0159077D01*
X0357994Y0159322D01*
X0357887Y0159570D01*
X0357787Y0159821D01*
X0357693Y0160074D01*
X0357605Y0160330D01*
X0357524Y0160587D01*
X0357448Y0160846D01*
X0357380Y0161107D01*
X0357317Y0161370D01*
X0357261Y0161634D01*
X0357212Y0161899D01*
X0357169Y0162166D01*
X0357133Y0162433D01*
X0357103Y0162702D01*
X0357080Y0162971D01*
X0357063Y0163240D01*
X0357053Y0163510D01*
X0357050Y0163780D01*
X0331800Y0051030D02*
X0331300Y0051030D01*
X0331800Y0051030D02*
X0331800Y0049030D01*
X0331300Y0049030D01*
X0322300Y0049030D02*
X0321800Y0049030D01*
X0321800Y0051030D01*
X0322300Y0051030D01*
X0322300Y0031030D02*
X0321800Y0031030D01*
X0321800Y0029030D01*
X0322300Y0029030D01*
X0331300Y0029030D02*
X0331800Y0029030D01*
X0331800Y0031030D01*
X0331300Y0031030D01*
X0201800Y0031030D02*
X0201800Y0029030D01*
X0201300Y0029030D01*
X0201300Y0031030D02*
X0201800Y0031030D01*
X0192300Y0031030D02*
X0191800Y0031030D01*
X0191800Y0029030D01*
X0192300Y0029030D01*
X0192300Y0049030D02*
X0191800Y0049030D01*
X0191800Y0051030D01*
X0192300Y0051030D01*
X0201300Y0051030D02*
X0201800Y0051030D01*
X0201800Y0049030D01*
X0201300Y0049030D01*
X0071800Y0049030D02*
X0071300Y0049030D01*
X0071800Y0049030D02*
X0071800Y0051030D01*
X0071300Y0051030D01*
X0062300Y0051030D02*
X0061800Y0051030D01*
X0061800Y0049030D01*
X0062300Y0049030D01*
X0062300Y0031030D02*
X0061800Y0031030D01*
X0061800Y0029030D01*
X0062300Y0029030D01*
X0071300Y0029030D02*
X0071800Y0029030D01*
X0071800Y0031030D01*
X0071300Y0031030D01*
X0005300Y0215030D02*
X0005303Y0215312D01*
X0005314Y0215594D01*
X0005331Y0215876D01*
X0005355Y0216157D01*
X0005386Y0216438D01*
X0005424Y0216717D01*
X0005469Y0216996D01*
X0005521Y0217274D01*
X0005579Y0217550D01*
X0005645Y0217824D01*
X0005717Y0218097D01*
X0005795Y0218368D01*
X0005880Y0218637D01*
X0005972Y0218904D01*
X0006071Y0219169D01*
X0006175Y0219431D01*
X0006287Y0219690D01*
X0006404Y0219947D01*
X0006528Y0220201D01*
X0006658Y0220451D01*
X0006794Y0220698D01*
X0006936Y0220942D01*
X0007084Y0221182D01*
X0007238Y0221419D01*
X0007398Y0221652D01*
X0007563Y0221881D01*
X0007734Y0222105D01*
X0007910Y0222326D01*
X0008092Y0222541D01*
X0008279Y0222753D01*
X0008471Y0222960D01*
X0008668Y0223162D01*
X0008870Y0223359D01*
X0009077Y0223551D01*
X0009289Y0223738D01*
X0009504Y0223920D01*
X0009725Y0224096D01*
X0009949Y0224267D01*
X0010178Y0224432D01*
X0010411Y0224592D01*
X0010648Y0224746D01*
X0010888Y0224894D01*
X0011132Y0225036D01*
X0011379Y0225172D01*
X0011629Y0225302D01*
X0011883Y0225426D01*
X0012140Y0225543D01*
X0012399Y0225655D01*
X0012661Y0225759D01*
X0012926Y0225858D01*
X0013193Y0225950D01*
X0013462Y0226035D01*
X0013733Y0226113D01*
X0014006Y0226185D01*
X0014280Y0226251D01*
X0014556Y0226309D01*
X0014834Y0226361D01*
X0015113Y0226406D01*
X0015392Y0226444D01*
X0015673Y0226475D01*
X0015954Y0226499D01*
X0016236Y0226516D01*
X0016518Y0226527D01*
X0016800Y0226530D01*
X0017082Y0226527D01*
X0017364Y0226516D01*
X0017646Y0226499D01*
X0017927Y0226475D01*
X0018208Y0226444D01*
X0018487Y0226406D01*
X0018766Y0226361D01*
X0019044Y0226309D01*
X0019320Y0226251D01*
X0019594Y0226185D01*
X0019867Y0226113D01*
X0020138Y0226035D01*
X0020407Y0225950D01*
X0020674Y0225858D01*
X0020939Y0225759D01*
X0021201Y0225655D01*
X0021460Y0225543D01*
X0021717Y0225426D01*
X0021971Y0225302D01*
X0022221Y0225172D01*
X0022468Y0225036D01*
X0022712Y0224894D01*
X0022952Y0224746D01*
X0023189Y0224592D01*
X0023422Y0224432D01*
X0023651Y0224267D01*
X0023875Y0224096D01*
X0024096Y0223920D01*
X0024311Y0223738D01*
X0024523Y0223551D01*
X0024730Y0223359D01*
X0024932Y0223162D01*
X0025129Y0222960D01*
X0025321Y0222753D01*
X0025508Y0222541D01*
X0025690Y0222326D01*
X0025866Y0222105D01*
X0026037Y0221881D01*
X0026202Y0221652D01*
X0026362Y0221419D01*
X0026516Y0221182D01*
X0026664Y0220942D01*
X0026806Y0220698D01*
X0026942Y0220451D01*
X0027072Y0220201D01*
X0027196Y0219947D01*
X0027313Y0219690D01*
X0027425Y0219431D01*
X0027529Y0219169D01*
X0027628Y0218904D01*
X0027720Y0218637D01*
X0027805Y0218368D01*
X0027883Y0218097D01*
X0027955Y0217824D01*
X0028021Y0217550D01*
X0028079Y0217274D01*
X0028131Y0216996D01*
X0028176Y0216717D01*
X0028214Y0216438D01*
X0028245Y0216157D01*
X0028269Y0215876D01*
X0028286Y0215594D01*
X0028297Y0215312D01*
X0028300Y0215030D01*
X0028297Y0214748D01*
X0028286Y0214466D01*
X0028269Y0214184D01*
X0028245Y0213903D01*
X0028214Y0213622D01*
X0028176Y0213343D01*
X0028131Y0213064D01*
X0028079Y0212786D01*
X0028021Y0212510D01*
X0027955Y0212236D01*
X0027883Y0211963D01*
X0027805Y0211692D01*
X0027720Y0211423D01*
X0027628Y0211156D01*
X0027529Y0210891D01*
X0027425Y0210629D01*
X0027313Y0210370D01*
X0027196Y0210113D01*
X0027072Y0209859D01*
X0026942Y0209609D01*
X0026806Y0209362D01*
X0026664Y0209118D01*
X0026516Y0208878D01*
X0026362Y0208641D01*
X0026202Y0208408D01*
X0026037Y0208179D01*
X0025866Y0207955D01*
X0025690Y0207734D01*
X0025508Y0207519D01*
X0025321Y0207307D01*
X0025129Y0207100D01*
X0024932Y0206898D01*
X0024730Y0206701D01*
X0024523Y0206509D01*
X0024311Y0206322D01*
X0024096Y0206140D01*
X0023875Y0205964D01*
X0023651Y0205793D01*
X0023422Y0205628D01*
X0023189Y0205468D01*
X0022952Y0205314D01*
X0022712Y0205166D01*
X0022468Y0205024D01*
X0022221Y0204888D01*
X0021971Y0204758D01*
X0021717Y0204634D01*
X0021460Y0204517D01*
X0021201Y0204405D01*
X0020939Y0204301D01*
X0020674Y0204202D01*
X0020407Y0204110D01*
X0020138Y0204025D01*
X0019867Y0203947D01*
X0019594Y0203875D01*
X0019320Y0203809D01*
X0019044Y0203751D01*
X0018766Y0203699D01*
X0018487Y0203654D01*
X0018208Y0203616D01*
X0017927Y0203585D01*
X0017646Y0203561D01*
X0017364Y0203544D01*
X0017082Y0203533D01*
X0016800Y0203530D01*
X0016518Y0203533D01*
X0016236Y0203544D01*
X0015954Y0203561D01*
X0015673Y0203585D01*
X0015392Y0203616D01*
X0015113Y0203654D01*
X0014834Y0203699D01*
X0014556Y0203751D01*
X0014280Y0203809D01*
X0014006Y0203875D01*
X0013733Y0203947D01*
X0013462Y0204025D01*
X0013193Y0204110D01*
X0012926Y0204202D01*
X0012661Y0204301D01*
X0012399Y0204405D01*
X0012140Y0204517D01*
X0011883Y0204634D01*
X0011629Y0204758D01*
X0011379Y0204888D01*
X0011132Y0205024D01*
X0010888Y0205166D01*
X0010648Y0205314D01*
X0010411Y0205468D01*
X0010178Y0205628D01*
X0009949Y0205793D01*
X0009725Y0205964D01*
X0009504Y0206140D01*
X0009289Y0206322D01*
X0009077Y0206509D01*
X0008870Y0206701D01*
X0008668Y0206898D01*
X0008471Y0207100D01*
X0008279Y0207307D01*
X0008092Y0207519D01*
X0007910Y0207734D01*
X0007734Y0207955D01*
X0007563Y0208179D01*
X0007398Y0208408D01*
X0007238Y0208641D01*
X0007084Y0208878D01*
X0006936Y0209118D01*
X0006794Y0209362D01*
X0006658Y0209609D01*
X0006528Y0209859D01*
X0006404Y0210113D01*
X0006287Y0210370D01*
X0006175Y0210629D01*
X0006071Y0210891D01*
X0005972Y0211156D01*
X0005880Y0211423D01*
X0005795Y0211692D01*
X0005717Y0211963D01*
X0005645Y0212236D01*
X0005579Y0212510D01*
X0005521Y0212786D01*
X0005469Y0213064D01*
X0005424Y0213343D01*
X0005386Y0213622D01*
X0005355Y0213903D01*
X0005331Y0214184D01*
X0005314Y0214466D01*
X0005303Y0214748D01*
X0005300Y0215030D01*
D16*
X0315800Y0223530D02*
X0315800Y0196530D01*
X0387800Y0196530D01*
X0387800Y0223530D01*
X0359800Y0223530D01*
X0343800Y0223530D02*
X0339800Y0223530D01*
X0333800Y0223530D02*
X0315800Y0223530D01*
D17*
X0228394Y0215030D02*
X0228396Y0215183D01*
X0228402Y0215337D01*
X0228412Y0215490D01*
X0228426Y0215642D01*
X0228444Y0215795D01*
X0228466Y0215946D01*
X0228491Y0216097D01*
X0228521Y0216248D01*
X0228555Y0216398D01*
X0228592Y0216546D01*
X0228633Y0216694D01*
X0228678Y0216840D01*
X0228727Y0216986D01*
X0228780Y0217130D01*
X0228836Y0217272D01*
X0228896Y0217413D01*
X0228960Y0217553D01*
X0229027Y0217691D01*
X0229098Y0217827D01*
X0229173Y0217961D01*
X0229250Y0218093D01*
X0229332Y0218223D01*
X0229416Y0218351D01*
X0229504Y0218477D01*
X0229595Y0218600D01*
X0229689Y0218721D01*
X0229787Y0218839D01*
X0229887Y0218955D01*
X0229991Y0219068D01*
X0230097Y0219179D01*
X0230206Y0219287D01*
X0230318Y0219392D01*
X0230432Y0219493D01*
X0230550Y0219592D01*
X0230669Y0219688D01*
X0230791Y0219781D01*
X0230916Y0219870D01*
X0231043Y0219957D01*
X0231172Y0220039D01*
X0231303Y0220119D01*
X0231436Y0220195D01*
X0231571Y0220268D01*
X0231708Y0220337D01*
X0231847Y0220402D01*
X0231987Y0220464D01*
X0232129Y0220522D01*
X0232272Y0220577D01*
X0232417Y0220628D01*
X0232563Y0220675D01*
X0232710Y0220718D01*
X0232858Y0220757D01*
X0233007Y0220793D01*
X0233157Y0220824D01*
X0233308Y0220852D01*
X0233459Y0220876D01*
X0233612Y0220896D01*
X0233764Y0220912D01*
X0233917Y0220924D01*
X0234070Y0220932D01*
X0234223Y0220936D01*
X0234377Y0220936D01*
X0234530Y0220932D01*
X0234683Y0220924D01*
X0234836Y0220912D01*
X0234988Y0220896D01*
X0235141Y0220876D01*
X0235292Y0220852D01*
X0235443Y0220824D01*
X0235593Y0220793D01*
X0235742Y0220757D01*
X0235890Y0220718D01*
X0236037Y0220675D01*
X0236183Y0220628D01*
X0236328Y0220577D01*
X0236471Y0220522D01*
X0236613Y0220464D01*
X0236753Y0220402D01*
X0236892Y0220337D01*
X0237029Y0220268D01*
X0237164Y0220195D01*
X0237297Y0220119D01*
X0237428Y0220039D01*
X0237557Y0219957D01*
X0237684Y0219870D01*
X0237809Y0219781D01*
X0237931Y0219688D01*
X0238050Y0219592D01*
X0238168Y0219493D01*
X0238282Y0219392D01*
X0238394Y0219287D01*
X0238503Y0219179D01*
X0238609Y0219068D01*
X0238713Y0218955D01*
X0238813Y0218839D01*
X0238911Y0218721D01*
X0239005Y0218600D01*
X0239096Y0218477D01*
X0239184Y0218351D01*
X0239268Y0218223D01*
X0239350Y0218093D01*
X0239427Y0217961D01*
X0239502Y0217827D01*
X0239573Y0217691D01*
X0239640Y0217553D01*
X0239704Y0217413D01*
X0239764Y0217272D01*
X0239820Y0217130D01*
X0239873Y0216986D01*
X0239922Y0216840D01*
X0239967Y0216694D01*
X0240008Y0216546D01*
X0240045Y0216398D01*
X0240079Y0216248D01*
X0240109Y0216097D01*
X0240134Y0215946D01*
X0240156Y0215795D01*
X0240174Y0215642D01*
X0240188Y0215490D01*
X0240198Y0215337D01*
X0240204Y0215183D01*
X0240206Y0215030D01*
X0240204Y0214877D01*
X0240198Y0214723D01*
X0240188Y0214570D01*
X0240174Y0214418D01*
X0240156Y0214265D01*
X0240134Y0214114D01*
X0240109Y0213963D01*
X0240079Y0213812D01*
X0240045Y0213662D01*
X0240008Y0213514D01*
X0239967Y0213366D01*
X0239922Y0213220D01*
X0239873Y0213074D01*
X0239820Y0212930D01*
X0239764Y0212788D01*
X0239704Y0212647D01*
X0239640Y0212507D01*
X0239573Y0212369D01*
X0239502Y0212233D01*
X0239427Y0212099D01*
X0239350Y0211967D01*
X0239268Y0211837D01*
X0239184Y0211709D01*
X0239096Y0211583D01*
X0239005Y0211460D01*
X0238911Y0211339D01*
X0238813Y0211221D01*
X0238713Y0211105D01*
X0238609Y0210992D01*
X0238503Y0210881D01*
X0238394Y0210773D01*
X0238282Y0210668D01*
X0238168Y0210567D01*
X0238050Y0210468D01*
X0237931Y0210372D01*
X0237809Y0210279D01*
X0237684Y0210190D01*
X0237557Y0210103D01*
X0237428Y0210021D01*
X0237297Y0209941D01*
X0237164Y0209865D01*
X0237029Y0209792D01*
X0236892Y0209723D01*
X0236753Y0209658D01*
X0236613Y0209596D01*
X0236471Y0209538D01*
X0236328Y0209483D01*
X0236183Y0209432D01*
X0236037Y0209385D01*
X0235890Y0209342D01*
X0235742Y0209303D01*
X0235593Y0209267D01*
X0235443Y0209236D01*
X0235292Y0209208D01*
X0235141Y0209184D01*
X0234988Y0209164D01*
X0234836Y0209148D01*
X0234683Y0209136D01*
X0234530Y0209128D01*
X0234377Y0209124D01*
X0234223Y0209124D01*
X0234070Y0209128D01*
X0233917Y0209136D01*
X0233764Y0209148D01*
X0233612Y0209164D01*
X0233459Y0209184D01*
X0233308Y0209208D01*
X0233157Y0209236D01*
X0233007Y0209267D01*
X0232858Y0209303D01*
X0232710Y0209342D01*
X0232563Y0209385D01*
X0232417Y0209432D01*
X0232272Y0209483D01*
X0232129Y0209538D01*
X0231987Y0209596D01*
X0231847Y0209658D01*
X0231708Y0209723D01*
X0231571Y0209792D01*
X0231436Y0209865D01*
X0231303Y0209941D01*
X0231172Y0210021D01*
X0231043Y0210103D01*
X0230916Y0210190D01*
X0230791Y0210279D01*
X0230669Y0210372D01*
X0230550Y0210468D01*
X0230432Y0210567D01*
X0230318Y0210668D01*
X0230206Y0210773D01*
X0230097Y0210881D01*
X0229991Y0210992D01*
X0229887Y0211105D01*
X0229787Y0211221D01*
X0229689Y0211339D01*
X0229595Y0211460D01*
X0229504Y0211583D01*
X0229416Y0211709D01*
X0229332Y0211837D01*
X0229250Y0211967D01*
X0229173Y0212099D01*
X0229098Y0212233D01*
X0229027Y0212369D01*
X0228960Y0212507D01*
X0228896Y0212647D01*
X0228836Y0212788D01*
X0228780Y0212930D01*
X0228727Y0213074D01*
X0228678Y0213220D01*
X0228633Y0213366D01*
X0228592Y0213514D01*
X0228555Y0213662D01*
X0228521Y0213812D01*
X0228491Y0213963D01*
X0228466Y0214114D01*
X0228444Y0214265D01*
X0228426Y0214418D01*
X0228412Y0214570D01*
X0228402Y0214723D01*
X0228396Y0214877D01*
X0228394Y0215030D01*
X0010894Y0215030D02*
X0010896Y0215183D01*
X0010902Y0215337D01*
X0010912Y0215490D01*
X0010926Y0215642D01*
X0010944Y0215795D01*
X0010966Y0215946D01*
X0010991Y0216097D01*
X0011021Y0216248D01*
X0011055Y0216398D01*
X0011092Y0216546D01*
X0011133Y0216694D01*
X0011178Y0216840D01*
X0011227Y0216986D01*
X0011280Y0217130D01*
X0011336Y0217272D01*
X0011396Y0217413D01*
X0011460Y0217553D01*
X0011527Y0217691D01*
X0011598Y0217827D01*
X0011673Y0217961D01*
X0011750Y0218093D01*
X0011832Y0218223D01*
X0011916Y0218351D01*
X0012004Y0218477D01*
X0012095Y0218600D01*
X0012189Y0218721D01*
X0012287Y0218839D01*
X0012387Y0218955D01*
X0012491Y0219068D01*
X0012597Y0219179D01*
X0012706Y0219287D01*
X0012818Y0219392D01*
X0012932Y0219493D01*
X0013050Y0219592D01*
X0013169Y0219688D01*
X0013291Y0219781D01*
X0013416Y0219870D01*
X0013543Y0219957D01*
X0013672Y0220039D01*
X0013803Y0220119D01*
X0013936Y0220195D01*
X0014071Y0220268D01*
X0014208Y0220337D01*
X0014347Y0220402D01*
X0014487Y0220464D01*
X0014629Y0220522D01*
X0014772Y0220577D01*
X0014917Y0220628D01*
X0015063Y0220675D01*
X0015210Y0220718D01*
X0015358Y0220757D01*
X0015507Y0220793D01*
X0015657Y0220824D01*
X0015808Y0220852D01*
X0015959Y0220876D01*
X0016112Y0220896D01*
X0016264Y0220912D01*
X0016417Y0220924D01*
X0016570Y0220932D01*
X0016723Y0220936D01*
X0016877Y0220936D01*
X0017030Y0220932D01*
X0017183Y0220924D01*
X0017336Y0220912D01*
X0017488Y0220896D01*
X0017641Y0220876D01*
X0017792Y0220852D01*
X0017943Y0220824D01*
X0018093Y0220793D01*
X0018242Y0220757D01*
X0018390Y0220718D01*
X0018537Y0220675D01*
X0018683Y0220628D01*
X0018828Y0220577D01*
X0018971Y0220522D01*
X0019113Y0220464D01*
X0019253Y0220402D01*
X0019392Y0220337D01*
X0019529Y0220268D01*
X0019664Y0220195D01*
X0019797Y0220119D01*
X0019928Y0220039D01*
X0020057Y0219957D01*
X0020184Y0219870D01*
X0020309Y0219781D01*
X0020431Y0219688D01*
X0020550Y0219592D01*
X0020668Y0219493D01*
X0020782Y0219392D01*
X0020894Y0219287D01*
X0021003Y0219179D01*
X0021109Y0219068D01*
X0021213Y0218955D01*
X0021313Y0218839D01*
X0021411Y0218721D01*
X0021505Y0218600D01*
X0021596Y0218477D01*
X0021684Y0218351D01*
X0021768Y0218223D01*
X0021850Y0218093D01*
X0021927Y0217961D01*
X0022002Y0217827D01*
X0022073Y0217691D01*
X0022140Y0217553D01*
X0022204Y0217413D01*
X0022264Y0217272D01*
X0022320Y0217130D01*
X0022373Y0216986D01*
X0022422Y0216840D01*
X0022467Y0216694D01*
X0022508Y0216546D01*
X0022545Y0216398D01*
X0022579Y0216248D01*
X0022609Y0216097D01*
X0022634Y0215946D01*
X0022656Y0215795D01*
X0022674Y0215642D01*
X0022688Y0215490D01*
X0022698Y0215337D01*
X0022704Y0215183D01*
X0022706Y0215030D01*
X0022704Y0214877D01*
X0022698Y0214723D01*
X0022688Y0214570D01*
X0022674Y0214418D01*
X0022656Y0214265D01*
X0022634Y0214114D01*
X0022609Y0213963D01*
X0022579Y0213812D01*
X0022545Y0213662D01*
X0022508Y0213514D01*
X0022467Y0213366D01*
X0022422Y0213220D01*
X0022373Y0213074D01*
X0022320Y0212930D01*
X0022264Y0212788D01*
X0022204Y0212647D01*
X0022140Y0212507D01*
X0022073Y0212369D01*
X0022002Y0212233D01*
X0021927Y0212099D01*
X0021850Y0211967D01*
X0021768Y0211837D01*
X0021684Y0211709D01*
X0021596Y0211583D01*
X0021505Y0211460D01*
X0021411Y0211339D01*
X0021313Y0211221D01*
X0021213Y0211105D01*
X0021109Y0210992D01*
X0021003Y0210881D01*
X0020894Y0210773D01*
X0020782Y0210668D01*
X0020668Y0210567D01*
X0020550Y0210468D01*
X0020431Y0210372D01*
X0020309Y0210279D01*
X0020184Y0210190D01*
X0020057Y0210103D01*
X0019928Y0210021D01*
X0019797Y0209941D01*
X0019664Y0209865D01*
X0019529Y0209792D01*
X0019392Y0209723D01*
X0019253Y0209658D01*
X0019113Y0209596D01*
X0018971Y0209538D01*
X0018828Y0209483D01*
X0018683Y0209432D01*
X0018537Y0209385D01*
X0018390Y0209342D01*
X0018242Y0209303D01*
X0018093Y0209267D01*
X0017943Y0209236D01*
X0017792Y0209208D01*
X0017641Y0209184D01*
X0017488Y0209164D01*
X0017336Y0209148D01*
X0017183Y0209136D01*
X0017030Y0209128D01*
X0016877Y0209124D01*
X0016723Y0209124D01*
X0016570Y0209128D01*
X0016417Y0209136D01*
X0016264Y0209148D01*
X0016112Y0209164D01*
X0015959Y0209184D01*
X0015808Y0209208D01*
X0015657Y0209236D01*
X0015507Y0209267D01*
X0015358Y0209303D01*
X0015210Y0209342D01*
X0015063Y0209385D01*
X0014917Y0209432D01*
X0014772Y0209483D01*
X0014629Y0209538D01*
X0014487Y0209596D01*
X0014347Y0209658D01*
X0014208Y0209723D01*
X0014071Y0209792D01*
X0013936Y0209865D01*
X0013803Y0209941D01*
X0013672Y0210021D01*
X0013543Y0210103D01*
X0013416Y0210190D01*
X0013291Y0210279D01*
X0013169Y0210372D01*
X0013050Y0210468D01*
X0012932Y0210567D01*
X0012818Y0210668D01*
X0012706Y0210773D01*
X0012597Y0210881D01*
X0012491Y0210992D01*
X0012387Y0211105D01*
X0012287Y0211221D01*
X0012189Y0211339D01*
X0012095Y0211460D01*
X0012004Y0211583D01*
X0011916Y0211709D01*
X0011832Y0211837D01*
X0011750Y0211967D01*
X0011673Y0212099D01*
X0011598Y0212233D01*
X0011527Y0212369D01*
X0011460Y0212507D01*
X0011396Y0212647D01*
X0011336Y0212788D01*
X0011280Y0212930D01*
X0011227Y0213074D01*
X0011178Y0213220D01*
X0011133Y0213366D01*
X0011092Y0213514D01*
X0011055Y0213662D01*
X0011021Y0213812D01*
X0010991Y0213963D01*
X0010966Y0214114D01*
X0010944Y0214265D01*
X0010926Y0214418D01*
X0010912Y0214570D01*
X0010902Y0214723D01*
X0010896Y0214877D01*
X0010894Y0215030D01*
M02*
