G75*
%MOIN*%
%OFA0B0*%
%FSLAX25Y25*%
%IPPOS*%
%LPD*%
%AMOC8*
5,1,8,0,0,1.08239X$1,22.5*
%
%ADD10C,0.00000*%
%ADD11OC8,0.08000*%
%ADD12OC8,0.06600*%
%ADD13C,0.06600*%
%ADD14OC8,0.08500*%
%ADD15C,0.05150*%
%ADD16OC8,0.07600*%
%ADD17OC8,0.07000*%
%ADD18OC8,0.13055*%
%ADD19C,0.01600*%
%ADD20R,0.03562X0.03562*%
D10*
X0001800Y0015030D02*
X0001800Y0229990D01*
X0394800Y0229990D01*
X0394800Y0015030D01*
X0001800Y0015030D01*
X0011288Y0215030D02*
X0011290Y0215178D01*
X0011296Y0215326D01*
X0011306Y0215474D01*
X0011320Y0215621D01*
X0011338Y0215768D01*
X0011359Y0215914D01*
X0011385Y0216060D01*
X0011415Y0216205D01*
X0011448Y0216349D01*
X0011486Y0216492D01*
X0011527Y0216634D01*
X0011572Y0216775D01*
X0011620Y0216915D01*
X0011673Y0217054D01*
X0011729Y0217191D01*
X0011789Y0217326D01*
X0011852Y0217460D01*
X0011919Y0217592D01*
X0011990Y0217722D01*
X0012064Y0217850D01*
X0012141Y0217976D01*
X0012222Y0218100D01*
X0012306Y0218222D01*
X0012393Y0218341D01*
X0012484Y0218458D01*
X0012578Y0218573D01*
X0012674Y0218685D01*
X0012774Y0218795D01*
X0012876Y0218901D01*
X0012982Y0219005D01*
X0013090Y0219106D01*
X0013201Y0219204D01*
X0013314Y0219300D01*
X0013430Y0219392D01*
X0013548Y0219481D01*
X0013669Y0219566D01*
X0013792Y0219649D01*
X0013917Y0219728D01*
X0014044Y0219804D01*
X0014173Y0219876D01*
X0014304Y0219945D01*
X0014437Y0220010D01*
X0014572Y0220071D01*
X0014708Y0220129D01*
X0014845Y0220184D01*
X0014984Y0220234D01*
X0015125Y0220281D01*
X0015266Y0220324D01*
X0015409Y0220364D01*
X0015553Y0220399D01*
X0015697Y0220431D01*
X0015843Y0220458D01*
X0015989Y0220482D01*
X0016136Y0220502D01*
X0016283Y0220518D01*
X0016430Y0220530D01*
X0016578Y0220538D01*
X0016726Y0220542D01*
X0016874Y0220542D01*
X0017022Y0220538D01*
X0017170Y0220530D01*
X0017317Y0220518D01*
X0017464Y0220502D01*
X0017611Y0220482D01*
X0017757Y0220458D01*
X0017903Y0220431D01*
X0018047Y0220399D01*
X0018191Y0220364D01*
X0018334Y0220324D01*
X0018475Y0220281D01*
X0018616Y0220234D01*
X0018755Y0220184D01*
X0018892Y0220129D01*
X0019028Y0220071D01*
X0019163Y0220010D01*
X0019296Y0219945D01*
X0019427Y0219876D01*
X0019556Y0219804D01*
X0019683Y0219728D01*
X0019808Y0219649D01*
X0019931Y0219566D01*
X0020052Y0219481D01*
X0020170Y0219392D01*
X0020286Y0219300D01*
X0020399Y0219204D01*
X0020510Y0219106D01*
X0020618Y0219005D01*
X0020724Y0218901D01*
X0020826Y0218795D01*
X0020926Y0218685D01*
X0021022Y0218573D01*
X0021116Y0218458D01*
X0021207Y0218341D01*
X0021294Y0218222D01*
X0021378Y0218100D01*
X0021459Y0217976D01*
X0021536Y0217850D01*
X0021610Y0217722D01*
X0021681Y0217592D01*
X0021748Y0217460D01*
X0021811Y0217326D01*
X0021871Y0217191D01*
X0021927Y0217054D01*
X0021980Y0216915D01*
X0022028Y0216775D01*
X0022073Y0216634D01*
X0022114Y0216492D01*
X0022152Y0216349D01*
X0022185Y0216205D01*
X0022215Y0216060D01*
X0022241Y0215914D01*
X0022262Y0215768D01*
X0022280Y0215621D01*
X0022294Y0215474D01*
X0022304Y0215326D01*
X0022310Y0215178D01*
X0022312Y0215030D01*
X0022310Y0214882D01*
X0022304Y0214734D01*
X0022294Y0214586D01*
X0022280Y0214439D01*
X0022262Y0214292D01*
X0022241Y0214146D01*
X0022215Y0214000D01*
X0022185Y0213855D01*
X0022152Y0213711D01*
X0022114Y0213568D01*
X0022073Y0213426D01*
X0022028Y0213285D01*
X0021980Y0213145D01*
X0021927Y0213006D01*
X0021871Y0212869D01*
X0021811Y0212734D01*
X0021748Y0212600D01*
X0021681Y0212468D01*
X0021610Y0212338D01*
X0021536Y0212210D01*
X0021459Y0212084D01*
X0021378Y0211960D01*
X0021294Y0211838D01*
X0021207Y0211719D01*
X0021116Y0211602D01*
X0021022Y0211487D01*
X0020926Y0211375D01*
X0020826Y0211265D01*
X0020724Y0211159D01*
X0020618Y0211055D01*
X0020510Y0210954D01*
X0020399Y0210856D01*
X0020286Y0210760D01*
X0020170Y0210668D01*
X0020052Y0210579D01*
X0019931Y0210494D01*
X0019808Y0210411D01*
X0019683Y0210332D01*
X0019556Y0210256D01*
X0019427Y0210184D01*
X0019296Y0210115D01*
X0019163Y0210050D01*
X0019028Y0209989D01*
X0018892Y0209931D01*
X0018755Y0209876D01*
X0018616Y0209826D01*
X0018475Y0209779D01*
X0018334Y0209736D01*
X0018191Y0209696D01*
X0018047Y0209661D01*
X0017903Y0209629D01*
X0017757Y0209602D01*
X0017611Y0209578D01*
X0017464Y0209558D01*
X0017317Y0209542D01*
X0017170Y0209530D01*
X0017022Y0209522D01*
X0016874Y0209518D01*
X0016726Y0209518D01*
X0016578Y0209522D01*
X0016430Y0209530D01*
X0016283Y0209542D01*
X0016136Y0209558D01*
X0015989Y0209578D01*
X0015843Y0209602D01*
X0015697Y0209629D01*
X0015553Y0209661D01*
X0015409Y0209696D01*
X0015266Y0209736D01*
X0015125Y0209779D01*
X0014984Y0209826D01*
X0014845Y0209876D01*
X0014708Y0209931D01*
X0014572Y0209989D01*
X0014437Y0210050D01*
X0014304Y0210115D01*
X0014173Y0210184D01*
X0014044Y0210256D01*
X0013917Y0210332D01*
X0013792Y0210411D01*
X0013669Y0210494D01*
X0013548Y0210579D01*
X0013430Y0210668D01*
X0013314Y0210760D01*
X0013201Y0210856D01*
X0013090Y0210954D01*
X0012982Y0211055D01*
X0012876Y0211159D01*
X0012774Y0211265D01*
X0012674Y0211375D01*
X0012578Y0211487D01*
X0012484Y0211602D01*
X0012393Y0211719D01*
X0012306Y0211838D01*
X0012222Y0211960D01*
X0012141Y0212084D01*
X0012064Y0212210D01*
X0011990Y0212338D01*
X0011919Y0212468D01*
X0011852Y0212600D01*
X0011789Y0212734D01*
X0011729Y0212869D01*
X0011673Y0213006D01*
X0011620Y0213145D01*
X0011572Y0213285D01*
X0011527Y0213426D01*
X0011486Y0213568D01*
X0011448Y0213711D01*
X0011415Y0213855D01*
X0011385Y0214000D01*
X0011359Y0214146D01*
X0011338Y0214292D01*
X0011320Y0214439D01*
X0011306Y0214586D01*
X0011296Y0214734D01*
X0011290Y0214882D01*
X0011288Y0215030D01*
X0228788Y0215030D02*
X0228790Y0215178D01*
X0228796Y0215326D01*
X0228806Y0215474D01*
X0228820Y0215621D01*
X0228838Y0215768D01*
X0228859Y0215914D01*
X0228885Y0216060D01*
X0228915Y0216205D01*
X0228948Y0216349D01*
X0228986Y0216492D01*
X0229027Y0216634D01*
X0229072Y0216775D01*
X0229120Y0216915D01*
X0229173Y0217054D01*
X0229229Y0217191D01*
X0229289Y0217326D01*
X0229352Y0217460D01*
X0229419Y0217592D01*
X0229490Y0217722D01*
X0229564Y0217850D01*
X0229641Y0217976D01*
X0229722Y0218100D01*
X0229806Y0218222D01*
X0229893Y0218341D01*
X0229984Y0218458D01*
X0230078Y0218573D01*
X0230174Y0218685D01*
X0230274Y0218795D01*
X0230376Y0218901D01*
X0230482Y0219005D01*
X0230590Y0219106D01*
X0230701Y0219204D01*
X0230814Y0219300D01*
X0230930Y0219392D01*
X0231048Y0219481D01*
X0231169Y0219566D01*
X0231292Y0219649D01*
X0231417Y0219728D01*
X0231544Y0219804D01*
X0231673Y0219876D01*
X0231804Y0219945D01*
X0231937Y0220010D01*
X0232072Y0220071D01*
X0232208Y0220129D01*
X0232345Y0220184D01*
X0232484Y0220234D01*
X0232625Y0220281D01*
X0232766Y0220324D01*
X0232909Y0220364D01*
X0233053Y0220399D01*
X0233197Y0220431D01*
X0233343Y0220458D01*
X0233489Y0220482D01*
X0233636Y0220502D01*
X0233783Y0220518D01*
X0233930Y0220530D01*
X0234078Y0220538D01*
X0234226Y0220542D01*
X0234374Y0220542D01*
X0234522Y0220538D01*
X0234670Y0220530D01*
X0234817Y0220518D01*
X0234964Y0220502D01*
X0235111Y0220482D01*
X0235257Y0220458D01*
X0235403Y0220431D01*
X0235547Y0220399D01*
X0235691Y0220364D01*
X0235834Y0220324D01*
X0235975Y0220281D01*
X0236116Y0220234D01*
X0236255Y0220184D01*
X0236392Y0220129D01*
X0236528Y0220071D01*
X0236663Y0220010D01*
X0236796Y0219945D01*
X0236927Y0219876D01*
X0237056Y0219804D01*
X0237183Y0219728D01*
X0237308Y0219649D01*
X0237431Y0219566D01*
X0237552Y0219481D01*
X0237670Y0219392D01*
X0237786Y0219300D01*
X0237899Y0219204D01*
X0238010Y0219106D01*
X0238118Y0219005D01*
X0238224Y0218901D01*
X0238326Y0218795D01*
X0238426Y0218685D01*
X0238522Y0218573D01*
X0238616Y0218458D01*
X0238707Y0218341D01*
X0238794Y0218222D01*
X0238878Y0218100D01*
X0238959Y0217976D01*
X0239036Y0217850D01*
X0239110Y0217722D01*
X0239181Y0217592D01*
X0239248Y0217460D01*
X0239311Y0217326D01*
X0239371Y0217191D01*
X0239427Y0217054D01*
X0239480Y0216915D01*
X0239528Y0216775D01*
X0239573Y0216634D01*
X0239614Y0216492D01*
X0239652Y0216349D01*
X0239685Y0216205D01*
X0239715Y0216060D01*
X0239741Y0215914D01*
X0239762Y0215768D01*
X0239780Y0215621D01*
X0239794Y0215474D01*
X0239804Y0215326D01*
X0239810Y0215178D01*
X0239812Y0215030D01*
X0239810Y0214882D01*
X0239804Y0214734D01*
X0239794Y0214586D01*
X0239780Y0214439D01*
X0239762Y0214292D01*
X0239741Y0214146D01*
X0239715Y0214000D01*
X0239685Y0213855D01*
X0239652Y0213711D01*
X0239614Y0213568D01*
X0239573Y0213426D01*
X0239528Y0213285D01*
X0239480Y0213145D01*
X0239427Y0213006D01*
X0239371Y0212869D01*
X0239311Y0212734D01*
X0239248Y0212600D01*
X0239181Y0212468D01*
X0239110Y0212338D01*
X0239036Y0212210D01*
X0238959Y0212084D01*
X0238878Y0211960D01*
X0238794Y0211838D01*
X0238707Y0211719D01*
X0238616Y0211602D01*
X0238522Y0211487D01*
X0238426Y0211375D01*
X0238326Y0211265D01*
X0238224Y0211159D01*
X0238118Y0211055D01*
X0238010Y0210954D01*
X0237899Y0210856D01*
X0237786Y0210760D01*
X0237670Y0210668D01*
X0237552Y0210579D01*
X0237431Y0210494D01*
X0237308Y0210411D01*
X0237183Y0210332D01*
X0237056Y0210256D01*
X0236927Y0210184D01*
X0236796Y0210115D01*
X0236663Y0210050D01*
X0236528Y0209989D01*
X0236392Y0209931D01*
X0236255Y0209876D01*
X0236116Y0209826D01*
X0235975Y0209779D01*
X0235834Y0209736D01*
X0235691Y0209696D01*
X0235547Y0209661D01*
X0235403Y0209629D01*
X0235257Y0209602D01*
X0235111Y0209578D01*
X0234964Y0209558D01*
X0234817Y0209542D01*
X0234670Y0209530D01*
X0234522Y0209522D01*
X0234374Y0209518D01*
X0234226Y0209518D01*
X0234078Y0209522D01*
X0233930Y0209530D01*
X0233783Y0209542D01*
X0233636Y0209558D01*
X0233489Y0209578D01*
X0233343Y0209602D01*
X0233197Y0209629D01*
X0233053Y0209661D01*
X0232909Y0209696D01*
X0232766Y0209736D01*
X0232625Y0209779D01*
X0232484Y0209826D01*
X0232345Y0209876D01*
X0232208Y0209931D01*
X0232072Y0209989D01*
X0231937Y0210050D01*
X0231804Y0210115D01*
X0231673Y0210184D01*
X0231544Y0210256D01*
X0231417Y0210332D01*
X0231292Y0210411D01*
X0231169Y0210494D01*
X0231048Y0210579D01*
X0230930Y0210668D01*
X0230814Y0210760D01*
X0230701Y0210856D01*
X0230590Y0210954D01*
X0230482Y0211055D01*
X0230376Y0211159D01*
X0230274Y0211265D01*
X0230174Y0211375D01*
X0230078Y0211487D01*
X0229984Y0211602D01*
X0229893Y0211719D01*
X0229806Y0211838D01*
X0229722Y0211960D01*
X0229641Y0212084D01*
X0229564Y0212210D01*
X0229490Y0212338D01*
X0229419Y0212468D01*
X0229352Y0212600D01*
X0229289Y0212734D01*
X0229229Y0212869D01*
X0229173Y0213006D01*
X0229120Y0213145D01*
X0229072Y0213285D01*
X0229027Y0213426D01*
X0228986Y0213568D01*
X0228948Y0213711D01*
X0228915Y0213855D01*
X0228885Y0214000D01*
X0228859Y0214146D01*
X0228838Y0214292D01*
X0228820Y0214439D01*
X0228806Y0214586D01*
X0228796Y0214734D01*
X0228790Y0214882D01*
X0228788Y0215030D01*
D11*
X0189300Y0215030D03*
X0189300Y0195030D03*
X0205550Y0163780D03*
X0205550Y0143780D03*
X0196800Y0125030D03*
X0176800Y0125030D03*
X0086800Y0125030D03*
X0066800Y0125030D03*
X0088050Y0195030D03*
X0101800Y0195030D03*
X0101800Y0215030D03*
X0088050Y0215030D03*
X0276800Y0125030D03*
X0296800Y0125030D03*
X0311800Y0125030D03*
X0331800Y0125030D03*
X0311800Y0145030D03*
X0311800Y0165030D03*
D12*
X0350550Y0163780D03*
X0373050Y0163780D03*
D13*
X0363050Y0163780D03*
X0340550Y0163780D03*
D14*
X0326800Y0050030D03*
X0326800Y0030030D03*
X0196800Y0030030D03*
X0196800Y0050030D03*
X0066800Y0050030D03*
X0066800Y0030030D03*
D15*
X0066800Y0137455D02*
X0066800Y0142604D01*
X0056800Y0142604D02*
X0056800Y0137455D01*
X0046800Y0137455D02*
X0046800Y0142604D01*
X0036800Y0142604D02*
X0036800Y0137455D01*
X0026800Y0137455D02*
X0026800Y0142604D01*
X0026800Y0167455D02*
X0026800Y0172604D01*
X0036800Y0172604D02*
X0036800Y0167455D01*
X0046800Y0167455D02*
X0046800Y0172604D01*
X0056800Y0172604D02*
X0056800Y0167455D01*
X0066800Y0167455D02*
X0066800Y0172604D01*
X0076800Y0172604D02*
X0076800Y0167455D01*
X0086800Y0167455D02*
X0086800Y0172604D01*
X0131800Y0172604D02*
X0131800Y0167455D01*
X0141800Y0167455D02*
X0141800Y0172604D01*
X0151800Y0172604D02*
X0151800Y0167455D01*
X0161800Y0167455D02*
X0161800Y0172604D01*
X0171800Y0172604D02*
X0171800Y0167455D01*
X0181800Y0167455D02*
X0181800Y0172604D01*
X0191800Y0172604D02*
X0191800Y0167455D01*
X0191800Y0142604D02*
X0191800Y0137455D01*
X0181800Y0137455D02*
X0181800Y0142604D01*
X0171800Y0142604D02*
X0171800Y0137455D01*
X0161800Y0137455D02*
X0161800Y0142604D01*
X0151800Y0142604D02*
X0151800Y0137455D01*
X0141800Y0137455D02*
X0141800Y0142604D01*
X0131800Y0142604D02*
X0131800Y0137455D01*
X0086800Y0137455D02*
X0086800Y0142604D01*
X0076800Y0142604D02*
X0076800Y0137455D01*
X0236800Y0137455D02*
X0236800Y0142604D01*
X0246800Y0142604D02*
X0246800Y0137455D01*
X0256800Y0137455D02*
X0256800Y0142604D01*
X0266800Y0142604D02*
X0266800Y0137455D01*
X0276800Y0137455D02*
X0276800Y0142604D01*
X0286800Y0142604D02*
X0286800Y0137455D01*
X0296800Y0137455D02*
X0296800Y0142604D01*
X0296800Y0167455D02*
X0296800Y0172604D01*
X0286800Y0172604D02*
X0286800Y0167455D01*
X0276800Y0167455D02*
X0276800Y0172604D01*
X0266800Y0172604D02*
X0266800Y0167455D01*
X0256800Y0167455D02*
X0256800Y0172604D01*
X0246800Y0172604D02*
X0246800Y0167455D01*
X0236800Y0167455D02*
X0236800Y0172604D01*
D16*
X0221800Y0175030D03*
X0210550Y0187530D03*
X0173050Y0201280D03*
X0173050Y0215030D03*
X0133050Y0215030D03*
X0133050Y0201280D03*
X0116800Y0177530D03*
X0103050Y0177530D03*
X0069300Y0197530D03*
X0064300Y0183780D03*
X0029300Y0197530D03*
X0024300Y0183780D03*
X0011800Y0185030D03*
X0011800Y0145030D03*
X0011800Y0125030D03*
X0011800Y0111280D03*
X0051800Y0111280D03*
X0061800Y0110030D03*
X0061800Y0096280D03*
X0101800Y0096280D03*
X0115550Y0096280D03*
X0115550Y0110030D03*
X0101800Y0110030D03*
X0101800Y0125030D03*
X0103050Y0137530D03*
X0116800Y0137530D03*
X0141800Y0125030D03*
X0155550Y0110030D03*
X0166800Y0110030D03*
X0166800Y0096280D03*
X0155550Y0096280D03*
X0206800Y0096280D03*
X0216800Y0092530D03*
X0216800Y0106280D03*
X0206800Y0110030D03*
X0216800Y0120030D03*
X0221800Y0135030D03*
X0256800Y0120030D03*
X0256800Y0106280D03*
X0266800Y0105030D03*
X0266800Y0091280D03*
X0256800Y0092530D03*
X0306800Y0091280D03*
X0306800Y0105030D03*
X0316800Y0105030D03*
X0356800Y0105030D03*
X0328050Y0138780D03*
X0385550Y0138780D03*
X0385550Y0178780D03*
X0328050Y0178780D03*
X0300550Y0187530D03*
X0300550Y0201280D03*
X0300550Y0215030D03*
X0260550Y0215030D03*
X0260550Y0201280D03*
X0260550Y0187530D03*
X0250550Y0187530D03*
X0051800Y0125030D03*
D17*
X0331800Y0205030D03*
X0341800Y0205030D03*
X0351800Y0205030D03*
X0361800Y0205030D03*
X0371800Y0205030D03*
X0371800Y0215030D03*
X0361800Y0215030D03*
X0351800Y0215030D03*
X0341800Y0215030D03*
X0331800Y0215030D03*
D18*
X0361013Y0076841D03*
X0382272Y0068179D03*
X0317272Y0068179D03*
X0296013Y0076841D03*
X0252272Y0068179D03*
X0231013Y0076841D03*
X0187272Y0068179D03*
X0166013Y0076841D03*
X0122272Y0068179D03*
X0101013Y0076841D03*
X0057272Y0068179D03*
X0036013Y0076841D03*
X0036800Y0024872D03*
X0101800Y0024872D03*
X0166800Y0024872D03*
X0231800Y0024872D03*
X0296800Y0024872D03*
X0361800Y0024872D03*
D19*
X0362600Y0024621D02*
X0392400Y0024621D01*
X0392400Y0026219D02*
X0370128Y0026219D01*
X0370128Y0025672D02*
X0370128Y0028321D01*
X0365249Y0033200D01*
X0362600Y0033200D01*
X0362600Y0025672D01*
X0370128Y0025672D01*
X0370128Y0024072D02*
X0362600Y0024072D01*
X0362600Y0025672D01*
X0361000Y0025672D01*
X0361000Y0024072D01*
X0353472Y0024072D01*
X0353472Y0021423D01*
X0357466Y0017430D01*
X0301134Y0017430D01*
X0305128Y0021423D01*
X0305128Y0024072D01*
X0297600Y0024072D01*
X0297600Y0025672D01*
X0305128Y0025672D01*
X0305128Y0028321D01*
X0300249Y0033200D01*
X0297600Y0033200D01*
X0297600Y0025672D01*
X0296000Y0025672D01*
X0296000Y0024072D01*
X0288472Y0024072D01*
X0288472Y0021423D01*
X0292466Y0017430D01*
X0236134Y0017430D01*
X0240128Y0021423D01*
X0240128Y0024072D01*
X0232600Y0024072D01*
X0232600Y0025672D01*
X0240128Y0025672D01*
X0240128Y0028321D01*
X0235249Y0033200D01*
X0232600Y0033200D01*
X0232600Y0025672D01*
X0231000Y0025672D01*
X0231000Y0024072D01*
X0223472Y0024072D01*
X0223472Y0021423D01*
X0227466Y0017430D01*
X0171134Y0017430D01*
X0175128Y0021423D01*
X0175128Y0024072D01*
X0167600Y0024072D01*
X0167600Y0025672D01*
X0175128Y0025672D01*
X0175128Y0028321D01*
X0170249Y0033200D01*
X0167600Y0033200D01*
X0167600Y0025672D01*
X0166000Y0025672D01*
X0166000Y0024072D01*
X0158472Y0024072D01*
X0158472Y0021423D01*
X0162466Y0017430D01*
X0106134Y0017430D01*
X0110128Y0021423D01*
X0110128Y0024072D01*
X0102600Y0024072D01*
X0102600Y0025672D01*
X0110128Y0025672D01*
X0110128Y0028321D01*
X0105249Y0033200D01*
X0102600Y0033200D01*
X0102600Y0025672D01*
X0101000Y0025672D01*
X0101000Y0024072D01*
X0093472Y0024072D01*
X0093472Y0021423D01*
X0097466Y0017430D01*
X0041134Y0017430D01*
X0045128Y0021423D01*
X0045128Y0024072D01*
X0037600Y0024072D01*
X0037600Y0025672D01*
X0045128Y0025672D01*
X0045128Y0028321D01*
X0040249Y0033200D01*
X0037600Y0033200D01*
X0037600Y0025672D01*
X0036000Y0025672D01*
X0036000Y0024072D01*
X0028472Y0024072D01*
X0028472Y0021423D01*
X0032466Y0017430D01*
X0004200Y0017430D01*
X0004200Y0204722D01*
X0004778Y0203875D01*
X0004778Y0203875D01*
X0008600Y0200827D01*
X0013151Y0199041D01*
X0018026Y0198675D01*
X0022792Y0199763D01*
X0023100Y0199941D01*
X0023100Y0194961D01*
X0026732Y0191330D01*
X0031868Y0191330D01*
X0035500Y0194961D01*
X0035500Y0200098D01*
X0031868Y0203730D01*
X0028437Y0203730D01*
X0030350Y0205791D01*
X0032471Y0210196D01*
X0033200Y0215030D01*
X0032471Y0219863D01*
X0032471Y0219864D01*
X0030350Y0224268D01*
X0027268Y0227590D01*
X0224041Y0227590D01*
X0222278Y0226184D01*
X0219524Y0222145D01*
X0218083Y0217474D01*
X0218083Y0212585D01*
X0219524Y0207914D01*
X0219524Y0207914D01*
X0222278Y0203875D01*
X0222278Y0203875D01*
X0226100Y0200827D01*
X0230651Y0199041D01*
X0235526Y0198675D01*
X0240292Y0199763D01*
X0244525Y0202207D01*
X0244525Y0202208D01*
X0247850Y0205791D01*
X0249971Y0210196D01*
X0250700Y0215030D01*
X0249971Y0219863D01*
X0249971Y0219864D01*
X0247850Y0224268D01*
X0244768Y0227590D01*
X0392400Y0227590D01*
X0392400Y0017430D01*
X0366134Y0017430D01*
X0370128Y0021423D01*
X0370128Y0024072D01*
X0370128Y0023022D02*
X0392400Y0023022D01*
X0392400Y0021424D02*
X0370128Y0021424D01*
X0368530Y0019825D02*
X0392400Y0019825D01*
X0392400Y0018227D02*
X0366931Y0018227D01*
X0361000Y0024621D02*
X0330796Y0024621D01*
X0329555Y0023380D02*
X0333450Y0027275D01*
X0333450Y0032784D01*
X0329555Y0036680D01*
X0324045Y0036680D01*
X0320150Y0032784D01*
X0320150Y0027275D01*
X0324045Y0023380D01*
X0329555Y0023380D01*
X0332394Y0026219D02*
X0353472Y0026219D01*
X0353472Y0025672D02*
X0361000Y0025672D01*
X0361000Y0033200D01*
X0358351Y0033200D01*
X0353472Y0028321D01*
X0353472Y0025672D01*
X0353472Y0027818D02*
X0333450Y0027818D01*
X0333450Y0029416D02*
X0354567Y0029416D01*
X0356166Y0031015D02*
X0333450Y0031015D01*
X0333450Y0032613D02*
X0357764Y0032613D01*
X0361000Y0032613D02*
X0362600Y0032613D01*
X0362600Y0031015D02*
X0361000Y0031015D01*
X0361000Y0029416D02*
X0362600Y0029416D01*
X0362600Y0027818D02*
X0361000Y0027818D01*
X0361000Y0026219D02*
X0362600Y0026219D01*
X0367434Y0031015D02*
X0392400Y0031015D01*
X0392400Y0032613D02*
X0365836Y0032613D01*
X0369033Y0029416D02*
X0392400Y0029416D01*
X0392400Y0027818D02*
X0370128Y0027818D01*
X0355070Y0019825D02*
X0303530Y0019825D01*
X0305128Y0021424D02*
X0353472Y0021424D01*
X0353472Y0023022D02*
X0305128Y0023022D01*
X0305128Y0026219D02*
X0321206Y0026219D01*
X0320150Y0027818D02*
X0305128Y0027818D01*
X0304033Y0029416D02*
X0320150Y0029416D01*
X0320150Y0031015D02*
X0302434Y0031015D01*
X0300836Y0032613D02*
X0320150Y0032613D01*
X0321578Y0034212D02*
X0205508Y0034212D01*
X0207106Y0035810D02*
X0323176Y0035810D01*
X0330424Y0035810D02*
X0392400Y0035810D01*
X0392400Y0034212D02*
X0332022Y0034212D01*
X0329306Y0043980D02*
X0327000Y0043980D01*
X0327000Y0049829D01*
X0326600Y0049829D01*
X0326600Y0043980D01*
X0324294Y0043980D01*
X0320750Y0047524D01*
X0320750Y0049830D01*
X0326600Y0049830D01*
X0326600Y0050230D01*
X0326600Y0056080D01*
X0324294Y0056080D01*
X0320750Y0052536D01*
X0320750Y0050230D01*
X0326600Y0050230D01*
X0327000Y0050230D01*
X0327000Y0056080D01*
X0329306Y0056080D01*
X0332850Y0052536D01*
X0332850Y0050230D01*
X0327000Y0050230D01*
X0327000Y0049830D01*
X0332850Y0049830D01*
X0332850Y0047524D01*
X0329306Y0043980D01*
X0330728Y0045401D02*
X0392400Y0045401D01*
X0392400Y0043803D02*
X0211042Y0043803D01*
X0211441Y0045401D02*
X0322872Y0045401D01*
X0321274Y0047000D02*
X0211841Y0047000D01*
X0212241Y0048598D02*
X0320750Y0048598D01*
X0326600Y0048598D02*
X0327000Y0048598D01*
X0327000Y0047000D02*
X0326600Y0047000D01*
X0326600Y0045401D02*
X0327000Y0045401D01*
X0327000Y0050197D02*
X0392400Y0050197D01*
X0392400Y0051795D02*
X0332850Y0051795D01*
X0331992Y0053394D02*
X0392400Y0053394D01*
X0392400Y0054992D02*
X0330393Y0054992D01*
X0327000Y0054992D02*
X0326600Y0054992D01*
X0326600Y0053394D02*
X0327000Y0053394D01*
X0327000Y0051795D02*
X0326600Y0051795D01*
X0326600Y0050197D02*
X0212640Y0050197D01*
X0213040Y0051795D02*
X0320750Y0051795D01*
X0321608Y0053394D02*
X0213440Y0053394D01*
X0213839Y0054992D02*
X0323207Y0054992D01*
X0320722Y0059852D02*
X0318072Y0059852D01*
X0318072Y0067379D01*
X0316472Y0067379D01*
X0308945Y0067379D01*
X0308945Y0064730D01*
X0313823Y0059852D01*
X0316472Y0059852D01*
X0316472Y0067379D01*
X0316472Y0068979D01*
X0308945Y0068979D01*
X0308945Y0071629D01*
X0313823Y0076507D01*
X0316472Y0076507D01*
X0316472Y0068979D01*
X0318072Y0068979D01*
X0318072Y0076507D01*
X0320722Y0076507D01*
X0325600Y0071629D01*
X0325600Y0068979D01*
X0318072Y0068979D01*
X0318072Y0067379D01*
X0325600Y0067379D01*
X0325600Y0064730D01*
X0320722Y0059852D01*
X0322257Y0061386D02*
X0377288Y0061386D01*
X0378823Y0059852D02*
X0373945Y0064730D01*
X0373945Y0067379D01*
X0381472Y0067379D01*
X0381472Y0068979D01*
X0373945Y0068979D01*
X0373945Y0071629D01*
X0378823Y0076507D01*
X0381472Y0076507D01*
X0381472Y0068979D01*
X0383072Y0068979D01*
X0383072Y0076507D01*
X0385722Y0076507D01*
X0390600Y0071629D01*
X0390600Y0068979D01*
X0383072Y0068979D01*
X0383072Y0067379D01*
X0383072Y0059852D01*
X0385722Y0059852D01*
X0390600Y0064730D01*
X0390600Y0067379D01*
X0383072Y0067379D01*
X0381472Y0067379D01*
X0381472Y0059852D01*
X0378823Y0059852D01*
X0381472Y0061386D02*
X0383072Y0061386D01*
X0383072Y0062985D02*
X0381472Y0062985D01*
X0381472Y0064583D02*
X0383072Y0064583D01*
X0383072Y0066182D02*
X0381472Y0066182D01*
X0381472Y0067780D02*
X0318072Y0067780D01*
X0318072Y0066182D02*
X0316472Y0066182D01*
X0316472Y0067780D02*
X0253072Y0067780D01*
X0253072Y0067379D02*
X0253072Y0068979D01*
X0251472Y0068979D01*
X0251472Y0067379D01*
X0243945Y0067379D01*
X0243945Y0064730D01*
X0248823Y0059852D01*
X0251472Y0059852D01*
X0251472Y0067379D01*
X0253072Y0067379D01*
X0253072Y0059852D01*
X0255722Y0059852D01*
X0260600Y0064730D01*
X0260600Y0067379D01*
X0253072Y0067379D01*
X0253072Y0066182D02*
X0251472Y0066182D01*
X0251472Y0067780D02*
X0217036Y0067780D01*
X0216637Y0066182D02*
X0243945Y0066182D01*
X0244091Y0064583D02*
X0216237Y0064583D01*
X0215837Y0062985D02*
X0245690Y0062985D01*
X0247288Y0061386D02*
X0215438Y0061386D01*
X0215038Y0059788D02*
X0392400Y0059788D01*
X0392400Y0061386D02*
X0387257Y0061386D01*
X0388855Y0062985D02*
X0392400Y0062985D01*
X0392400Y0064583D02*
X0390454Y0064583D01*
X0390600Y0066182D02*
X0392400Y0066182D01*
X0392400Y0067780D02*
X0383072Y0067780D01*
X0383072Y0069379D02*
X0381472Y0069379D01*
X0381472Y0070977D02*
X0383072Y0070977D01*
X0383072Y0072576D02*
X0381472Y0072576D01*
X0381472Y0074174D02*
X0383072Y0074174D01*
X0383072Y0075773D02*
X0381472Y0075773D01*
X0378089Y0075773D02*
X0369940Y0075773D01*
X0369940Y0077371D02*
X0392400Y0077371D01*
X0392400Y0075773D02*
X0386456Y0075773D01*
X0388054Y0074174D02*
X0392400Y0074174D01*
X0392400Y0072576D02*
X0389653Y0072576D01*
X0390600Y0070977D02*
X0392400Y0070977D01*
X0392400Y0069379D02*
X0390600Y0069379D01*
X0376491Y0074174D02*
X0369940Y0074174D01*
X0369940Y0073143D02*
X0364711Y0067913D01*
X0357315Y0067913D01*
X0352085Y0073143D01*
X0352085Y0080538D01*
X0357315Y0085768D01*
X0359579Y0085768D01*
X0363493Y0104832D01*
X0363000Y0106310D01*
X0363000Y0102461D01*
X0359368Y0098830D01*
X0354232Y0098830D01*
X0350600Y0102461D01*
X0350600Y0107598D01*
X0351733Y0108730D01*
X0339266Y0137818D01*
X0334250Y0140828D01*
X0334250Y0136211D01*
X0330618Y0132580D01*
X0328654Y0132580D01*
X0326410Y0127842D01*
X0329398Y0130830D01*
X0331800Y0130830D01*
X0331800Y0125030D01*
X0331800Y0125030D01*
X0331800Y0130830D01*
X0334202Y0130830D01*
X0337600Y0127432D01*
X0337600Y0125030D01*
X0331800Y0125030D01*
X0331800Y0125029D01*
X0331800Y0119230D01*
X0334202Y0119230D01*
X0337600Y0122627D01*
X0337600Y0125029D01*
X0331800Y0125029D01*
X0331800Y0125029D01*
X0331800Y0119230D01*
X0329398Y0119230D01*
X0326000Y0122627D01*
X0326000Y0125029D01*
X0331800Y0125029D01*
X0331800Y0125030D01*
X0326000Y0125030D01*
X0326000Y0126977D01*
X0319726Y0113732D01*
X0319513Y0113217D01*
X0319455Y0113159D01*
X0319419Y0113084D01*
X0319007Y0112711D01*
X0318613Y0112317D01*
X0318537Y0112285D01*
X0318476Y0112230D01*
X0317951Y0112043D01*
X0317437Y0111830D01*
X0317354Y0111830D01*
X0317277Y0111802D01*
X0316721Y0111830D01*
X0313778Y0111830D01*
X0312723Y0109721D01*
X0314232Y0111230D01*
X0319368Y0111230D01*
X0323000Y0107598D01*
X0323000Y0102461D01*
X0319368Y0098830D01*
X0314232Y0098830D01*
X0311800Y0101261D01*
X0309368Y0098830D01*
X0304232Y0098830D01*
X0300600Y0102461D01*
X0300600Y0107598D01*
X0304232Y0111230D01*
X0306322Y0111230D01*
X0308887Y0116359D01*
X0309087Y0116842D01*
X0309170Y0116925D01*
X0309222Y0117030D01*
X0309618Y0117373D01*
X0309987Y0117742D01*
X0310096Y0117787D01*
X0310184Y0117864D01*
X0310680Y0118029D01*
X0311163Y0118230D01*
X0311281Y0118230D01*
X0311392Y0118267D01*
X0311914Y0118230D01*
X0314775Y0118230D01*
X0315427Y0119605D01*
X0314451Y0118630D01*
X0309149Y0118630D01*
X0305400Y0122379D01*
X0305400Y0127680D01*
X0309149Y0131430D01*
X0314451Y0131430D01*
X0318200Y0127680D01*
X0318200Y0125460D01*
X0322829Y0135232D01*
X0321850Y0136211D01*
X0321850Y0141348D01*
X0325482Y0144980D01*
X0327330Y0144980D01*
X0315914Y0151830D01*
X0302319Y0151830D01*
X0302208Y0151792D01*
X0301686Y0151830D01*
X0301163Y0151830D01*
X0301055Y0151874D01*
X0300938Y0151883D01*
X0300470Y0152117D01*
X0299987Y0152317D01*
X0299904Y0152400D01*
X0299800Y0152452D01*
X0299457Y0152847D01*
X0299087Y0153217D01*
X0299042Y0153325D01*
X0298966Y0153414D01*
X0298800Y0153910D01*
X0298600Y0154393D01*
X0298600Y0154510D01*
X0295943Y0162480D01*
X0295810Y0162480D01*
X0293982Y0163237D01*
X0292583Y0164637D01*
X0291825Y0166465D01*
X0291825Y0173594D01*
X0292270Y0174668D01*
X0288083Y0190580D01*
X0266268Y0190580D01*
X0266750Y0190098D01*
X0266750Y0184961D01*
X0265018Y0183230D01*
X0281686Y0183230D01*
X0282208Y0183267D01*
X0282319Y0183230D01*
X0282437Y0183230D01*
X0282920Y0183029D01*
X0283416Y0182864D01*
X0283504Y0182787D01*
X0283613Y0182742D01*
X0283982Y0182373D01*
X0284377Y0182030D01*
X0284430Y0181925D01*
X0284513Y0181842D01*
X0284713Y0181359D01*
X0286603Y0177579D01*
X0287790Y0177579D01*
X0289618Y0176822D01*
X0291017Y0175422D01*
X0291775Y0173594D01*
X0291775Y0166465D01*
X0291017Y0164637D01*
X0289618Y0163237D01*
X0287790Y0162480D01*
X0285810Y0162480D01*
X0283982Y0163237D01*
X0282583Y0164637D01*
X0281825Y0166465D01*
X0281825Y0172824D01*
X0279822Y0176830D01*
X0277953Y0176830D01*
X0278479Y0176659D01*
X0279093Y0176346D01*
X0279650Y0175941D01*
X0280137Y0175454D01*
X0280542Y0174897D01*
X0280854Y0174284D01*
X0281067Y0173629D01*
X0281175Y0172949D01*
X0281175Y0170030D01*
X0276800Y0170030D01*
X0276800Y0170029D01*
X0276800Y0163080D01*
X0277144Y0163080D01*
X0277824Y0163188D01*
X0278479Y0163400D01*
X0279093Y0163713D01*
X0279650Y0164118D01*
X0280137Y0164605D01*
X0280542Y0165162D01*
X0280854Y0165775D01*
X0281067Y0166430D01*
X0281175Y0167110D01*
X0281175Y0170029D01*
X0276800Y0170029D01*
X0276800Y0170029D01*
X0276800Y0163080D01*
X0276456Y0163080D01*
X0275776Y0163188D01*
X0275121Y0163400D01*
X0274507Y0163713D01*
X0273950Y0164118D01*
X0273463Y0164605D01*
X0273058Y0165162D01*
X0272746Y0165775D01*
X0272533Y0166430D01*
X0272425Y0167110D01*
X0272425Y0170029D01*
X0276800Y0170029D01*
X0276800Y0170030D01*
X0272425Y0170030D01*
X0272425Y0172949D01*
X0272533Y0173629D01*
X0272746Y0174284D01*
X0273058Y0174897D01*
X0273463Y0175454D01*
X0273950Y0175941D01*
X0274507Y0176346D01*
X0275121Y0176659D01*
X0275647Y0176830D01*
X0269599Y0176830D01*
X0269618Y0176822D01*
X0271017Y0175422D01*
X0271775Y0173594D01*
X0271775Y0166465D01*
X0271017Y0164637D01*
X0269618Y0163237D01*
X0267790Y0162480D01*
X0265810Y0162480D01*
X0263982Y0163237D01*
X0262583Y0164637D01*
X0261825Y0166465D01*
X0261825Y0173594D01*
X0262583Y0175422D01*
X0263982Y0176822D01*
X0264001Y0176830D01*
X0259599Y0176830D01*
X0259618Y0176822D01*
X0261017Y0175422D01*
X0261775Y0173594D01*
X0261775Y0166465D01*
X0261017Y0164637D01*
X0259618Y0163237D01*
X0257790Y0162480D01*
X0255810Y0162480D01*
X0253982Y0163237D01*
X0252583Y0164637D01*
X0251825Y0166465D01*
X0251825Y0173594D01*
X0252583Y0175422D01*
X0253982Y0176822D01*
X0254001Y0176830D01*
X0249599Y0176830D01*
X0249618Y0176822D01*
X0251017Y0175422D01*
X0251775Y0173594D01*
X0251775Y0166465D01*
X0251017Y0164637D01*
X0249618Y0163237D01*
X0247790Y0162480D01*
X0245810Y0162480D01*
X0243982Y0163237D01*
X0242583Y0164637D01*
X0241825Y0166465D01*
X0241825Y0173594D01*
X0242583Y0175422D01*
X0243982Y0176822D01*
X0244001Y0176830D01*
X0237953Y0176830D01*
X0238479Y0176659D01*
X0239093Y0176346D01*
X0239650Y0175941D01*
X0240137Y0175454D01*
X0240542Y0174897D01*
X0240854Y0174284D01*
X0241067Y0173629D01*
X0241175Y0172949D01*
X0241175Y0170030D01*
X0236800Y0170030D01*
X0236800Y0170029D01*
X0236800Y0163080D01*
X0237144Y0163080D01*
X0237824Y0163188D01*
X0238479Y0163400D01*
X0239093Y0163713D01*
X0239650Y0164118D01*
X0240137Y0164605D01*
X0240542Y0165162D01*
X0240854Y0165775D01*
X0241067Y0166430D01*
X0241175Y0167110D01*
X0241175Y0170029D01*
X0236800Y0170029D01*
X0236800Y0170029D01*
X0236800Y0163080D01*
X0236456Y0163080D01*
X0235776Y0163188D01*
X0235121Y0163400D01*
X0234507Y0163713D01*
X0233950Y0164118D01*
X0233463Y0164605D01*
X0233058Y0165162D01*
X0232746Y0165775D01*
X0232533Y0166430D01*
X0232425Y0167110D01*
X0232425Y0170029D01*
X0236800Y0170029D01*
X0236800Y0170030D01*
X0232425Y0170030D01*
X0232425Y0171845D01*
X0226314Y0165821D01*
X0225928Y0165406D01*
X0225862Y0165376D01*
X0225810Y0165325D01*
X0225286Y0165112D01*
X0224771Y0164876D01*
X0224698Y0164873D01*
X0224631Y0164846D01*
X0224065Y0164850D01*
X0215571Y0164537D01*
X0215007Y0164492D01*
X0214937Y0164514D01*
X0214865Y0164511D01*
X0214334Y0164708D01*
X0213795Y0164882D01*
X0213740Y0164929D01*
X0213671Y0164955D01*
X0213257Y0165340D01*
X0211814Y0166567D01*
X0211950Y0166430D01*
X0211950Y0161129D01*
X0208201Y0157380D01*
X0202899Y0157380D01*
X0199150Y0161129D01*
X0199150Y0166430D01*
X0202899Y0170180D01*
X0207564Y0170180D01*
X0206778Y0170848D01*
X0204541Y0170848D01*
X0203659Y0171214D01*
X0202984Y0171889D01*
X0202619Y0172771D01*
X0202619Y0177288D01*
X0202984Y0178170D01*
X0203659Y0178845D01*
X0204541Y0179211D01*
X0209058Y0179211D01*
X0209941Y0178845D01*
X0210616Y0178170D01*
X0210981Y0177288D01*
X0210981Y0175675D01*
X0216508Y0170976D01*
X0217065Y0170997D01*
X0215600Y0172461D01*
X0215600Y0177598D01*
X0219232Y0181230D01*
X0221162Y0181230D01*
X0222369Y0183816D01*
X0222431Y0184095D01*
X0222635Y0184387D01*
X0222786Y0184710D01*
X0222997Y0184903D01*
X0223161Y0185137D01*
X0223462Y0185329D01*
X0223725Y0185570D01*
X0223994Y0185668D01*
X0240673Y0196290D01*
X0240876Y0196492D01*
X0241205Y0196629D01*
X0241506Y0196821D01*
X0241788Y0196870D01*
X0242052Y0196980D01*
X0242408Y0196980D01*
X0242760Y0197041D01*
X0243039Y0196980D01*
X0256930Y0196980D01*
X0254950Y0198960D01*
X0254950Y0201279D01*
X0260550Y0201279D01*
X0260550Y0201280D01*
X0260550Y0206880D01*
X0258230Y0206880D01*
X0254950Y0203599D01*
X0254950Y0201280D01*
X0260550Y0201280D01*
X0260550Y0201280D01*
X0260550Y0206880D01*
X0262870Y0206880D01*
X0266150Y0203599D01*
X0266150Y0201280D01*
X0260550Y0201280D01*
X0260550Y0201279D01*
X0266150Y0201279D01*
X0266150Y0198960D01*
X0264170Y0196980D01*
X0290136Y0196980D01*
X0290351Y0197036D01*
X0290767Y0196980D01*
X0291187Y0196980D01*
X0291392Y0196894D01*
X0291613Y0196864D01*
X0291975Y0196653D01*
X0292363Y0196492D01*
X0292520Y0196335D01*
X0292712Y0196223D01*
X0292966Y0195889D01*
X0293263Y0195592D01*
X0293348Y0195387D01*
X0293483Y0195209D01*
X0293589Y0194804D01*
X0293750Y0194416D01*
X0293750Y0194194D01*
X0294728Y0190476D01*
X0297982Y0193730D01*
X0303118Y0193730D01*
X0306750Y0190098D01*
X0306750Y0184961D01*
X0303118Y0181330D01*
X0297982Y0181330D01*
X0296833Y0182479D01*
X0298163Y0177424D01*
X0299618Y0176822D01*
X0301017Y0175422D01*
X0301775Y0173594D01*
X0301775Y0166465D01*
X0301546Y0165912D01*
X0304106Y0158230D01*
X0316406Y0158230D01*
X0316641Y0158288D01*
X0317037Y0158230D01*
X0317437Y0158230D01*
X0317661Y0158137D01*
X0317901Y0158101D01*
X0318243Y0157895D01*
X0318613Y0157742D01*
X0318784Y0157571D01*
X0343227Y0142905D01*
X0343579Y0142764D01*
X0343767Y0142581D01*
X0343992Y0142446D01*
X0344218Y0142141D01*
X0344491Y0141875D01*
X0344594Y0141634D01*
X0344750Y0141423D01*
X0344842Y0141054D01*
X0357624Y0111230D01*
X0359368Y0111230D01*
X0362356Y0108241D01*
X0353800Y0133910D01*
X0353600Y0134393D01*
X0353600Y0134510D01*
X0353563Y0134621D01*
X0353600Y0135143D01*
X0353600Y0159617D01*
X0352662Y0158680D01*
X0350550Y0158680D01*
X0350550Y0163779D01*
X0350550Y0163779D01*
X0350550Y0158680D01*
X0348438Y0158680D01*
X0345729Y0161388D01*
X0345382Y0160551D01*
X0343779Y0158947D01*
X0341684Y0158080D01*
X0339416Y0158080D01*
X0337321Y0158947D01*
X0335718Y0160551D01*
X0334850Y0162646D01*
X0334850Y0164913D01*
X0335718Y0167008D01*
X0337321Y0168612D01*
X0339416Y0169480D01*
X0341684Y0169480D01*
X0343779Y0168612D01*
X0345382Y0167008D01*
X0345729Y0166171D01*
X0348438Y0168880D01*
X0350550Y0168880D01*
X0350550Y0163780D01*
X0350550Y0163780D01*
X0350550Y0168880D01*
X0352662Y0168880D01*
X0353600Y0167942D01*
X0353600Y0172954D01*
X0344363Y0183858D01*
X0326574Y0186823D01*
X0326242Y0186815D01*
X0325952Y0186927D01*
X0325646Y0186978D01*
X0325364Y0187154D01*
X0325054Y0187273D01*
X0324829Y0187487D01*
X0324566Y0187652D01*
X0324373Y0187922D01*
X0302420Y0208830D01*
X0297982Y0208830D01*
X0294350Y0212461D01*
X0294350Y0217598D01*
X0297982Y0221230D01*
X0303118Y0221230D01*
X0306750Y0217598D01*
X0306750Y0213544D01*
X0328295Y0193024D01*
X0346442Y0190000D01*
X0346944Y0189958D01*
X0347066Y0189896D01*
X0347200Y0189874D01*
X0347628Y0189607D01*
X0348076Y0189376D01*
X0348164Y0189272D01*
X0348280Y0189200D01*
X0348573Y0188789D01*
X0359156Y0176296D01*
X0359513Y0175940D01*
X0359565Y0175814D01*
X0359653Y0175710D01*
X0359807Y0175230D01*
X0360000Y0174764D01*
X0360000Y0174627D01*
X0360042Y0174498D01*
X0360000Y0173995D01*
X0360000Y0167867D01*
X0360377Y0168141D01*
X0361092Y0168506D01*
X0361856Y0168754D01*
X0362649Y0168880D01*
X0363050Y0168880D01*
X0363050Y0163780D01*
X0363050Y0163780D01*
X0363050Y0168880D01*
X0363451Y0168880D01*
X0364244Y0168754D01*
X0365008Y0168506D01*
X0365723Y0168141D01*
X0366372Y0167670D01*
X0366940Y0167102D01*
X0367412Y0166453D01*
X0367496Y0166287D01*
X0370689Y0169480D01*
X0375411Y0169480D01*
X0378750Y0166141D01*
X0378750Y0161419D01*
X0375411Y0158080D01*
X0370689Y0158080D01*
X0367496Y0161272D01*
X0367412Y0161107D01*
X0366940Y0160457D01*
X0366372Y0159889D01*
X0365723Y0159418D01*
X0365008Y0159053D01*
X0364244Y0158805D01*
X0363451Y0158680D01*
X0363050Y0158680D01*
X0363050Y0163779D01*
X0363050Y0163779D01*
X0363050Y0158680D01*
X0362649Y0158680D01*
X0361856Y0158805D01*
X0361092Y0159053D01*
X0360377Y0159418D01*
X0360000Y0159692D01*
X0360000Y0135549D01*
X0369703Y0106440D01*
X0369822Y0106260D01*
X0369902Y0105841D01*
X0370037Y0105438D01*
X0370022Y0105222D01*
X0370063Y0105009D01*
X0369977Y0104592D01*
X0369947Y0104168D01*
X0369850Y0103974D01*
X0365873Y0084605D01*
X0369940Y0080538D01*
X0369940Y0073143D01*
X0369373Y0072576D02*
X0374892Y0072576D01*
X0373945Y0070977D02*
X0367775Y0070977D01*
X0366176Y0069379D02*
X0373945Y0069379D01*
X0373945Y0066182D02*
X0325600Y0066182D01*
X0325454Y0064583D02*
X0374091Y0064583D01*
X0375690Y0062985D02*
X0323855Y0062985D01*
X0318072Y0062985D02*
X0316472Y0062985D01*
X0316472Y0064583D02*
X0318072Y0064583D01*
X0318072Y0061386D02*
X0316472Y0061386D01*
X0312288Y0061386D02*
X0257257Y0061386D01*
X0258855Y0062985D02*
X0310690Y0062985D01*
X0309091Y0064583D02*
X0260454Y0064583D01*
X0260600Y0066182D02*
X0308945Y0066182D01*
X0308945Y0069379D02*
X0301176Y0069379D01*
X0299711Y0067913D02*
X0304940Y0073143D01*
X0304940Y0080538D01*
X0299711Y0085768D01*
X0292315Y0085768D01*
X0287532Y0080985D01*
X0268468Y0083066D01*
X0266858Y0085080D01*
X0269368Y0085080D01*
X0273000Y0088711D01*
X0273000Y0092452D01*
X0278511Y0097275D01*
X0278613Y0097317D01*
X0278987Y0097691D01*
X0279386Y0098040D01*
X0279435Y0098139D01*
X0279513Y0098217D01*
X0279716Y0098707D01*
X0279951Y0099182D01*
X0279958Y0099291D01*
X0280000Y0099393D01*
X0280000Y0099923D01*
X0280035Y0100452D01*
X0280000Y0100556D01*
X0280000Y0110666D01*
X0279513Y0111842D01*
X0269430Y0121925D01*
X0263566Y0133654D01*
X0263982Y0133237D01*
X0265810Y0132480D01*
X0267790Y0132480D01*
X0269618Y0133237D01*
X0271017Y0134637D01*
X0271775Y0136465D01*
X0271775Y0143594D01*
X0271017Y0145422D01*
X0269618Y0146822D01*
X0267790Y0147579D01*
X0265810Y0147579D01*
X0263982Y0146822D01*
X0262583Y0145422D01*
X0261825Y0143594D01*
X0261825Y0137134D01*
X0261775Y0137235D01*
X0261775Y0143594D01*
X0261017Y0145422D01*
X0259618Y0146822D01*
X0257790Y0147579D01*
X0255810Y0147579D01*
X0253982Y0146822D01*
X0252583Y0145422D01*
X0251825Y0143594D01*
X0251825Y0136465D01*
X0252583Y0134637D01*
X0253982Y0133237D01*
X0255810Y0132480D01*
X0256997Y0132480D01*
X0260876Y0124721D01*
X0259368Y0126230D01*
X0254232Y0126230D01*
X0250600Y0122598D01*
X0250600Y0119742D01*
X0240164Y0112785D01*
X0239749Y0112567D01*
X0239639Y0112435D01*
X0239495Y0112339D01*
X0239234Y0111949D01*
X0222400Y0091748D01*
X0222400Y0092529D01*
X0216800Y0092529D01*
X0216800Y0086930D01*
X0218385Y0086930D01*
X0214689Y0082495D01*
X0214608Y0082446D01*
X0214283Y0082008D01*
X0213934Y0081589D01*
X0213906Y0081499D01*
X0213850Y0081423D01*
X0213718Y0080894D01*
X0213556Y0080374D01*
X0213564Y0080280D01*
X0203911Y0041666D01*
X0198925Y0036680D01*
X0194045Y0036680D01*
X0190150Y0032784D01*
X0190150Y0027275D01*
X0194045Y0023380D01*
X0199555Y0023380D01*
X0203450Y0027275D01*
X0203450Y0032154D01*
X0208784Y0037488D01*
X0208992Y0037613D01*
X0209230Y0037934D01*
X0209513Y0038217D01*
X0209606Y0038441D01*
X0209750Y0038636D01*
X0209847Y0039024D01*
X0210000Y0039393D01*
X0210000Y0039636D01*
X0219727Y0078543D01*
X0243961Y0107624D01*
X0253847Y0114215D01*
X0254232Y0113830D01*
X0259368Y0113830D01*
X0263000Y0117461D01*
X0263000Y0120474D01*
X0263887Y0118700D01*
X0264087Y0118217D01*
X0264170Y0118134D01*
X0264222Y0118029D01*
X0264618Y0117687D01*
X0273600Y0108704D01*
X0273600Y0101482D01*
X0269026Y0097480D01*
X0264232Y0097480D01*
X0262425Y0095673D01*
X0259368Y0098730D01*
X0254232Y0098730D01*
X0250600Y0095098D01*
X0250600Y0089961D01*
X0254232Y0086330D01*
X0257662Y0086330D01*
X0263906Y0078525D01*
X0263906Y0078522D01*
X0264303Y0078029D01*
X0264699Y0077533D01*
X0264702Y0077532D01*
X0264704Y0077529D01*
X0265260Y0077225D01*
X0265814Y0076919D01*
X0265817Y0076919D01*
X0265820Y0076917D01*
X0266454Y0076848D01*
X0267079Y0076779D01*
X0267082Y0076780D01*
X0287085Y0074596D01*
X0287085Y0073143D01*
X0292315Y0067913D01*
X0299711Y0067913D01*
X0302775Y0070977D02*
X0308945Y0070977D01*
X0309892Y0072576D02*
X0304373Y0072576D01*
X0304940Y0074174D02*
X0311491Y0074174D01*
X0313089Y0075773D02*
X0304940Y0075773D01*
X0304940Y0077371D02*
X0352085Y0077371D01*
X0352085Y0075773D02*
X0321456Y0075773D01*
X0323054Y0074174D02*
X0352085Y0074174D01*
X0352652Y0072576D02*
X0324653Y0072576D01*
X0325600Y0070977D02*
X0354250Y0070977D01*
X0355849Y0069379D02*
X0325600Y0069379D01*
X0318072Y0069379D02*
X0316472Y0069379D01*
X0316472Y0070977D02*
X0318072Y0070977D01*
X0318072Y0072576D02*
X0316472Y0072576D01*
X0316472Y0074174D02*
X0318072Y0074174D01*
X0318072Y0075773D02*
X0316472Y0075773D01*
X0304940Y0078970D02*
X0352085Y0078970D01*
X0352115Y0080568D02*
X0304910Y0080568D01*
X0303312Y0082167D02*
X0353714Y0082167D01*
X0355312Y0083766D02*
X0301713Y0083766D01*
X0300115Y0085364D02*
X0303947Y0085364D01*
X0304232Y0085080D02*
X0309368Y0085080D01*
X0313000Y0088711D01*
X0313000Y0093848D01*
X0309368Y0097480D01*
X0304232Y0097480D01*
X0300600Y0093848D01*
X0300600Y0088711D01*
X0304232Y0085080D01*
X0302349Y0086963D02*
X0271251Y0086963D01*
X0272850Y0088561D02*
X0300750Y0088561D01*
X0300600Y0090160D02*
X0273000Y0090160D01*
X0273000Y0091758D02*
X0300600Y0091758D01*
X0300600Y0093357D02*
X0274033Y0093357D01*
X0275860Y0094955D02*
X0301707Y0094955D01*
X0303306Y0096554D02*
X0277687Y0096554D01*
X0279448Y0098152D02*
X0362121Y0098152D01*
X0361793Y0096554D02*
X0310294Y0096554D01*
X0311893Y0094955D02*
X0361465Y0094955D01*
X0361137Y0093357D02*
X0313000Y0093357D01*
X0313000Y0091758D02*
X0360809Y0091758D01*
X0360480Y0090160D02*
X0313000Y0090160D01*
X0312850Y0088561D02*
X0360152Y0088561D01*
X0359824Y0086963D02*
X0311251Y0086963D01*
X0309653Y0085364D02*
X0356911Y0085364D01*
X0366029Y0085364D02*
X0392400Y0085364D01*
X0392400Y0083766D02*
X0366713Y0083766D01*
X0368312Y0082167D02*
X0392400Y0082167D01*
X0392400Y0080568D02*
X0369910Y0080568D01*
X0369940Y0078970D02*
X0392400Y0078970D01*
X0392400Y0086963D02*
X0366357Y0086963D01*
X0366686Y0088561D02*
X0392400Y0088561D01*
X0392400Y0090160D02*
X0367014Y0090160D01*
X0367342Y0091758D02*
X0392400Y0091758D01*
X0392400Y0093357D02*
X0367670Y0093357D01*
X0367998Y0094955D02*
X0392400Y0094955D01*
X0392400Y0096554D02*
X0368327Y0096554D01*
X0368655Y0098152D02*
X0392400Y0098152D01*
X0392400Y0099751D02*
X0368983Y0099751D01*
X0369311Y0101349D02*
X0392400Y0101349D01*
X0392400Y0102948D02*
X0369639Y0102948D01*
X0369974Y0104546D02*
X0392400Y0104546D01*
X0392400Y0106145D02*
X0369844Y0106145D01*
X0369269Y0107743D02*
X0392400Y0107743D01*
X0392400Y0109342D02*
X0368736Y0109342D01*
X0368203Y0110940D02*
X0392400Y0110940D01*
X0392400Y0112539D02*
X0367670Y0112539D01*
X0367137Y0114137D02*
X0392400Y0114137D01*
X0392400Y0115736D02*
X0366604Y0115736D01*
X0366072Y0117334D02*
X0392400Y0117334D01*
X0392400Y0118933D02*
X0365539Y0118933D01*
X0365006Y0120531D02*
X0392400Y0120531D01*
X0392400Y0122130D02*
X0364473Y0122130D01*
X0363940Y0123728D02*
X0392400Y0123728D01*
X0392400Y0125327D02*
X0363407Y0125327D01*
X0362874Y0126925D02*
X0392400Y0126925D01*
X0392400Y0128524D02*
X0362342Y0128524D01*
X0361809Y0130122D02*
X0392400Y0130122D01*
X0392400Y0131721D02*
X0361276Y0131721D01*
X0360743Y0133319D02*
X0382242Y0133319D01*
X0382982Y0132580D02*
X0379350Y0136211D01*
X0379350Y0141348D01*
X0382982Y0144980D01*
X0388118Y0144980D01*
X0391750Y0141348D01*
X0391750Y0136211D01*
X0388118Y0132580D01*
X0382982Y0132580D01*
X0380644Y0134918D02*
X0360210Y0134918D01*
X0360000Y0136516D02*
X0379350Y0136516D01*
X0379350Y0138115D02*
X0360000Y0138115D01*
X0360000Y0139713D02*
X0379350Y0139713D01*
X0379350Y0141312D02*
X0360000Y0141312D01*
X0360000Y0142910D02*
X0380913Y0142910D01*
X0382511Y0144509D02*
X0360000Y0144509D01*
X0360000Y0146107D02*
X0392400Y0146107D01*
X0392400Y0144509D02*
X0388589Y0144509D01*
X0390187Y0142910D02*
X0392400Y0142910D01*
X0392400Y0141312D02*
X0391750Y0141312D01*
X0391750Y0139713D02*
X0392400Y0139713D01*
X0392400Y0138115D02*
X0391750Y0138115D01*
X0391750Y0136516D02*
X0392400Y0136516D01*
X0392400Y0134918D02*
X0390456Y0134918D01*
X0388858Y0133319D02*
X0392400Y0133319D01*
X0392400Y0147706D02*
X0360000Y0147706D01*
X0360000Y0149304D02*
X0392400Y0149304D01*
X0392400Y0150903D02*
X0360000Y0150903D01*
X0360000Y0152502D02*
X0392400Y0152502D01*
X0392400Y0154100D02*
X0360000Y0154100D01*
X0360000Y0155699D02*
X0392400Y0155699D01*
X0392400Y0157297D02*
X0360000Y0157297D01*
X0360000Y0158896D02*
X0361577Y0158896D01*
X0363050Y0158896D02*
X0363050Y0158896D01*
X0364523Y0158896D02*
X0369873Y0158896D01*
X0368274Y0160494D02*
X0366967Y0160494D01*
X0363050Y0160494D02*
X0363050Y0160494D01*
X0363050Y0162093D02*
X0363050Y0162093D01*
X0363050Y0163691D02*
X0363050Y0163691D01*
X0363050Y0165290D02*
X0363050Y0165290D01*
X0363050Y0166888D02*
X0363050Y0166888D01*
X0363050Y0168487D02*
X0363050Y0168487D01*
X0365046Y0168487D02*
X0369696Y0168487D01*
X0368098Y0166888D02*
X0367095Y0166888D01*
X0361054Y0168487D02*
X0360000Y0168487D01*
X0360000Y0170085D02*
X0392400Y0170085D01*
X0392400Y0168487D02*
X0376404Y0168487D01*
X0378002Y0166888D02*
X0392400Y0166888D01*
X0392400Y0165290D02*
X0378750Y0165290D01*
X0378750Y0163691D02*
X0392400Y0163691D01*
X0392400Y0162093D02*
X0378750Y0162093D01*
X0377826Y0160494D02*
X0392400Y0160494D01*
X0392400Y0158896D02*
X0376227Y0158896D01*
X0382982Y0172580D02*
X0388118Y0172580D01*
X0391750Y0176211D01*
X0391750Y0181348D01*
X0388118Y0184980D01*
X0382982Y0184980D01*
X0379350Y0181348D01*
X0379350Y0176211D01*
X0382982Y0172580D01*
X0382279Y0173282D02*
X0360000Y0173282D01*
X0360000Y0171684D02*
X0392400Y0171684D01*
X0392400Y0173282D02*
X0388821Y0173282D01*
X0390419Y0174881D02*
X0392400Y0174881D01*
X0392400Y0176479D02*
X0391750Y0176479D01*
X0391750Y0178078D02*
X0392400Y0178078D01*
X0392400Y0179676D02*
X0391750Y0179676D01*
X0391750Y0181275D02*
X0392400Y0181275D01*
X0392400Y0182873D02*
X0390224Y0182873D01*
X0388626Y0184472D02*
X0392400Y0184472D01*
X0392400Y0186070D02*
X0350877Y0186070D01*
X0352231Y0184472D02*
X0382474Y0184472D01*
X0380876Y0182873D02*
X0353585Y0182873D01*
X0354939Y0181275D02*
X0379350Y0181275D01*
X0379350Y0179676D02*
X0356293Y0179676D01*
X0357647Y0178078D02*
X0379350Y0178078D01*
X0379350Y0176479D02*
X0359001Y0176479D01*
X0359952Y0174881D02*
X0380681Y0174881D01*
X0392400Y0187669D02*
X0349522Y0187669D01*
X0348172Y0189267D02*
X0392400Y0189267D01*
X0392400Y0190866D02*
X0341247Y0190866D01*
X0346046Y0186822D02*
X0356800Y0174127D01*
X0356800Y0135030D01*
X0366800Y0105030D01*
X0361013Y0076841D01*
X0392400Y0058189D02*
X0214638Y0058189D01*
X0214239Y0056591D02*
X0392400Y0056591D01*
X0392400Y0048598D02*
X0332850Y0048598D01*
X0332326Y0047000D02*
X0392400Y0047000D01*
X0392400Y0042204D02*
X0210642Y0042204D01*
X0210243Y0040606D02*
X0392400Y0040606D01*
X0392400Y0039007D02*
X0209843Y0039007D01*
X0208705Y0037409D02*
X0392400Y0037409D01*
X0356669Y0018227D02*
X0301931Y0018227D01*
X0291669Y0018227D02*
X0236931Y0018227D01*
X0238530Y0019825D02*
X0290070Y0019825D01*
X0288472Y0021424D02*
X0240128Y0021424D01*
X0240128Y0023022D02*
X0288472Y0023022D01*
X0288472Y0025672D02*
X0296000Y0025672D01*
X0296000Y0033200D01*
X0293351Y0033200D01*
X0288472Y0028321D01*
X0288472Y0025672D01*
X0288472Y0026219D02*
X0240128Y0026219D01*
X0240128Y0027818D02*
X0288472Y0027818D01*
X0289567Y0029416D02*
X0239033Y0029416D01*
X0237434Y0031015D02*
X0291166Y0031015D01*
X0292764Y0032613D02*
X0235836Y0032613D01*
X0232600Y0032613D02*
X0231000Y0032613D01*
X0231000Y0033200D02*
X0228351Y0033200D01*
X0223472Y0028321D01*
X0223472Y0025672D01*
X0231000Y0025672D01*
X0231000Y0033200D01*
X0231000Y0031015D02*
X0232600Y0031015D01*
X0232600Y0029416D02*
X0231000Y0029416D01*
X0231000Y0027818D02*
X0232600Y0027818D01*
X0232600Y0026219D02*
X0231000Y0026219D01*
X0231000Y0024621D02*
X0200796Y0024621D01*
X0202394Y0026219D02*
X0223472Y0026219D01*
X0223472Y0027818D02*
X0203450Y0027818D01*
X0203450Y0029416D02*
X0224567Y0029416D01*
X0226166Y0031015D02*
X0203450Y0031015D01*
X0203909Y0032613D02*
X0227764Y0032613D01*
X0232600Y0024621D02*
X0296000Y0024621D01*
X0296000Y0026219D02*
X0297600Y0026219D01*
X0297600Y0024621D02*
X0322804Y0024621D01*
X0297600Y0027818D02*
X0296000Y0027818D01*
X0296000Y0029416D02*
X0297600Y0029416D01*
X0297600Y0031015D02*
X0296000Y0031015D01*
X0296000Y0032613D02*
X0297600Y0032613D01*
X0253072Y0061386D02*
X0251472Y0061386D01*
X0251472Y0062985D02*
X0253072Y0062985D01*
X0253072Y0064583D02*
X0251472Y0064583D01*
X0251472Y0068979D02*
X0243945Y0068979D01*
X0243945Y0071629D01*
X0248823Y0076507D01*
X0251472Y0076507D01*
X0251472Y0068979D01*
X0251472Y0069379D02*
X0253072Y0069379D01*
X0253072Y0068979D02*
X0253072Y0076507D01*
X0255722Y0076507D01*
X0260600Y0071629D01*
X0260600Y0068979D01*
X0253072Y0068979D01*
X0253072Y0070977D02*
X0251472Y0070977D01*
X0251472Y0072576D02*
X0253072Y0072576D01*
X0253072Y0074174D02*
X0251472Y0074174D01*
X0251472Y0075773D02*
X0253072Y0075773D01*
X0256456Y0075773D02*
X0276305Y0075773D01*
X0287085Y0074174D02*
X0258054Y0074174D01*
X0259653Y0072576D02*
X0287652Y0072576D01*
X0289250Y0070977D02*
X0260600Y0070977D01*
X0260600Y0069379D02*
X0290849Y0069379D01*
X0296013Y0076841D02*
X0266800Y0080030D01*
X0256800Y0092530D01*
X0252000Y0088561D02*
X0228075Y0088561D01*
X0226743Y0086963D02*
X0253599Y0086963D01*
X0250600Y0090160D02*
X0229407Y0090160D01*
X0230739Y0091758D02*
X0250600Y0091758D01*
X0250600Y0093357D02*
X0232071Y0093357D01*
X0233403Y0094955D02*
X0250600Y0094955D01*
X0252056Y0096554D02*
X0234736Y0096554D01*
X0236068Y0098152D02*
X0253654Y0098152D01*
X0254232Y0100080D02*
X0259368Y0100080D01*
X0261175Y0101886D01*
X0264232Y0098830D01*
X0269368Y0098830D01*
X0273000Y0102461D01*
X0273000Y0107598D01*
X0269368Y0111230D01*
X0264232Y0111230D01*
X0262425Y0109423D01*
X0259368Y0112480D01*
X0254232Y0112480D01*
X0250600Y0108848D01*
X0250600Y0103711D01*
X0254232Y0100080D01*
X0252962Y0101349D02*
X0238732Y0101349D01*
X0240064Y0102948D02*
X0251364Y0102948D01*
X0250600Y0104546D02*
X0241396Y0104546D01*
X0242728Y0106145D02*
X0250600Y0106145D01*
X0250600Y0107743D02*
X0244139Y0107743D01*
X0246537Y0109342D02*
X0251094Y0109342D01*
X0252693Y0110940D02*
X0248935Y0110940D01*
X0251333Y0112539D02*
X0269765Y0112539D01*
X0269657Y0110940D02*
X0271364Y0110940D01*
X0271256Y0109342D02*
X0272962Y0109342D01*
X0272854Y0107743D02*
X0273600Y0107743D01*
X0273600Y0106145D02*
X0273000Y0106145D01*
X0273000Y0104546D02*
X0273600Y0104546D01*
X0273600Y0102948D02*
X0273000Y0102948D01*
X0273449Y0101349D02*
X0271888Y0101349D01*
X0271622Y0099751D02*
X0270289Y0099751D01*
X0269795Y0098152D02*
X0259946Y0098152D01*
X0261544Y0096554D02*
X0263306Y0096554D01*
X0263311Y0099751D02*
X0237400Y0099751D01*
X0231733Y0102948D02*
X0221388Y0102948D01*
X0222400Y0103960D02*
X0222400Y0106279D01*
X0216800Y0106279D01*
X0216800Y0100680D01*
X0219120Y0100680D01*
X0222400Y0103960D01*
X0222400Y0104546D02*
X0233065Y0104546D01*
X0234397Y0106145D02*
X0222400Y0106145D01*
X0222400Y0106280D02*
X0222400Y0108599D01*
X0220373Y0110626D01*
X0225238Y0113514D01*
X0225463Y0113580D01*
X0225780Y0113836D01*
X0226130Y0114044D01*
X0226271Y0114232D01*
X0226454Y0114379D01*
X0226649Y0114737D01*
X0226893Y0115063D01*
X0226951Y0115291D01*
X0236327Y0132480D01*
X0237790Y0132480D01*
X0239618Y0133237D01*
X0241017Y0134637D01*
X0241775Y0136465D01*
X0241775Y0143594D01*
X0241017Y0145422D01*
X0239618Y0146822D01*
X0237790Y0147579D01*
X0235810Y0147579D01*
X0233982Y0146822D01*
X0232583Y0145422D01*
X0231825Y0143594D01*
X0231825Y0137592D01*
X0223000Y0121412D01*
X0223000Y0122598D01*
X0219368Y0126230D01*
X0214603Y0126230D01*
X0202098Y0137245D01*
X0201611Y0139516D01*
X0203148Y0137980D01*
X0205550Y0137980D01*
X0205550Y0143779D01*
X0205550Y0137980D01*
X0207952Y0137980D01*
X0211350Y0141377D01*
X0211350Y0143779D01*
X0205550Y0143779D01*
X0205550Y0143779D01*
X0205550Y0143780D01*
X0205550Y0149580D01*
X0203148Y0149580D01*
X0200106Y0146538D01*
X0196156Y0164972D01*
X0196775Y0166465D01*
X0196775Y0173594D01*
X0196017Y0175422D01*
X0194618Y0176822D01*
X0194473Y0176882D01*
X0178439Y0192916D01*
X0177442Y0196904D01*
X0179250Y0198711D01*
X0179250Y0203848D01*
X0175618Y0207480D01*
X0170482Y0207480D01*
X0166850Y0203848D01*
X0166850Y0198711D01*
X0170482Y0195080D01*
X0171302Y0195080D01*
X0172350Y0190886D01*
X0172350Y0190643D01*
X0172503Y0190274D01*
X0172600Y0189886D01*
X0172744Y0189691D01*
X0172837Y0189467D01*
X0173120Y0189184D01*
X0173358Y0188863D01*
X0173566Y0188738D01*
X0187377Y0174927D01*
X0186825Y0173594D01*
X0186825Y0166465D01*
X0187583Y0164637D01*
X0188982Y0163237D01*
X0190080Y0162782D01*
X0193392Y0147330D01*
X0192790Y0147579D01*
X0190810Y0147579D01*
X0188982Y0146822D01*
X0187583Y0145422D01*
X0186825Y0143594D01*
X0186825Y0136465D01*
X0187583Y0134637D01*
X0187740Y0134480D01*
X0185860Y0134480D01*
X0186017Y0134637D01*
X0186775Y0136465D01*
X0186775Y0143594D01*
X0186017Y0145422D01*
X0184618Y0146822D01*
X0182790Y0147579D01*
X0180810Y0147579D01*
X0178982Y0146822D01*
X0177583Y0145422D01*
X0176825Y0143594D01*
X0176825Y0136465D01*
X0177205Y0135548D01*
X0176562Y0135628D01*
X0176548Y0135636D01*
X0175931Y0135707D01*
X0175826Y0135720D01*
X0175854Y0135775D01*
X0176067Y0136430D01*
X0176175Y0137110D01*
X0176175Y0140029D01*
X0171800Y0140029D01*
X0167425Y0140029D01*
X0167425Y0137110D01*
X0167533Y0136430D01*
X0167746Y0135775D01*
X0168058Y0135162D01*
X0168463Y0134605D01*
X0168950Y0134118D01*
X0169094Y0134013D01*
X0166352Y0133230D01*
X0166163Y0133230D01*
X0165745Y0133056D01*
X0165309Y0132932D01*
X0165161Y0132814D01*
X0164987Y0132742D01*
X0164667Y0132422D01*
X0164312Y0132140D01*
X0164220Y0131975D01*
X0155222Y0122977D01*
X0146839Y0121301D01*
X0148000Y0122461D01*
X0148000Y0127598D01*
X0144368Y0131230D01*
X0139232Y0131230D01*
X0135600Y0127598D01*
X0135600Y0122461D01*
X0138440Y0119621D01*
X0132006Y0118334D01*
X0108000Y0126336D01*
X0108000Y0127598D01*
X0104368Y0131230D01*
X0099232Y0131230D01*
X0097500Y0129498D01*
X0097500Y0130672D01*
X0099816Y0131996D01*
X0100482Y0131330D01*
X0105618Y0131330D01*
X0109250Y0134961D01*
X0109250Y0140098D01*
X0105618Y0143730D01*
X0105000Y0143730D01*
X0105000Y0165666D01*
X0104513Y0166842D01*
X0096250Y0175105D01*
X0096250Y0177216D01*
X0096313Y0177533D01*
X0096250Y0177846D01*
X0096250Y0178166D01*
X0096126Y0178465D01*
X0095023Y0183984D01*
X0095037Y0184188D01*
X0094899Y0184602D01*
X0094813Y0185031D01*
X0094699Y0185201D01*
X0092843Y0190771D01*
X0094450Y0192379D01*
X0094450Y0197680D01*
X0090701Y0201430D01*
X0085399Y0201430D01*
X0081650Y0197680D01*
X0081650Y0192379D01*
X0085399Y0188630D01*
X0086810Y0188630D01*
X0088701Y0182957D01*
X0089850Y0177213D01*
X0089850Y0176590D01*
X0089618Y0176822D01*
X0087790Y0177579D01*
X0085810Y0177579D01*
X0084372Y0176983D01*
X0079395Y0181960D01*
X0079316Y0182107D01*
X0078948Y0182407D01*
X0078613Y0182742D01*
X0078459Y0182806D01*
X0078329Y0182912D01*
X0077875Y0183048D01*
X0077437Y0183230D01*
X0077270Y0183230D01*
X0070500Y0185260D01*
X0070500Y0186348D01*
X0066868Y0189980D01*
X0061732Y0189980D01*
X0058100Y0186348D01*
X0058100Y0181211D01*
X0061732Y0177580D01*
X0066868Y0177580D01*
X0068475Y0179186D01*
X0074979Y0177235D01*
X0073982Y0176822D01*
X0072583Y0175422D01*
X0071825Y0173594D01*
X0071825Y0166465D01*
X0072583Y0164637D01*
X0073982Y0163237D01*
X0075810Y0162480D01*
X0077790Y0162480D01*
X0079618Y0163237D01*
X0081017Y0164637D01*
X0081775Y0166465D01*
X0081775Y0170529D01*
X0081825Y0170479D01*
X0081825Y0166465D01*
X0082583Y0164637D01*
X0083982Y0163237D01*
X0085810Y0162480D01*
X0087790Y0162480D01*
X0089618Y0163237D01*
X0091017Y0164637D01*
X0091775Y0166465D01*
X0091775Y0170529D01*
X0098600Y0163704D01*
X0098600Y0141848D01*
X0096850Y0140098D01*
X0096850Y0137672D01*
X0092888Y0135408D01*
X0092487Y0135242D01*
X0092340Y0135095D01*
X0092160Y0134992D01*
X0091894Y0134649D01*
X0091587Y0134342D01*
X0091508Y0134150D01*
X0091380Y0133986D01*
X0091266Y0133567D01*
X0091100Y0133166D01*
X0091100Y0132958D01*
X0091045Y0132757D01*
X0091100Y0132327D01*
X0091100Y0129780D01*
X0089451Y0131430D01*
X0084149Y0131430D01*
X0080400Y0127680D01*
X0080400Y0122379D01*
X0084149Y0118630D01*
X0089451Y0118630D01*
X0091573Y0120751D01*
X0091587Y0120717D01*
X0092487Y0119817D01*
X0097487Y0114817D01*
X0097722Y0114720D01*
X0095600Y0112598D01*
X0095600Y0107461D01*
X0099232Y0103830D01*
X0104368Y0103830D01*
X0108000Y0107461D01*
X0108000Y0112598D01*
X0106268Y0114330D01*
X0106725Y0114330D01*
X0109350Y0111704D01*
X0109350Y0107461D01*
X0112982Y0103830D01*
X0118118Y0103830D01*
X0121750Y0107461D01*
X0121750Y0112598D01*
X0118137Y0116211D01*
X0130382Y0112129D01*
X0130555Y0112014D01*
X0130980Y0111930D01*
X0131392Y0111792D01*
X0131599Y0111807D01*
X0131803Y0111767D01*
X0132229Y0111852D01*
X0132662Y0111883D01*
X0132848Y0111976D01*
X0157117Y0116830D01*
X0157437Y0116830D01*
X0157735Y0116953D01*
X0158052Y0117016D01*
X0158317Y0117194D01*
X0158613Y0117317D01*
X0158841Y0117545D01*
X0159109Y0117725D01*
X0159287Y0117991D01*
X0168476Y0127180D01*
X0171657Y0128089D01*
X0171000Y0127432D01*
X0171000Y0125030D01*
X0176800Y0125030D01*
X0182600Y0125030D01*
X0182600Y0127432D01*
X0181467Y0128565D01*
X0184724Y0128158D01*
X0184913Y0128080D01*
X0185351Y0128080D01*
X0185785Y0128025D01*
X0185982Y0128080D01*
X0190799Y0128080D01*
X0190400Y0127680D01*
X0190400Y0122379D01*
X0194149Y0118630D01*
X0199451Y0118630D01*
X0203200Y0122379D01*
X0203200Y0127680D01*
X0202657Y0128223D01*
X0210600Y0121227D01*
X0210600Y0117461D01*
X0212694Y0115367D01*
X0210846Y0114751D01*
X0209368Y0116230D01*
X0204232Y0116230D01*
X0200600Y0112598D01*
X0200600Y0107461D01*
X0204232Y0103830D01*
X0209368Y0103830D01*
X0211200Y0105661D01*
X0211200Y0103960D01*
X0214480Y0100680D01*
X0216800Y0100680D01*
X0216800Y0106279D01*
X0216800Y0106279D01*
X0216800Y0106280D01*
X0222400Y0106280D01*
X0222400Y0107743D02*
X0235729Y0107743D01*
X0237061Y0109342D02*
X0221657Y0109342D01*
X0220902Y0110940D02*
X0238393Y0110940D01*
X0239726Y0112539D02*
X0223595Y0112539D01*
X0226200Y0114137D02*
X0242193Y0114137D01*
X0244590Y0115736D02*
X0227194Y0115736D01*
X0228066Y0117334D02*
X0246988Y0117334D01*
X0249386Y0118933D02*
X0228938Y0118933D01*
X0229810Y0120531D02*
X0250600Y0120531D01*
X0250600Y0122130D02*
X0230682Y0122130D01*
X0231553Y0123728D02*
X0251731Y0123728D01*
X0253329Y0125327D02*
X0232425Y0125327D01*
X0233297Y0126925D02*
X0259774Y0126925D01*
X0260271Y0125327D02*
X0260574Y0125327D01*
X0258975Y0128524D02*
X0234169Y0128524D01*
X0235041Y0130122D02*
X0258176Y0130122D01*
X0257377Y0131721D02*
X0235913Y0131721D01*
X0239700Y0133319D02*
X0243900Y0133319D01*
X0243982Y0133237D02*
X0245810Y0132480D01*
X0247790Y0132480D01*
X0249618Y0133237D01*
X0251017Y0134637D01*
X0251775Y0136465D01*
X0251775Y0143594D01*
X0251017Y0145422D01*
X0249618Y0146822D01*
X0247790Y0147579D01*
X0245810Y0147579D01*
X0243982Y0146822D01*
X0242583Y0145422D01*
X0241825Y0143594D01*
X0241825Y0136465D01*
X0242583Y0134637D01*
X0243982Y0133237D01*
X0242466Y0134918D02*
X0241134Y0134918D01*
X0241775Y0136516D02*
X0241825Y0136516D01*
X0241775Y0138115D02*
X0241825Y0138115D01*
X0241775Y0139713D02*
X0241825Y0139713D01*
X0241775Y0141312D02*
X0241825Y0141312D01*
X0241775Y0142910D02*
X0241825Y0142910D01*
X0242204Y0144509D02*
X0241396Y0144509D01*
X0240332Y0146107D02*
X0243268Y0146107D01*
X0250332Y0146107D02*
X0253268Y0146107D01*
X0252204Y0144509D02*
X0251396Y0144509D01*
X0251775Y0142910D02*
X0251825Y0142910D01*
X0251775Y0141312D02*
X0251825Y0141312D01*
X0251775Y0139713D02*
X0251825Y0139713D01*
X0251775Y0138115D02*
X0251825Y0138115D01*
X0251775Y0136516D02*
X0251825Y0136516D01*
X0252466Y0134918D02*
X0251134Y0134918D01*
X0249700Y0133319D02*
X0253900Y0133319D01*
X0261775Y0138115D02*
X0261825Y0138115D01*
X0261775Y0139713D02*
X0261825Y0139713D01*
X0261775Y0141312D02*
X0261825Y0141312D01*
X0261775Y0142910D02*
X0261825Y0142910D01*
X0262204Y0144509D02*
X0261396Y0144509D01*
X0260332Y0146107D02*
X0263268Y0146107D01*
X0270332Y0146107D02*
X0274179Y0146107D01*
X0273950Y0145941D02*
X0274507Y0146346D01*
X0275121Y0146659D01*
X0275776Y0146871D01*
X0276456Y0146979D01*
X0276800Y0146979D01*
X0276800Y0140030D01*
X0276800Y0146979D01*
X0277144Y0146979D01*
X0277824Y0146871D01*
X0278479Y0146659D01*
X0279093Y0146346D01*
X0279650Y0145941D01*
X0280137Y0145454D01*
X0280542Y0144897D01*
X0280854Y0144284D01*
X0281067Y0143629D01*
X0281175Y0142949D01*
X0281175Y0140030D01*
X0276800Y0140030D01*
X0276800Y0140030D01*
X0276800Y0140029D01*
X0276800Y0133080D01*
X0277144Y0133080D01*
X0277824Y0133188D01*
X0278479Y0133400D01*
X0279093Y0133713D01*
X0279650Y0134118D01*
X0280137Y0134605D01*
X0280542Y0135162D01*
X0280854Y0135775D01*
X0281067Y0136430D01*
X0281175Y0137110D01*
X0281175Y0140029D01*
X0276800Y0140029D01*
X0276800Y0140029D01*
X0276800Y0133080D01*
X0276456Y0133080D01*
X0275776Y0133188D01*
X0275121Y0133400D01*
X0274507Y0133713D01*
X0273950Y0134118D01*
X0273463Y0134605D01*
X0273058Y0135162D01*
X0272746Y0135775D01*
X0272533Y0136430D01*
X0272425Y0137110D01*
X0272425Y0140029D01*
X0276800Y0140029D01*
X0276800Y0140030D01*
X0272425Y0140030D01*
X0272425Y0142949D01*
X0272533Y0143629D01*
X0272746Y0144284D01*
X0273058Y0144897D01*
X0273463Y0145454D01*
X0273950Y0145941D01*
X0272860Y0144509D02*
X0271396Y0144509D01*
X0271775Y0142910D02*
X0272425Y0142910D01*
X0272425Y0141312D02*
X0271775Y0141312D01*
X0271775Y0139713D02*
X0272425Y0139713D01*
X0272425Y0138115D02*
X0271775Y0138115D01*
X0271775Y0136516D02*
X0272519Y0136516D01*
X0273236Y0134918D02*
X0271134Y0134918D01*
X0269700Y0133319D02*
X0275370Y0133319D01*
X0276800Y0133319D02*
X0276800Y0133319D01*
X0278230Y0133319D02*
X0283900Y0133319D01*
X0283982Y0133237D02*
X0285810Y0132480D01*
X0287790Y0132480D01*
X0289618Y0133237D01*
X0291017Y0134637D01*
X0291775Y0136465D01*
X0291775Y0143594D01*
X0291017Y0145422D01*
X0289618Y0146822D01*
X0287790Y0147579D01*
X0285810Y0147579D01*
X0283982Y0146822D01*
X0282583Y0145422D01*
X0281825Y0143594D01*
X0281825Y0136465D01*
X0282583Y0134637D01*
X0283982Y0133237D01*
X0282466Y0134918D02*
X0280364Y0134918D01*
X0281081Y0136516D02*
X0281825Y0136516D01*
X0281825Y0138115D02*
X0281175Y0138115D01*
X0281175Y0139713D02*
X0281825Y0139713D01*
X0281825Y0141312D02*
X0281175Y0141312D01*
X0281175Y0142910D02*
X0281825Y0142910D01*
X0282204Y0144509D02*
X0280740Y0144509D01*
X0279421Y0146107D02*
X0283268Y0146107D01*
X0290332Y0146107D02*
X0293268Y0146107D01*
X0292583Y0145422D02*
X0293982Y0146822D01*
X0295810Y0147579D01*
X0297790Y0147579D01*
X0299618Y0146822D01*
X0301017Y0145422D01*
X0301775Y0143594D01*
X0301775Y0136465D01*
X0301017Y0134637D01*
X0299618Y0133237D01*
X0297790Y0132480D01*
X0295810Y0132480D01*
X0293982Y0133237D01*
X0292583Y0134637D01*
X0291825Y0136465D01*
X0291825Y0143594D01*
X0292583Y0145422D01*
X0292204Y0144509D02*
X0291396Y0144509D01*
X0291775Y0142910D02*
X0291825Y0142910D01*
X0291775Y0141312D02*
X0291825Y0141312D01*
X0291775Y0139713D02*
X0291825Y0139713D01*
X0291775Y0138115D02*
X0291825Y0138115D01*
X0291775Y0136516D02*
X0291825Y0136516D01*
X0292466Y0134918D02*
X0291134Y0134918D01*
X0289700Y0133319D02*
X0293900Y0133319D01*
X0294149Y0131430D02*
X0290400Y0127680D01*
X0290400Y0122379D01*
X0294149Y0118630D01*
X0299451Y0118630D01*
X0303200Y0122379D01*
X0303200Y0127680D01*
X0299451Y0131430D01*
X0294149Y0131430D01*
X0292842Y0130122D02*
X0279910Y0130122D01*
X0279202Y0130830D02*
X0276800Y0130830D01*
X0274398Y0130830D01*
X0271000Y0127432D01*
X0271000Y0125030D01*
X0276800Y0125030D01*
X0276800Y0130830D01*
X0276800Y0125030D01*
X0276800Y0125030D01*
X0282600Y0125030D01*
X0282600Y0127432D01*
X0279202Y0130830D01*
X0276800Y0130122D02*
X0276800Y0130122D01*
X0276800Y0128524D02*
X0276800Y0128524D01*
X0276800Y0126925D02*
X0276800Y0126925D01*
X0276800Y0125327D02*
X0276800Y0125327D01*
X0276800Y0125030D02*
X0276800Y0125029D01*
X0276800Y0119230D01*
X0279202Y0119230D01*
X0282600Y0122627D01*
X0282600Y0125029D01*
X0276800Y0125029D01*
X0276800Y0125029D01*
X0276800Y0119230D01*
X0274398Y0119230D01*
X0271000Y0122627D01*
X0271000Y0125029D01*
X0276800Y0125029D01*
X0276800Y0125030D01*
X0276800Y0123728D02*
X0276800Y0123728D01*
X0276800Y0122130D02*
X0276800Y0122130D01*
X0276800Y0120531D02*
X0276800Y0120531D01*
X0280504Y0120531D02*
X0292247Y0120531D01*
X0290649Y0122130D02*
X0282103Y0122130D01*
X0282600Y0123728D02*
X0290400Y0123728D01*
X0290400Y0125327D02*
X0282600Y0125327D01*
X0282600Y0126925D02*
X0290400Y0126925D01*
X0291243Y0128524D02*
X0281508Y0128524D01*
X0273690Y0130122D02*
X0265331Y0130122D01*
X0266131Y0128524D02*
X0272092Y0128524D01*
X0271000Y0126925D02*
X0266930Y0126925D01*
X0267729Y0125327D02*
X0271000Y0125327D01*
X0271000Y0123728D02*
X0268528Y0123728D01*
X0269328Y0122130D02*
X0271497Y0122130D01*
X0270824Y0120531D02*
X0273096Y0120531D01*
X0272422Y0118933D02*
X0293846Y0118933D01*
X0299754Y0118933D02*
X0308846Y0118933D01*
X0309573Y0117334D02*
X0274021Y0117334D01*
X0275619Y0115736D02*
X0308575Y0115736D01*
X0307776Y0114137D02*
X0277218Y0114137D01*
X0278816Y0112539D02*
X0306977Y0112539D01*
X0303943Y0110940D02*
X0279886Y0110940D01*
X0280000Y0109342D02*
X0302344Y0109342D01*
X0300746Y0107743D02*
X0280000Y0107743D01*
X0280000Y0106145D02*
X0300600Y0106145D01*
X0300600Y0104546D02*
X0280000Y0104546D01*
X0280000Y0102948D02*
X0300600Y0102948D01*
X0301712Y0101349D02*
X0280000Y0101349D01*
X0280000Y0099751D02*
X0303311Y0099751D01*
X0310289Y0099751D02*
X0313311Y0099751D01*
X0320289Y0099751D02*
X0353311Y0099751D01*
X0351712Y0101349D02*
X0321888Y0101349D01*
X0323000Y0102948D02*
X0350600Y0102948D01*
X0350600Y0104546D02*
X0323000Y0104546D01*
X0323000Y0106145D02*
X0350600Y0106145D01*
X0350746Y0107743D02*
X0322854Y0107743D01*
X0321256Y0109342D02*
X0351470Y0109342D01*
X0350785Y0110940D02*
X0319657Y0110940D01*
X0318835Y0112539D02*
X0350100Y0112539D01*
X0349415Y0114137D02*
X0319918Y0114137D01*
X0320675Y0115736D02*
X0348730Y0115736D01*
X0348045Y0117334D02*
X0321433Y0117334D01*
X0322190Y0118933D02*
X0347360Y0118933D01*
X0346675Y0120531D02*
X0335504Y0120531D01*
X0337103Y0122130D02*
X0345990Y0122130D01*
X0345305Y0123728D02*
X0337600Y0123728D01*
X0337600Y0125327D02*
X0344620Y0125327D01*
X0343935Y0126925D02*
X0337600Y0126925D01*
X0336508Y0128524D02*
X0343250Y0128524D01*
X0342564Y0130122D02*
X0334910Y0130122D01*
X0331800Y0130122D02*
X0331800Y0130122D01*
X0331800Y0128524D02*
X0331800Y0128524D01*
X0331800Y0126925D02*
X0331800Y0126925D01*
X0331800Y0125327D02*
X0331800Y0125327D01*
X0331800Y0123728D02*
X0331800Y0123728D01*
X0331800Y0122130D02*
X0331800Y0122130D01*
X0331800Y0120531D02*
X0331800Y0120531D01*
X0328096Y0120531D02*
X0322947Y0120531D01*
X0323704Y0122130D02*
X0326497Y0122130D01*
X0326000Y0123728D02*
X0324461Y0123728D01*
X0325218Y0125327D02*
X0326000Y0125327D01*
X0325976Y0126925D02*
X0326000Y0126925D01*
X0326733Y0128524D02*
X0327092Y0128524D01*
X0327490Y0130122D02*
X0328690Y0130122D01*
X0328247Y0131721D02*
X0341879Y0131721D01*
X0341194Y0133319D02*
X0331358Y0133319D01*
X0332956Y0134918D02*
X0340509Y0134918D01*
X0339824Y0136516D02*
X0334250Y0136516D01*
X0334250Y0138115D02*
X0338771Y0138115D01*
X0336107Y0139713D02*
X0334250Y0139713D01*
X0328050Y0138780D02*
X0316800Y0115030D01*
X0311800Y0115030D01*
X0306800Y0105030D01*
X0313333Y0110940D02*
X0313943Y0110940D01*
X0314754Y0118933D02*
X0315108Y0118933D01*
X0307247Y0120531D02*
X0301353Y0120531D01*
X0302951Y0122130D02*
X0305649Y0122130D01*
X0305400Y0123728D02*
X0303200Y0123728D01*
X0303200Y0125327D02*
X0305400Y0125327D01*
X0305400Y0126925D02*
X0303200Y0126925D01*
X0302357Y0128524D02*
X0306243Y0128524D01*
X0307842Y0130122D02*
X0300758Y0130122D01*
X0299700Y0133319D02*
X0321923Y0133319D01*
X0321166Y0131721D02*
X0264532Y0131721D01*
X0263900Y0133319D02*
X0263733Y0133319D01*
X0256800Y0140030D02*
X0266800Y0120030D01*
X0276800Y0110030D01*
X0276800Y0100030D01*
X0266800Y0091280D01*
X0269653Y0085364D02*
X0291911Y0085364D01*
X0290312Y0083766D02*
X0267909Y0083766D01*
X0263550Y0078970D02*
X0239940Y0078970D01*
X0239940Y0080538D02*
X0234711Y0085768D01*
X0227315Y0085768D01*
X0222085Y0080538D01*
X0222085Y0073143D01*
X0227315Y0067913D01*
X0234711Y0067913D01*
X0239940Y0073143D01*
X0239940Y0080538D01*
X0239910Y0080568D02*
X0262271Y0080568D01*
X0260992Y0082167D02*
X0238312Y0082167D01*
X0236713Y0083766D02*
X0259713Y0083766D01*
X0258434Y0085364D02*
X0235115Y0085364D01*
X0226911Y0085364D02*
X0225411Y0085364D01*
X0225312Y0083766D02*
X0224079Y0083766D01*
X0223714Y0082167D02*
X0222747Y0082167D01*
X0222115Y0080568D02*
X0221415Y0080568D01*
X0222085Y0078970D02*
X0220083Y0078970D01*
X0219434Y0077371D02*
X0222085Y0077371D01*
X0222085Y0075773D02*
X0219034Y0075773D01*
X0218635Y0074174D02*
X0222085Y0074174D01*
X0222652Y0072576D02*
X0218235Y0072576D01*
X0217835Y0070977D02*
X0224250Y0070977D01*
X0225849Y0069379D02*
X0217436Y0069379D01*
X0211238Y0070977D02*
X0195600Y0070977D01*
X0195600Y0071629D02*
X0190722Y0076507D01*
X0188072Y0076507D01*
X0188072Y0068979D01*
X0186472Y0068979D01*
X0186472Y0067379D01*
X0178945Y0067379D01*
X0178945Y0064730D01*
X0183823Y0059852D01*
X0186472Y0059852D01*
X0186472Y0067379D01*
X0188072Y0067379D01*
X0188072Y0059852D01*
X0190722Y0059852D01*
X0195600Y0064730D01*
X0195600Y0067379D01*
X0188072Y0067379D01*
X0188072Y0068979D01*
X0195600Y0068979D01*
X0195600Y0071629D01*
X0194653Y0072576D02*
X0211638Y0072576D01*
X0212038Y0074174D02*
X0193054Y0074174D01*
X0191456Y0075773D02*
X0212437Y0075773D01*
X0212837Y0077371D02*
X0174940Y0077371D01*
X0174940Y0075773D02*
X0183089Y0075773D01*
X0183823Y0076507D02*
X0178945Y0071629D01*
X0178945Y0068979D01*
X0186472Y0068979D01*
X0186472Y0076507D01*
X0183823Y0076507D01*
X0186472Y0075773D02*
X0188072Y0075773D01*
X0188072Y0074174D02*
X0186472Y0074174D01*
X0186472Y0072576D02*
X0188072Y0072576D01*
X0188072Y0070977D02*
X0186472Y0070977D01*
X0186472Y0069379D02*
X0188072Y0069379D01*
X0188072Y0067780D02*
X0210439Y0067780D01*
X0210040Y0066182D02*
X0195600Y0066182D01*
X0195454Y0064583D02*
X0209640Y0064583D01*
X0209240Y0062985D02*
X0193855Y0062985D01*
X0192257Y0061386D02*
X0208841Y0061386D01*
X0208441Y0059788D02*
X0004200Y0059788D01*
X0004200Y0061386D02*
X0052288Y0061386D01*
X0053823Y0059852D02*
X0048945Y0064730D01*
X0048945Y0067379D01*
X0056472Y0067379D01*
X0056472Y0068979D01*
X0048945Y0068979D01*
X0048945Y0071629D01*
X0053823Y0076507D01*
X0056472Y0076507D01*
X0056472Y0068979D01*
X0058072Y0068979D01*
X0058072Y0076507D01*
X0060722Y0076507D01*
X0065600Y0071629D01*
X0065600Y0068979D01*
X0058072Y0068979D01*
X0058072Y0067379D01*
X0058072Y0059852D01*
X0060722Y0059852D01*
X0065600Y0064730D01*
X0065600Y0067379D01*
X0058072Y0067379D01*
X0056472Y0067379D01*
X0056472Y0059852D01*
X0053823Y0059852D01*
X0056472Y0061386D02*
X0058072Y0061386D01*
X0058072Y0062985D02*
X0056472Y0062985D01*
X0056472Y0064583D02*
X0058072Y0064583D01*
X0058072Y0066182D02*
X0056472Y0066182D01*
X0056472Y0067780D02*
X0004200Y0067780D01*
X0004200Y0066182D02*
X0048945Y0066182D01*
X0049091Y0064583D02*
X0004200Y0064583D01*
X0004200Y0062985D02*
X0050690Y0062985D01*
X0048945Y0069379D02*
X0041176Y0069379D01*
X0039711Y0067913D02*
X0044940Y0073143D01*
X0044940Y0080538D01*
X0039711Y0085768D01*
X0032315Y0085768D01*
X0027085Y0080538D01*
X0027085Y0073143D01*
X0032315Y0067913D01*
X0039711Y0067913D01*
X0042775Y0070977D02*
X0048945Y0070977D01*
X0049892Y0072576D02*
X0044373Y0072576D01*
X0044940Y0074174D02*
X0051491Y0074174D01*
X0053089Y0075773D02*
X0044940Y0075773D01*
X0044940Y0077371D02*
X0092085Y0077371D01*
X0092085Y0075773D02*
X0061456Y0075773D01*
X0063054Y0074174D02*
X0092085Y0074174D01*
X0092085Y0073143D02*
X0097315Y0067913D01*
X0104711Y0067913D01*
X0109940Y0073143D01*
X0109940Y0080538D01*
X0104711Y0085768D01*
X0097315Y0085768D01*
X0092085Y0080538D01*
X0092085Y0073143D01*
X0092652Y0072576D02*
X0064653Y0072576D01*
X0065600Y0070977D02*
X0094250Y0070977D01*
X0095849Y0069379D02*
X0065600Y0069379D01*
X0065600Y0066182D02*
X0113945Y0066182D01*
X0113945Y0067379D02*
X0113945Y0064730D01*
X0118823Y0059852D01*
X0121472Y0059852D01*
X0121472Y0067379D01*
X0113945Y0067379D01*
X0113945Y0068979D02*
X0121472Y0068979D01*
X0121472Y0067379D01*
X0123072Y0067379D01*
X0123072Y0059852D01*
X0125722Y0059852D01*
X0130600Y0064730D01*
X0130600Y0067379D01*
X0123072Y0067379D01*
X0123072Y0068979D01*
X0121472Y0068979D01*
X0121472Y0076507D01*
X0118823Y0076507D01*
X0113945Y0071629D01*
X0113945Y0068979D01*
X0113945Y0069379D02*
X0106176Y0069379D01*
X0107775Y0070977D02*
X0113945Y0070977D01*
X0114892Y0072576D02*
X0109373Y0072576D01*
X0109940Y0074174D02*
X0116491Y0074174D01*
X0118089Y0075773D02*
X0109940Y0075773D01*
X0109940Y0077371D02*
X0157085Y0077371D01*
X0157085Y0075773D02*
X0126456Y0075773D01*
X0125722Y0076507D02*
X0123072Y0076507D01*
X0123072Y0068979D01*
X0130600Y0068979D01*
X0130600Y0071629D01*
X0125722Y0076507D01*
X0123072Y0075773D02*
X0121472Y0075773D01*
X0121472Y0074174D02*
X0123072Y0074174D01*
X0123072Y0072576D02*
X0121472Y0072576D01*
X0121472Y0070977D02*
X0123072Y0070977D01*
X0123072Y0069379D02*
X0121472Y0069379D01*
X0121472Y0067780D02*
X0058072Y0067780D01*
X0058072Y0069379D02*
X0056472Y0069379D01*
X0056472Y0070977D02*
X0058072Y0070977D01*
X0058072Y0072576D02*
X0056472Y0072576D01*
X0056472Y0074174D02*
X0058072Y0074174D01*
X0058072Y0075773D02*
X0056472Y0075773D01*
X0044940Y0078970D02*
X0092085Y0078970D01*
X0092115Y0080568D02*
X0044910Y0080568D01*
X0043312Y0082167D02*
X0093714Y0082167D01*
X0095312Y0083766D02*
X0041713Y0083766D01*
X0040115Y0085364D02*
X0096911Y0085364D01*
X0099232Y0090080D02*
X0104368Y0090080D01*
X0108000Y0093711D01*
X0108000Y0098848D01*
X0104368Y0102480D01*
X0099232Y0102480D01*
X0095600Y0098848D01*
X0095600Y0093711D01*
X0099232Y0090080D01*
X0099152Y0090160D02*
X0004200Y0090160D01*
X0004200Y0091758D02*
X0058402Y0091758D01*
X0059480Y0090680D02*
X0056200Y0093960D01*
X0056200Y0096279D01*
X0061800Y0096279D01*
X0061800Y0090680D01*
X0064120Y0090680D01*
X0067400Y0093960D01*
X0067400Y0096279D01*
X0061800Y0096279D01*
X0061800Y0096279D01*
X0061800Y0090680D01*
X0059480Y0090680D01*
X0061800Y0091758D02*
X0061800Y0091758D01*
X0061800Y0093357D02*
X0061800Y0093357D01*
X0061800Y0094955D02*
X0061800Y0094955D01*
X0061800Y0096279D02*
X0061800Y0096280D01*
X0061800Y0101880D01*
X0059480Y0101880D01*
X0056200Y0098599D01*
X0056200Y0096280D01*
X0061800Y0096280D01*
X0061800Y0096280D01*
X0061800Y0101880D01*
X0064120Y0101880D01*
X0067400Y0098599D01*
X0067400Y0096280D01*
X0061800Y0096280D01*
X0061800Y0096279D01*
X0061800Y0096554D02*
X0061800Y0096554D01*
X0061800Y0098152D02*
X0061800Y0098152D01*
X0061800Y0099751D02*
X0061800Y0099751D01*
X0061800Y0101349D02*
X0061800Y0101349D01*
X0064650Y0101349D02*
X0098102Y0101349D01*
X0096503Y0099751D02*
X0066248Y0099751D01*
X0067400Y0098152D02*
X0095600Y0098152D01*
X0095600Y0096554D02*
X0067400Y0096554D01*
X0067400Y0094955D02*
X0095600Y0094955D01*
X0095955Y0093357D02*
X0066797Y0093357D01*
X0065198Y0091758D02*
X0097553Y0091758D01*
X0104448Y0090160D02*
X0152902Y0090160D01*
X0152982Y0090080D02*
X0158118Y0090080D01*
X0161175Y0093136D01*
X0164232Y0090080D01*
X0169368Y0090080D01*
X0173000Y0093711D01*
X0173000Y0098848D01*
X0169368Y0102480D01*
X0164232Y0102480D01*
X0161175Y0099423D01*
X0158118Y0102480D01*
X0152982Y0102480D01*
X0149350Y0098848D01*
X0149350Y0093711D01*
X0152982Y0090080D01*
X0151303Y0091758D02*
X0118948Y0091758D01*
X0117870Y0090680D02*
X0121150Y0093960D01*
X0121150Y0096279D01*
X0115550Y0096279D01*
X0115550Y0090680D01*
X0117870Y0090680D01*
X0115550Y0090680D02*
X0115550Y0096279D01*
X0115550Y0096279D01*
X0109950Y0096279D01*
X0109950Y0093960D01*
X0113230Y0090680D01*
X0115550Y0090680D01*
X0115550Y0091758D02*
X0115550Y0091758D01*
X0115550Y0093357D02*
X0115550Y0093357D01*
X0115550Y0094955D02*
X0115550Y0094955D01*
X0115550Y0096279D02*
X0115550Y0096280D01*
X0115550Y0101880D01*
X0113230Y0101880D01*
X0109950Y0098599D01*
X0109950Y0096280D01*
X0115550Y0096280D01*
X0115550Y0096280D01*
X0115550Y0101880D01*
X0117870Y0101880D01*
X0121150Y0098599D01*
X0121150Y0096280D01*
X0115550Y0096280D01*
X0115550Y0096279D01*
X0115550Y0096554D02*
X0115550Y0096554D01*
X0115550Y0098152D02*
X0115550Y0098152D01*
X0115550Y0099751D02*
X0115550Y0099751D01*
X0115550Y0101349D02*
X0115550Y0101349D01*
X0118400Y0101349D02*
X0151852Y0101349D01*
X0150253Y0099751D02*
X0119998Y0099751D01*
X0121150Y0098152D02*
X0149350Y0098152D01*
X0149350Y0096554D02*
X0121150Y0096554D01*
X0121150Y0094955D02*
X0149350Y0094955D01*
X0149705Y0093357D02*
X0120547Y0093357D01*
X0112152Y0091758D02*
X0106047Y0091758D01*
X0107645Y0093357D02*
X0110553Y0093357D01*
X0109950Y0094955D02*
X0108000Y0094955D01*
X0108000Y0096554D02*
X0109950Y0096554D01*
X0109950Y0098152D02*
X0108000Y0098152D01*
X0107097Y0099751D02*
X0111102Y0099751D01*
X0112700Y0101349D02*
X0105498Y0101349D01*
X0105085Y0104546D02*
X0112265Y0104546D01*
X0110667Y0106145D02*
X0106683Y0106145D01*
X0108000Y0107743D02*
X0109350Y0107743D01*
X0109350Y0109342D02*
X0108000Y0109342D01*
X0108000Y0110940D02*
X0109350Y0110940D01*
X0108515Y0112539D02*
X0108000Y0112539D01*
X0106917Y0114137D02*
X0106460Y0114137D01*
X0108050Y0117530D02*
X0099300Y0117530D01*
X0094300Y0122530D01*
X0094300Y0132530D01*
X0103050Y0137530D01*
X0101800Y0140030D01*
X0101800Y0165030D01*
X0093050Y0173780D01*
X0093050Y0177530D01*
X0091800Y0183780D01*
X0088050Y0195030D01*
X0094450Y0195661D02*
X0095400Y0195661D01*
X0095400Y0194063D02*
X0094450Y0194063D01*
X0094450Y0192464D02*
X0095400Y0192464D01*
X0095400Y0192379D02*
X0099149Y0188630D01*
X0104451Y0188630D01*
X0108200Y0192379D01*
X0108200Y0197680D01*
X0104451Y0201430D01*
X0099149Y0201430D01*
X0095400Y0197680D01*
X0095400Y0192379D01*
X0096913Y0190866D02*
X0092937Y0190866D01*
X0093344Y0189267D02*
X0098511Y0189267D01*
X0093877Y0187669D02*
X0107414Y0187669D01*
X0107382Y0187637D02*
X0107249Y0187567D01*
X0106935Y0187190D01*
X0106587Y0186842D01*
X0106530Y0186704D01*
X0104051Y0183730D01*
X0100482Y0183730D01*
X0096850Y0180098D01*
X0096850Y0174961D01*
X0100482Y0171330D01*
X0105618Y0171330D01*
X0109250Y0174961D01*
X0109250Y0179971D01*
X0110799Y0181830D01*
X0112332Y0181830D01*
X0110600Y0180098D01*
X0110600Y0174961D01*
X0114232Y0171330D01*
X0119368Y0171330D01*
X0123000Y0174961D01*
X0123000Y0180098D01*
X0121268Y0181830D01*
X0170475Y0181830D01*
X0177377Y0174927D01*
X0176825Y0173594D01*
X0176825Y0166465D01*
X0177583Y0164637D01*
X0178982Y0163237D01*
X0180810Y0162480D01*
X0182790Y0162480D01*
X0184618Y0163237D01*
X0186017Y0164637D01*
X0186775Y0166465D01*
X0186775Y0173594D01*
X0186017Y0175422D01*
X0184618Y0176822D01*
X0184473Y0176882D01*
X0183613Y0177742D01*
X0173613Y0187742D01*
X0172437Y0188230D01*
X0109787Y0188230D01*
X0109644Y0188274D01*
X0109155Y0188230D01*
X0108663Y0188230D01*
X0108525Y0188172D01*
X0108376Y0188159D01*
X0107941Y0187930D01*
X0107487Y0187742D01*
X0107382Y0187637D01*
X0106002Y0186070D02*
X0094410Y0186070D01*
X0094942Y0184472D02*
X0104670Y0184472D01*
X0109300Y0185030D02*
X0171800Y0185030D01*
X0181800Y0175030D01*
X0181800Y0170030D01*
X0186775Y0170085D02*
X0186825Y0170085D01*
X0186775Y0168487D02*
X0186825Y0168487D01*
X0186775Y0166888D02*
X0186825Y0166888D01*
X0187312Y0165290D02*
X0186288Y0165290D01*
X0185072Y0163691D02*
X0188528Y0163691D01*
X0190228Y0162093D02*
X0105000Y0162093D01*
X0105000Y0163691D02*
X0129550Y0163691D01*
X0129507Y0163713D02*
X0130121Y0163400D01*
X0130776Y0163188D01*
X0131456Y0163080D01*
X0131800Y0163080D01*
X0132144Y0163080D01*
X0132824Y0163188D01*
X0133479Y0163400D01*
X0134093Y0163713D01*
X0134650Y0164118D01*
X0135137Y0164605D01*
X0135542Y0165162D01*
X0135854Y0165775D01*
X0136067Y0166430D01*
X0136175Y0167110D01*
X0136175Y0170029D01*
X0131800Y0170029D01*
X0131800Y0163080D01*
X0131800Y0170029D01*
X0131800Y0170029D01*
X0131800Y0170030D01*
X0131800Y0176979D01*
X0131800Y0170030D01*
X0131800Y0170030D01*
X0136175Y0170030D01*
X0136175Y0172949D01*
X0136067Y0173629D01*
X0135854Y0174284D01*
X0135542Y0174897D01*
X0135137Y0175454D01*
X0134650Y0175941D01*
X0134093Y0176346D01*
X0133479Y0176659D01*
X0132824Y0176871D01*
X0132144Y0176979D01*
X0131800Y0176979D01*
X0131456Y0176979D01*
X0130776Y0176871D01*
X0130121Y0176659D01*
X0129507Y0176346D01*
X0128950Y0175941D01*
X0128463Y0175454D01*
X0128058Y0174897D01*
X0127746Y0174284D01*
X0127533Y0173629D01*
X0127425Y0172949D01*
X0127425Y0170030D01*
X0131800Y0170030D01*
X0131800Y0170029D01*
X0127425Y0170029D01*
X0127425Y0167110D01*
X0127533Y0166430D01*
X0127746Y0165775D01*
X0128058Y0165162D01*
X0128463Y0164605D01*
X0128950Y0164118D01*
X0129507Y0163713D01*
X0127993Y0165290D02*
X0105000Y0165290D01*
X0104467Y0166888D02*
X0127460Y0166888D01*
X0127425Y0168487D02*
X0102868Y0168487D01*
X0101270Y0170085D02*
X0127425Y0170085D01*
X0127425Y0171684D02*
X0119722Y0171684D01*
X0121321Y0173282D02*
X0127478Y0173282D01*
X0128050Y0174881D02*
X0122919Y0174881D01*
X0123000Y0176479D02*
X0129768Y0176479D01*
X0131800Y0176479D02*
X0131800Y0176479D01*
X0131800Y0174881D02*
X0131800Y0174881D01*
X0131800Y0173282D02*
X0131800Y0173282D01*
X0131800Y0171684D02*
X0131800Y0171684D01*
X0131800Y0170085D02*
X0131800Y0170085D01*
X0131800Y0168487D02*
X0131800Y0168487D01*
X0131800Y0166888D02*
X0131800Y0166888D01*
X0131800Y0165290D02*
X0131800Y0165290D01*
X0131800Y0163691D02*
X0131800Y0163691D01*
X0134050Y0163691D02*
X0138528Y0163691D01*
X0138982Y0163237D02*
X0140810Y0162480D01*
X0142790Y0162480D01*
X0144618Y0163237D01*
X0146017Y0164637D01*
X0146775Y0166465D01*
X0146775Y0173594D01*
X0146017Y0175422D01*
X0144618Y0176822D01*
X0142790Y0177579D01*
X0140810Y0177579D01*
X0138982Y0176822D01*
X0137583Y0175422D01*
X0136825Y0173594D01*
X0136825Y0166465D01*
X0137583Y0164637D01*
X0138982Y0163237D01*
X0137312Y0165290D02*
X0135607Y0165290D01*
X0136140Y0166888D02*
X0136825Y0166888D01*
X0136825Y0168487D02*
X0136175Y0168487D01*
X0136175Y0170085D02*
X0136825Y0170085D01*
X0136825Y0171684D02*
X0136175Y0171684D01*
X0136122Y0173282D02*
X0136825Y0173282D01*
X0137358Y0174881D02*
X0135550Y0174881D01*
X0133832Y0176479D02*
X0138639Y0176479D01*
X0144961Y0176479D02*
X0148639Y0176479D01*
X0148982Y0176822D02*
X0147583Y0175422D01*
X0146825Y0173594D01*
X0146825Y0166465D01*
X0147583Y0164637D01*
X0148982Y0163237D01*
X0150810Y0162480D01*
X0152790Y0162480D01*
X0154618Y0163237D01*
X0156017Y0164637D01*
X0156775Y0166465D01*
X0156775Y0173594D01*
X0156017Y0175422D01*
X0154618Y0176822D01*
X0152790Y0177579D01*
X0150810Y0177579D01*
X0148982Y0176822D01*
X0147358Y0174881D02*
X0146242Y0174881D01*
X0146775Y0173282D02*
X0146825Y0173282D01*
X0146775Y0171684D02*
X0146825Y0171684D01*
X0146775Y0170085D02*
X0146825Y0170085D01*
X0146775Y0168487D02*
X0146825Y0168487D01*
X0146775Y0166888D02*
X0146825Y0166888D01*
X0147312Y0165290D02*
X0146288Y0165290D01*
X0145072Y0163691D02*
X0148528Y0163691D01*
X0155072Y0163691D02*
X0158528Y0163691D01*
X0158982Y0163237D02*
X0160810Y0162480D01*
X0162790Y0162480D01*
X0164618Y0163237D01*
X0166017Y0164637D01*
X0166775Y0166465D01*
X0166775Y0173594D01*
X0166017Y0175422D01*
X0164618Y0176822D01*
X0162790Y0177579D01*
X0160810Y0177579D01*
X0158982Y0176822D01*
X0157583Y0175422D01*
X0156825Y0173594D01*
X0156825Y0166465D01*
X0157583Y0164637D01*
X0158982Y0163237D01*
X0157312Y0165290D02*
X0156288Y0165290D01*
X0156775Y0166888D02*
X0156825Y0166888D01*
X0156775Y0168487D02*
X0156825Y0168487D01*
X0156775Y0170085D02*
X0156825Y0170085D01*
X0156775Y0171684D02*
X0156825Y0171684D01*
X0156775Y0173282D02*
X0156825Y0173282D01*
X0157358Y0174881D02*
X0156242Y0174881D01*
X0154961Y0176479D02*
X0158639Y0176479D01*
X0164961Y0176479D02*
X0169768Y0176479D01*
X0169507Y0176346D02*
X0168950Y0175941D01*
X0168463Y0175454D01*
X0168058Y0174897D01*
X0167746Y0174284D01*
X0167533Y0173629D01*
X0167425Y0172949D01*
X0167425Y0170030D01*
X0171800Y0170030D01*
X0171800Y0176979D01*
X0171800Y0170030D01*
X0171800Y0170030D01*
X0176175Y0170030D01*
X0176175Y0172949D01*
X0176067Y0173629D01*
X0175854Y0174284D01*
X0175542Y0174897D01*
X0175137Y0175454D01*
X0174650Y0175941D01*
X0174093Y0176346D01*
X0173479Y0176659D01*
X0172824Y0176871D01*
X0172144Y0176979D01*
X0171800Y0176979D01*
X0171456Y0176979D01*
X0170776Y0176871D01*
X0170121Y0176659D01*
X0169507Y0176346D01*
X0168050Y0174881D02*
X0166242Y0174881D01*
X0166775Y0173282D02*
X0167478Y0173282D01*
X0167425Y0171684D02*
X0166775Y0171684D01*
X0166775Y0170085D02*
X0167425Y0170085D01*
X0167425Y0170029D02*
X0167425Y0167110D01*
X0167533Y0166430D01*
X0167746Y0165775D01*
X0168058Y0165162D01*
X0168463Y0164605D01*
X0168950Y0164118D01*
X0169507Y0163713D01*
X0170121Y0163400D01*
X0170776Y0163188D01*
X0171456Y0163080D01*
X0171800Y0163080D01*
X0172144Y0163080D01*
X0172824Y0163188D01*
X0173479Y0163400D01*
X0174093Y0163713D01*
X0174650Y0164118D01*
X0175137Y0164605D01*
X0175542Y0165162D01*
X0175854Y0165775D01*
X0176067Y0166430D01*
X0176175Y0167110D01*
X0176175Y0170029D01*
X0171800Y0170029D01*
X0171800Y0163080D01*
X0171800Y0170029D01*
X0171800Y0170029D01*
X0171800Y0170030D01*
X0171800Y0170029D01*
X0167425Y0170029D01*
X0167425Y0168487D02*
X0166775Y0168487D01*
X0166775Y0166888D02*
X0167460Y0166888D01*
X0167993Y0165290D02*
X0166288Y0165290D01*
X0165072Y0163691D02*
X0169550Y0163691D01*
X0171800Y0163691D02*
X0171800Y0163691D01*
X0171800Y0165290D02*
X0171800Y0165290D01*
X0171800Y0166888D02*
X0171800Y0166888D01*
X0171800Y0168487D02*
X0171800Y0168487D01*
X0171800Y0170085D02*
X0171800Y0170085D01*
X0171800Y0171684D02*
X0171800Y0171684D01*
X0171800Y0173282D02*
X0171800Y0173282D01*
X0171800Y0174881D02*
X0171800Y0174881D01*
X0171800Y0176479D02*
X0171800Y0176479D01*
X0173832Y0176479D02*
X0175825Y0176479D01*
X0175550Y0174881D02*
X0177358Y0174881D01*
X0176825Y0173282D02*
X0176122Y0173282D01*
X0176175Y0171684D02*
X0176825Y0171684D01*
X0176825Y0170085D02*
X0176175Y0170085D01*
X0176175Y0168487D02*
X0176825Y0168487D01*
X0176825Y0166888D02*
X0176140Y0166888D01*
X0175607Y0165290D02*
X0177312Y0165290D01*
X0178528Y0163691D02*
X0174050Y0163691D01*
X0186775Y0171684D02*
X0186825Y0171684D01*
X0186775Y0173282D02*
X0186825Y0173282D01*
X0187358Y0174881D02*
X0186242Y0174881D01*
X0185825Y0176479D02*
X0184961Y0176479D01*
X0184226Y0178078D02*
X0183277Y0178078D01*
X0182628Y0179676D02*
X0181679Y0179676D01*
X0181029Y0181275D02*
X0180080Y0181275D01*
X0179431Y0182873D02*
X0178482Y0182873D01*
X0177832Y0184472D02*
X0176883Y0184472D01*
X0176234Y0186070D02*
X0175285Y0186070D01*
X0174635Y0187669D02*
X0173686Y0187669D01*
X0173037Y0189267D02*
X0105089Y0189267D01*
X0106687Y0190866D02*
X0172350Y0190866D01*
X0171955Y0192464D02*
X0108200Y0192464D01*
X0108200Y0194063D02*
X0171556Y0194063D01*
X0169900Y0195661D02*
X0136200Y0195661D01*
X0135618Y0195080D02*
X0139250Y0198711D01*
X0139250Y0203848D01*
X0135618Y0207480D01*
X0130482Y0207480D01*
X0126850Y0203848D01*
X0126850Y0198711D01*
X0130482Y0195080D01*
X0135618Y0195080D01*
X0137798Y0197260D02*
X0168302Y0197260D01*
X0166850Y0198858D02*
X0139250Y0198858D01*
X0139250Y0200457D02*
X0166850Y0200457D01*
X0166850Y0202055D02*
X0139250Y0202055D01*
X0139250Y0203654D02*
X0166850Y0203654D01*
X0168255Y0205252D02*
X0137845Y0205252D01*
X0136247Y0206851D02*
X0169853Y0206851D01*
X0170730Y0209430D02*
X0167450Y0212710D01*
X0167450Y0215029D01*
X0173050Y0215029D01*
X0173050Y0209430D01*
X0175370Y0209430D01*
X0178650Y0212710D01*
X0178650Y0215029D01*
X0173050Y0215029D01*
X0173050Y0215029D01*
X0173050Y0209430D01*
X0170730Y0209430D01*
X0170112Y0210048D02*
X0136836Y0210048D01*
X0135618Y0208830D02*
X0139250Y0212461D01*
X0139250Y0217598D01*
X0135618Y0221230D01*
X0130482Y0221230D01*
X0126850Y0217598D01*
X0126850Y0212461D01*
X0130482Y0208830D01*
X0135618Y0208830D01*
X0138435Y0211646D02*
X0168514Y0211646D01*
X0167450Y0213245D02*
X0139250Y0213245D01*
X0139250Y0214843D02*
X0167450Y0214843D01*
X0167450Y0215030D02*
X0173050Y0215030D01*
X0173050Y0220630D01*
X0170730Y0220630D01*
X0167450Y0217349D01*
X0167450Y0215030D01*
X0167450Y0216442D02*
X0139250Y0216442D01*
X0138807Y0218040D02*
X0168141Y0218040D01*
X0169740Y0219639D02*
X0137209Y0219639D01*
X0128891Y0219639D02*
X0105393Y0219639D01*
X0104202Y0220830D02*
X0101800Y0220830D01*
X0099398Y0220830D01*
X0096000Y0217432D01*
X0096000Y0215030D01*
X0101800Y0215030D01*
X0101800Y0220830D01*
X0101800Y0215030D01*
X0101800Y0215030D01*
X0101800Y0215029D01*
X0101800Y0209230D01*
X0104202Y0209230D01*
X0107600Y0212627D01*
X0107600Y0215029D01*
X0101800Y0215029D01*
X0101800Y0215029D01*
X0101800Y0209230D01*
X0099398Y0209230D01*
X0096000Y0212627D01*
X0096000Y0215029D01*
X0101800Y0215029D01*
X0101800Y0215030D01*
X0107600Y0215030D01*
X0107600Y0217432D01*
X0104202Y0220830D01*
X0101800Y0219639D02*
X0101800Y0219639D01*
X0101800Y0218040D02*
X0101800Y0218040D01*
X0101800Y0216442D02*
X0101800Y0216442D01*
X0101800Y0214843D02*
X0101800Y0214843D01*
X0101800Y0213245D02*
X0101800Y0213245D01*
X0101800Y0211646D02*
X0101800Y0211646D01*
X0101800Y0210048D02*
X0101800Y0210048D01*
X0105021Y0210048D02*
X0129263Y0210048D01*
X0127665Y0211646D02*
X0106619Y0211646D01*
X0107600Y0213245D02*
X0126850Y0213245D01*
X0126850Y0214843D02*
X0107600Y0214843D01*
X0107600Y0216442D02*
X0126850Y0216442D01*
X0127293Y0218040D02*
X0106991Y0218040D01*
X0098207Y0219639D02*
X0091643Y0219639D01*
X0090452Y0220830D02*
X0088050Y0220830D01*
X0085648Y0220830D01*
X0082250Y0217432D01*
X0082250Y0215030D01*
X0088050Y0215030D01*
X0088050Y0220830D01*
X0088050Y0215030D01*
X0088050Y0215030D01*
X0088050Y0215029D01*
X0088050Y0209230D01*
X0090452Y0209230D01*
X0093850Y0212627D01*
X0093850Y0215029D01*
X0088050Y0215029D01*
X0088050Y0215029D01*
X0088050Y0209230D01*
X0085648Y0209230D01*
X0082250Y0212627D01*
X0082250Y0215029D01*
X0088050Y0215029D01*
X0088050Y0215030D01*
X0093850Y0215030D01*
X0093850Y0217432D01*
X0090452Y0220830D01*
X0088050Y0219639D02*
X0088050Y0219639D01*
X0088050Y0218040D02*
X0088050Y0218040D01*
X0088050Y0216442D02*
X0088050Y0216442D01*
X0088050Y0214843D02*
X0088050Y0214843D01*
X0088050Y0213245D02*
X0088050Y0213245D01*
X0088050Y0211646D02*
X0088050Y0211646D01*
X0088050Y0210048D02*
X0088050Y0210048D01*
X0091271Y0210048D02*
X0098579Y0210048D01*
X0096981Y0211646D02*
X0092869Y0211646D01*
X0093850Y0213245D02*
X0096000Y0213245D01*
X0096000Y0214843D02*
X0093850Y0214843D01*
X0093850Y0216442D02*
X0096000Y0216442D01*
X0096609Y0218040D02*
X0093241Y0218040D01*
X0084457Y0219639D02*
X0032505Y0219639D01*
X0032746Y0218040D02*
X0082859Y0218040D01*
X0082250Y0216442D02*
X0032987Y0216442D01*
X0033172Y0214843D02*
X0082250Y0214843D01*
X0082250Y0213245D02*
X0032931Y0213245D01*
X0032690Y0211646D02*
X0083231Y0211646D01*
X0084829Y0210048D02*
X0032400Y0210048D01*
X0032471Y0210196D02*
X0032471Y0210196D01*
X0031630Y0208449D02*
X0219359Y0208449D01*
X0218866Y0210048D02*
X0192521Y0210048D01*
X0191702Y0209230D02*
X0195100Y0212627D01*
X0195100Y0215029D01*
X0189300Y0215029D01*
X0189300Y0209230D01*
X0191702Y0209230D01*
X0189300Y0209230D02*
X0189300Y0215029D01*
X0189300Y0215029D01*
X0183500Y0215029D01*
X0183500Y0212627D01*
X0186898Y0209230D01*
X0189300Y0209230D01*
X0189300Y0210048D02*
X0189300Y0210048D01*
X0189300Y0211646D02*
X0189300Y0211646D01*
X0189300Y0213245D02*
X0189300Y0213245D01*
X0189300Y0214843D02*
X0189300Y0214843D01*
X0189300Y0215029D02*
X0189300Y0215030D01*
X0189300Y0220830D01*
X0186898Y0220830D01*
X0183500Y0217432D01*
X0183500Y0215030D01*
X0189300Y0215030D01*
X0189300Y0215030D01*
X0189300Y0220830D01*
X0191702Y0220830D01*
X0195100Y0217432D01*
X0195100Y0215030D01*
X0189300Y0215030D01*
X0189300Y0215029D01*
X0189300Y0216442D02*
X0189300Y0216442D01*
X0189300Y0218040D02*
X0189300Y0218040D01*
X0189300Y0219639D02*
X0189300Y0219639D01*
X0192893Y0219639D02*
X0218751Y0219639D01*
X0219244Y0221237D02*
X0031810Y0221237D01*
X0031040Y0222836D02*
X0219995Y0222836D01*
X0219524Y0222145D02*
X0219524Y0222145D01*
X0221085Y0224435D02*
X0030196Y0224435D01*
X0030350Y0224268D02*
X0030350Y0224268D01*
X0028713Y0226033D02*
X0222175Y0226033D01*
X0222278Y0226184D02*
X0222278Y0226184D01*
X0222278Y0226184D01*
X0218258Y0218040D02*
X0194491Y0218040D01*
X0195100Y0216442D02*
X0218083Y0216442D01*
X0218083Y0214843D02*
X0195100Y0214843D01*
X0195100Y0213245D02*
X0218083Y0213245D01*
X0218373Y0211646D02*
X0194119Y0211646D01*
X0186079Y0210048D02*
X0175988Y0210048D01*
X0177586Y0211646D02*
X0184481Y0211646D01*
X0183500Y0213245D02*
X0178650Y0213245D01*
X0178650Y0214843D02*
X0183500Y0214843D01*
X0183500Y0216442D02*
X0178650Y0216442D01*
X0178650Y0217349D02*
X0175370Y0220630D01*
X0173050Y0220630D01*
X0173050Y0215030D01*
X0173050Y0215030D01*
X0173050Y0215029D01*
X0173050Y0215030D01*
X0178650Y0215030D01*
X0178650Y0217349D01*
X0177959Y0218040D02*
X0184109Y0218040D01*
X0185707Y0219639D02*
X0176360Y0219639D01*
X0173050Y0219639D02*
X0173050Y0219639D01*
X0173050Y0218040D02*
X0173050Y0218040D01*
X0173050Y0216442D02*
X0173050Y0216442D01*
X0173050Y0214843D02*
X0173050Y0214843D01*
X0173050Y0213245D02*
X0173050Y0213245D01*
X0173050Y0211646D02*
X0173050Y0211646D01*
X0173050Y0210048D02*
X0173050Y0210048D01*
X0176247Y0206851D02*
X0220249Y0206851D01*
X0221339Y0205252D02*
X0177845Y0205252D01*
X0179250Y0203654D02*
X0222555Y0203654D01*
X0222278Y0203875D02*
X0222278Y0203875D01*
X0224559Y0202055D02*
X0179250Y0202055D01*
X0179250Y0200457D02*
X0185676Y0200457D01*
X0186649Y0201430D02*
X0182900Y0197680D01*
X0182900Y0192379D01*
X0186649Y0188630D01*
X0191951Y0188630D01*
X0195700Y0192379D01*
X0195700Y0197680D01*
X0191951Y0201430D01*
X0186649Y0201430D01*
X0184078Y0198858D02*
X0179250Y0198858D01*
X0177798Y0197260D02*
X0182900Y0197260D01*
X0182900Y0195661D02*
X0177753Y0195661D01*
X0178153Y0194063D02*
X0182900Y0194063D01*
X0182900Y0192464D02*
X0178891Y0192464D01*
X0180489Y0190866D02*
X0184413Y0190866D01*
X0186011Y0189267D02*
X0182088Y0189267D01*
X0183686Y0187669D02*
X0204350Y0187669D01*
X0204350Y0189267D02*
X0192589Y0189267D01*
X0194187Y0190866D02*
X0205118Y0190866D01*
X0204350Y0190098D02*
X0204350Y0184961D01*
X0207982Y0181330D01*
X0213118Y0181330D01*
X0216750Y0184961D01*
X0216750Y0190098D01*
X0213118Y0193730D01*
X0207982Y0193730D01*
X0204350Y0190098D01*
X0204350Y0186070D02*
X0185285Y0186070D01*
X0186883Y0184472D02*
X0204840Y0184472D01*
X0206438Y0182873D02*
X0188482Y0182873D01*
X0190080Y0181275D02*
X0221183Y0181275D01*
X0221929Y0182873D02*
X0214662Y0182873D01*
X0216260Y0184472D02*
X0222675Y0184472D01*
X0224626Y0186070D02*
X0216750Y0186070D01*
X0216750Y0187669D02*
X0227136Y0187669D01*
X0229646Y0189267D02*
X0216750Y0189267D01*
X0215982Y0190866D02*
X0232156Y0190866D01*
X0234666Y0192464D02*
X0214383Y0192464D01*
X0206717Y0192464D02*
X0195700Y0192464D01*
X0195700Y0194063D02*
X0237176Y0194063D01*
X0239686Y0195661D02*
X0195700Y0195661D01*
X0195700Y0197260D02*
X0256650Y0197260D01*
X0255052Y0198858D02*
X0236327Y0198858D01*
X0235526Y0198675D02*
X0235526Y0198675D01*
X0233084Y0198858D02*
X0194522Y0198858D01*
X0192924Y0200457D02*
X0227042Y0200457D01*
X0226100Y0200827D02*
X0226100Y0200827D01*
X0230651Y0199041D02*
X0230651Y0199041D01*
X0240292Y0199763D02*
X0240292Y0199763D01*
X0241493Y0200457D02*
X0254950Y0200457D01*
X0254950Y0202055D02*
X0244262Y0202055D01*
X0244525Y0202207D02*
X0244525Y0202207D01*
X0245867Y0203654D02*
X0255005Y0203654D01*
X0256603Y0205252D02*
X0247350Y0205252D01*
X0247850Y0205791D02*
X0247850Y0205791D01*
X0248361Y0206851D02*
X0258202Y0206851D01*
X0260550Y0206851D02*
X0260550Y0206851D01*
X0260550Y0205252D02*
X0260550Y0205252D01*
X0260550Y0203654D02*
X0260550Y0203654D01*
X0260550Y0202055D02*
X0260550Y0202055D01*
X0264497Y0205252D02*
X0295755Y0205252D01*
X0294350Y0203848D02*
X0294350Y0198711D01*
X0297982Y0195080D01*
X0303118Y0195080D01*
X0306750Y0198711D01*
X0306750Y0203848D01*
X0303118Y0207480D01*
X0297982Y0207480D01*
X0294350Y0203848D01*
X0294350Y0203654D02*
X0266095Y0203654D01*
X0266150Y0202055D02*
X0294350Y0202055D01*
X0294350Y0200457D02*
X0266150Y0200457D01*
X0266048Y0198858D02*
X0294350Y0198858D01*
X0295802Y0197260D02*
X0264450Y0197260D01*
X0266750Y0189267D02*
X0288428Y0189267D01*
X0288849Y0187669D02*
X0266750Y0187669D01*
X0266750Y0186070D02*
X0289270Y0186070D01*
X0289690Y0184472D02*
X0266260Y0184472D01*
X0263639Y0176479D02*
X0259961Y0176479D01*
X0261242Y0174881D02*
X0262358Y0174881D01*
X0261825Y0173282D02*
X0261775Y0173282D01*
X0261775Y0171684D02*
X0261825Y0171684D01*
X0261775Y0170085D02*
X0261825Y0170085D01*
X0261775Y0168487D02*
X0261825Y0168487D01*
X0261775Y0166888D02*
X0261825Y0166888D01*
X0262312Y0165290D02*
X0261288Y0165290D01*
X0260072Y0163691D02*
X0263528Y0163691D01*
X0270072Y0163691D02*
X0274550Y0163691D01*
X0272993Y0165290D02*
X0271288Y0165290D01*
X0271775Y0166888D02*
X0272460Y0166888D01*
X0272425Y0168487D02*
X0271775Y0168487D01*
X0271775Y0170085D02*
X0272425Y0170085D01*
X0272425Y0171684D02*
X0271775Y0171684D01*
X0271775Y0173282D02*
X0272478Y0173282D01*
X0273050Y0174881D02*
X0271242Y0174881D01*
X0269961Y0176479D02*
X0274768Y0176479D01*
X0278832Y0176479D02*
X0279997Y0176479D01*
X0280550Y0174881D02*
X0280797Y0174881D01*
X0281122Y0173282D02*
X0281596Y0173282D01*
X0281825Y0171684D02*
X0281175Y0171684D01*
X0281175Y0170085D02*
X0281825Y0170085D01*
X0281825Y0168487D02*
X0281175Y0168487D01*
X0281140Y0166888D02*
X0281825Y0166888D01*
X0282312Y0165290D02*
X0280607Y0165290D01*
X0279050Y0163691D02*
X0283528Y0163691D01*
X0290072Y0163691D02*
X0293528Y0163691D01*
X0292312Y0165290D02*
X0291288Y0165290D01*
X0291775Y0166888D02*
X0291825Y0166888D01*
X0291775Y0168487D02*
X0291825Y0168487D01*
X0291775Y0170085D02*
X0291825Y0170085D01*
X0291775Y0171684D02*
X0291825Y0171684D01*
X0291775Y0173282D02*
X0291825Y0173282D01*
X0292214Y0174881D02*
X0291242Y0174881D01*
X0291794Y0176479D02*
X0289961Y0176479D01*
X0291373Y0178078D02*
X0286354Y0178078D01*
X0285554Y0179676D02*
X0290952Y0179676D01*
X0290532Y0181275D02*
X0284755Y0181275D01*
X0283388Y0182873D02*
X0290111Y0182873D01*
X0297150Y0181275D02*
X0321850Y0181275D01*
X0321850Y0181348D02*
X0321850Y0176211D01*
X0325482Y0172580D01*
X0330618Y0172580D01*
X0334250Y0176211D01*
X0334250Y0181348D01*
X0330618Y0184980D01*
X0325482Y0184980D01*
X0321850Y0181348D01*
X0321850Y0179676D02*
X0297570Y0179676D01*
X0297991Y0178078D02*
X0321850Y0178078D01*
X0321850Y0176479D02*
X0299961Y0176479D01*
X0301242Y0174881D02*
X0323181Y0174881D01*
X0324779Y0173282D02*
X0301775Y0173282D01*
X0301775Y0171684D02*
X0353600Y0171684D01*
X0353600Y0170085D02*
X0314947Y0170085D01*
X0314202Y0170830D02*
X0311800Y0170830D01*
X0309398Y0170830D01*
X0306000Y0167432D01*
X0306000Y0165030D01*
X0311800Y0165030D01*
X0311800Y0170830D01*
X0311800Y0165030D01*
X0311800Y0165030D01*
X0311800Y0165029D01*
X0311800Y0159230D01*
X0311800Y0165029D01*
X0311800Y0165029D01*
X0306000Y0165029D01*
X0306000Y0162627D01*
X0309398Y0159230D01*
X0311800Y0159230D01*
X0314202Y0159230D01*
X0317600Y0162627D01*
X0317600Y0165029D01*
X0311800Y0165029D01*
X0311800Y0165030D01*
X0317600Y0165030D01*
X0317600Y0167432D01*
X0314202Y0170830D01*
X0311800Y0170085D02*
X0311800Y0170085D01*
X0311800Y0168487D02*
X0311800Y0168487D01*
X0311800Y0166888D02*
X0311800Y0166888D01*
X0311800Y0165290D02*
X0311800Y0165290D01*
X0311800Y0163691D02*
X0311800Y0163691D01*
X0311800Y0162093D02*
X0311800Y0162093D01*
X0311800Y0160494D02*
X0311800Y0160494D01*
X0315467Y0160494D02*
X0335774Y0160494D01*
X0335079Y0162093D02*
X0317065Y0162093D01*
X0317600Y0163691D02*
X0334850Y0163691D01*
X0335006Y0165290D02*
X0317600Y0165290D01*
X0317600Y0166888D02*
X0335668Y0166888D01*
X0337196Y0168487D02*
X0316545Y0168487D01*
X0308653Y0170085D02*
X0301775Y0170085D01*
X0301775Y0168487D02*
X0307055Y0168487D01*
X0306000Y0166888D02*
X0301775Y0166888D01*
X0301753Y0165290D02*
X0306000Y0165290D01*
X0306000Y0163691D02*
X0302286Y0163691D01*
X0302819Y0162093D02*
X0306535Y0162093D01*
X0308133Y0160494D02*
X0303352Y0160494D01*
X0303884Y0158896D02*
X0337446Y0158896D01*
X0343654Y0158896D02*
X0348221Y0158896D01*
X0346623Y0160494D02*
X0345326Y0160494D01*
X0350550Y0160494D02*
X0350550Y0160494D01*
X0350550Y0158896D02*
X0350550Y0158896D01*
X0352878Y0158896D02*
X0353600Y0158896D01*
X0353600Y0157297D02*
X0319240Y0157297D01*
X0321905Y0155699D02*
X0353600Y0155699D01*
X0353600Y0154100D02*
X0324569Y0154100D01*
X0327233Y0152502D02*
X0353600Y0152502D01*
X0353600Y0150903D02*
X0329897Y0150903D01*
X0332561Y0149304D02*
X0353600Y0149304D01*
X0353600Y0147706D02*
X0335226Y0147706D01*
X0337890Y0146107D02*
X0353600Y0146107D01*
X0353600Y0144509D02*
X0340554Y0144509D01*
X0343218Y0142910D02*
X0353600Y0142910D01*
X0353600Y0141312D02*
X0344778Y0141312D01*
X0345417Y0139713D02*
X0353600Y0139713D01*
X0353600Y0138115D02*
X0346102Y0138115D01*
X0346787Y0136516D02*
X0353600Y0136516D01*
X0353584Y0134918D02*
X0347472Y0134918D01*
X0348157Y0133319D02*
X0353997Y0133319D01*
X0354530Y0131721D02*
X0348842Y0131721D01*
X0349527Y0130122D02*
X0355063Y0130122D01*
X0355595Y0128524D02*
X0350212Y0128524D01*
X0350898Y0126925D02*
X0356128Y0126925D01*
X0356661Y0125327D02*
X0351583Y0125327D01*
X0352268Y0123728D02*
X0357194Y0123728D01*
X0357727Y0122130D02*
X0352953Y0122130D01*
X0353638Y0120531D02*
X0358260Y0120531D01*
X0358792Y0118933D02*
X0354323Y0118933D01*
X0355008Y0117334D02*
X0359325Y0117334D01*
X0359858Y0115736D02*
X0355693Y0115736D01*
X0356378Y0114137D02*
X0360391Y0114137D01*
X0360924Y0112539D02*
X0357063Y0112539D01*
X0359657Y0110940D02*
X0361457Y0110940D01*
X0361256Y0109342D02*
X0361990Y0109342D01*
X0363000Y0106145D02*
X0363055Y0106145D01*
X0363000Y0104546D02*
X0363434Y0104546D01*
X0363106Y0102948D02*
X0363000Y0102948D01*
X0362778Y0101349D02*
X0361888Y0101349D01*
X0362449Y0099751D02*
X0360289Y0099751D01*
X0356800Y0105030D02*
X0341800Y0140030D01*
X0316800Y0155030D01*
X0301800Y0155030D01*
X0296800Y0170030D01*
X0290550Y0193780D01*
X0242688Y0193780D01*
X0225417Y0182780D01*
X0221800Y0175030D01*
X0215600Y0174881D02*
X0211915Y0174881D01*
X0210981Y0176479D02*
X0215600Y0176479D01*
X0216080Y0178078D02*
X0210654Y0178078D01*
X0206800Y0175030D02*
X0215383Y0167732D01*
X0224017Y0168050D01*
X0236170Y0180030D01*
X0281800Y0180030D01*
X0286800Y0170030D01*
X0276800Y0168487D02*
X0276800Y0168487D01*
X0276800Y0166888D02*
X0276800Y0166888D01*
X0276800Y0165290D02*
X0276800Y0165290D01*
X0276800Y0163691D02*
X0276800Y0163691D01*
X0296073Y0162093D02*
X0211950Y0162093D01*
X0211950Y0163691D02*
X0234550Y0163691D01*
X0232993Y0165290D02*
X0225724Y0165290D01*
X0227397Y0166888D02*
X0232460Y0166888D01*
X0232425Y0168487D02*
X0229018Y0168487D01*
X0230640Y0170085D02*
X0232425Y0170085D01*
X0232425Y0171684D02*
X0232262Y0171684D01*
X0236800Y0168487D02*
X0236800Y0168487D01*
X0236800Y0166888D02*
X0236800Y0166888D01*
X0236800Y0165290D02*
X0236800Y0165290D01*
X0236800Y0163691D02*
X0236800Y0163691D01*
X0239050Y0163691D02*
X0243528Y0163691D01*
X0242312Y0165290D02*
X0240607Y0165290D01*
X0241140Y0166888D02*
X0241825Y0166888D01*
X0241825Y0168487D02*
X0241175Y0168487D01*
X0241175Y0170085D02*
X0241825Y0170085D01*
X0241825Y0171684D02*
X0241175Y0171684D01*
X0241122Y0173282D02*
X0241825Y0173282D01*
X0242358Y0174881D02*
X0240550Y0174881D01*
X0238832Y0176479D02*
X0243639Y0176479D01*
X0249961Y0176479D02*
X0253639Y0176479D01*
X0252358Y0174881D02*
X0251242Y0174881D01*
X0251775Y0173282D02*
X0251825Y0173282D01*
X0251775Y0171684D02*
X0251825Y0171684D01*
X0251775Y0170085D02*
X0251825Y0170085D01*
X0251775Y0168487D02*
X0251825Y0168487D01*
X0251775Y0166888D02*
X0251825Y0166888D01*
X0252312Y0165290D02*
X0251288Y0165290D01*
X0250072Y0163691D02*
X0253528Y0163691D01*
X0233268Y0146107D02*
X0211350Y0146107D01*
X0211350Y0146182D02*
X0207952Y0149580D01*
X0205550Y0149580D01*
X0205550Y0143780D01*
X0205550Y0143780D01*
X0211350Y0143780D01*
X0211350Y0146182D01*
X0211350Y0144509D02*
X0232204Y0144509D01*
X0231825Y0142910D02*
X0211350Y0142910D01*
X0211285Y0141312D02*
X0231825Y0141312D01*
X0231825Y0139713D02*
X0225884Y0139713D01*
X0224368Y0141230D02*
X0219232Y0141230D01*
X0215600Y0137598D01*
X0215600Y0132461D01*
X0219232Y0128830D01*
X0224368Y0128830D01*
X0228000Y0132461D01*
X0228000Y0137598D01*
X0224368Y0141230D01*
X0227483Y0138115D02*
X0231825Y0138115D01*
X0231239Y0136516D02*
X0228000Y0136516D01*
X0228000Y0134918D02*
X0230367Y0134918D01*
X0229495Y0133319D02*
X0228000Y0133319D01*
X0228623Y0131721D02*
X0227259Y0131721D01*
X0227751Y0130122D02*
X0225661Y0130122D01*
X0226879Y0128524D02*
X0211998Y0128524D01*
X0210184Y0130122D02*
X0217939Y0130122D01*
X0216341Y0131721D02*
X0208369Y0131721D01*
X0206554Y0133319D02*
X0215600Y0133319D01*
X0215600Y0134918D02*
X0204740Y0134918D01*
X0202925Y0136516D02*
X0215600Y0136516D01*
X0216117Y0138115D02*
X0208088Y0138115D01*
X0209686Y0139713D02*
X0217716Y0139713D01*
X0209826Y0147706D02*
X0305425Y0147706D01*
X0305400Y0147680D02*
X0305400Y0142379D01*
X0309149Y0138630D01*
X0314451Y0138630D01*
X0318200Y0142379D01*
X0318200Y0147680D01*
X0314451Y0151430D01*
X0309149Y0151430D01*
X0305400Y0147680D01*
X0305400Y0146107D02*
X0300332Y0146107D01*
X0301396Y0144509D02*
X0305400Y0144509D01*
X0305400Y0142910D02*
X0301775Y0142910D01*
X0301775Y0141312D02*
X0306467Y0141312D01*
X0308065Y0139713D02*
X0301775Y0139713D01*
X0301775Y0138115D02*
X0321850Y0138115D01*
X0321850Y0139713D02*
X0315535Y0139713D01*
X0317133Y0141312D02*
X0321850Y0141312D01*
X0323413Y0142910D02*
X0318200Y0142910D01*
X0318200Y0144509D02*
X0325011Y0144509D01*
X0325450Y0146107D02*
X0318200Y0146107D01*
X0318175Y0147706D02*
X0322786Y0147706D01*
X0320122Y0149304D02*
X0316576Y0149304D01*
X0317458Y0150903D02*
X0314977Y0150903D01*
X0308623Y0150903D02*
X0199171Y0150903D01*
X0198829Y0152502D02*
X0299757Y0152502D01*
X0298721Y0154100D02*
X0198486Y0154100D01*
X0198144Y0155699D02*
X0298204Y0155699D01*
X0297671Y0157297D02*
X0197801Y0157297D01*
X0197458Y0158896D02*
X0201383Y0158896D01*
X0199784Y0160494D02*
X0197116Y0160494D01*
X0196773Y0162093D02*
X0199150Y0162093D01*
X0199150Y0163691D02*
X0196431Y0163691D01*
X0196288Y0165290D02*
X0199150Y0165290D01*
X0199608Y0166888D02*
X0196775Y0166888D01*
X0196775Y0168487D02*
X0201206Y0168487D01*
X0202805Y0170085D02*
X0196775Y0170085D01*
X0196775Y0171684D02*
X0203190Y0171684D01*
X0202619Y0173282D02*
X0196775Y0173282D01*
X0196242Y0174881D02*
X0202619Y0174881D01*
X0202619Y0176479D02*
X0194961Y0176479D01*
X0193277Y0178078D02*
X0202946Y0178078D01*
X0191679Y0179676D02*
X0217679Y0179676D01*
X0215600Y0173282D02*
X0213796Y0173282D01*
X0215676Y0171684D02*
X0216378Y0171684D01*
X0213311Y0165290D02*
X0211950Y0165290D01*
X0211315Y0160494D02*
X0296605Y0160494D01*
X0297138Y0158896D02*
X0209717Y0158896D01*
X0208227Y0149304D02*
X0307024Y0149304D01*
X0301775Y0136516D02*
X0321850Y0136516D01*
X0322680Y0134918D02*
X0301134Y0134918D01*
X0315758Y0130122D02*
X0320408Y0130122D01*
X0319651Y0128524D02*
X0317357Y0128524D01*
X0318200Y0126925D02*
X0318894Y0126925D01*
X0276800Y0134918D02*
X0276800Y0134918D01*
X0276800Y0136516D02*
X0276800Y0136516D01*
X0276800Y0138115D02*
X0276800Y0138115D01*
X0276800Y0139713D02*
X0276800Y0139713D01*
X0276800Y0141312D02*
X0276800Y0141312D01*
X0276800Y0142910D02*
X0276800Y0142910D01*
X0276800Y0144509D02*
X0276800Y0144509D01*
X0276800Y0146107D02*
X0276800Y0146107D01*
X0236800Y0140030D02*
X0223950Y0116471D01*
X0217311Y0112530D01*
X0214300Y0112530D01*
X0206800Y0110030D01*
X0200600Y0109342D02*
X0173000Y0109342D01*
X0173000Y0110940D02*
X0200600Y0110940D01*
X0200600Y0112539D02*
X0173000Y0112539D01*
X0173000Y0112598D02*
X0169368Y0116230D01*
X0164232Y0116230D01*
X0160751Y0112748D01*
X0157870Y0115630D01*
X0155550Y0115630D01*
X0153230Y0115630D01*
X0149950Y0112349D01*
X0149950Y0110030D01*
X0155550Y0110030D01*
X0155550Y0115630D01*
X0155550Y0110030D01*
X0155550Y0110030D01*
X0155550Y0110029D01*
X0155550Y0104430D01*
X0157870Y0104430D01*
X0160751Y0107311D01*
X0164232Y0103830D01*
X0169368Y0103830D01*
X0173000Y0107461D01*
X0173000Y0112598D01*
X0171460Y0114137D02*
X0202140Y0114137D01*
X0203738Y0115736D02*
X0169862Y0115736D01*
X0163738Y0115736D02*
X0151648Y0115736D01*
X0151738Y0114137D02*
X0143655Y0114137D01*
X0150140Y0112539D02*
X0135663Y0112539D01*
X0131800Y0115030D02*
X0156800Y0120030D01*
X0166800Y0130030D01*
X0175550Y0132530D01*
X0185550Y0131280D01*
X0193050Y0131280D01*
X0199300Y0135030D01*
X0199190Y0135542D01*
X0216800Y0120030D01*
X0223000Y0122130D02*
X0223391Y0122130D01*
X0224263Y0123728D02*
X0221869Y0123728D01*
X0220271Y0125327D02*
X0225135Y0125327D01*
X0226007Y0126925D02*
X0213813Y0126925D01*
X0207760Y0123728D02*
X0203200Y0123728D01*
X0203200Y0125327D02*
X0205945Y0125327D01*
X0204131Y0126925D02*
X0203200Y0126925D01*
X0202951Y0122130D02*
X0209575Y0122130D01*
X0210600Y0120531D02*
X0201353Y0120531D01*
X0199754Y0118933D02*
X0210600Y0118933D01*
X0210727Y0117334D02*
X0158630Y0117334D01*
X0160229Y0118933D02*
X0193846Y0118933D01*
X0192247Y0120531D02*
X0180504Y0120531D01*
X0179202Y0119230D02*
X0182600Y0122627D01*
X0182600Y0125029D01*
X0176800Y0125029D01*
X0176800Y0119230D01*
X0179202Y0119230D01*
X0176800Y0119230D02*
X0176800Y0125029D01*
X0176800Y0125029D01*
X0176800Y0125030D01*
X0176800Y0125029D01*
X0171000Y0125029D01*
X0171000Y0122627D01*
X0174398Y0119230D01*
X0176800Y0119230D01*
X0176800Y0120531D02*
X0176800Y0120531D01*
X0176800Y0122130D02*
X0176800Y0122130D01*
X0176800Y0123728D02*
X0176800Y0123728D01*
X0182103Y0122130D02*
X0190649Y0122130D01*
X0190400Y0123728D02*
X0182600Y0123728D01*
X0182600Y0125327D02*
X0190400Y0125327D01*
X0190400Y0126925D02*
X0182600Y0126925D01*
X0181796Y0128524D02*
X0181508Y0128524D01*
X0186134Y0134918D02*
X0187466Y0134918D01*
X0186825Y0136516D02*
X0186775Y0136516D01*
X0186775Y0138115D02*
X0186825Y0138115D01*
X0186775Y0139713D02*
X0186825Y0139713D01*
X0186775Y0141312D02*
X0186825Y0141312D01*
X0186775Y0142910D02*
X0186825Y0142910D01*
X0187204Y0144509D02*
X0186396Y0144509D01*
X0185332Y0146107D02*
X0188268Y0146107D01*
X0193311Y0147706D02*
X0105000Y0147706D01*
X0105000Y0149304D02*
X0192968Y0149304D01*
X0192626Y0150903D02*
X0105000Y0150903D01*
X0105000Y0152502D02*
X0192283Y0152502D01*
X0191941Y0154100D02*
X0105000Y0154100D01*
X0105000Y0155699D02*
X0191598Y0155699D01*
X0191256Y0157297D02*
X0105000Y0157297D01*
X0105000Y0158896D02*
X0190913Y0158896D01*
X0190571Y0160494D02*
X0105000Y0160494D01*
X0098600Y0160494D02*
X0004200Y0160494D01*
X0004200Y0158896D02*
X0098600Y0158896D01*
X0098600Y0157297D02*
X0004200Y0157297D01*
X0004200Y0155699D02*
X0098600Y0155699D01*
X0098600Y0154100D02*
X0004200Y0154100D01*
X0004200Y0152502D02*
X0098600Y0152502D01*
X0098600Y0150903D02*
X0014695Y0150903D01*
X0014368Y0151230D02*
X0009232Y0151230D01*
X0005600Y0147598D01*
X0005600Y0142461D01*
X0009232Y0138830D01*
X0014368Y0138830D01*
X0018000Y0142461D01*
X0018000Y0147598D01*
X0014368Y0151230D01*
X0016293Y0149304D02*
X0098600Y0149304D01*
X0098600Y0147706D02*
X0017892Y0147706D01*
X0018000Y0146107D02*
X0023268Y0146107D01*
X0022583Y0145422D02*
X0021825Y0143594D01*
X0021825Y0136465D01*
X0022583Y0134637D01*
X0023982Y0133237D01*
X0025810Y0132480D01*
X0027790Y0132480D01*
X0029618Y0133237D01*
X0031017Y0134637D01*
X0031775Y0136465D01*
X0031775Y0143594D01*
X0031017Y0145422D01*
X0029618Y0146822D01*
X0027790Y0147579D01*
X0025810Y0147579D01*
X0023982Y0146822D01*
X0022583Y0145422D01*
X0022204Y0144509D02*
X0018000Y0144509D01*
X0018000Y0142910D02*
X0021825Y0142910D01*
X0021825Y0141312D02*
X0016851Y0141312D01*
X0015252Y0139713D02*
X0021825Y0139713D01*
X0021825Y0138115D02*
X0004200Y0138115D01*
X0004200Y0139713D02*
X0008348Y0139713D01*
X0006749Y0141312D02*
X0004200Y0141312D01*
X0004200Y0142910D02*
X0005600Y0142910D01*
X0005600Y0144509D02*
X0004200Y0144509D01*
X0004200Y0146107D02*
X0005600Y0146107D01*
X0005708Y0147706D02*
X0004200Y0147706D01*
X0004200Y0149304D02*
X0007307Y0149304D01*
X0008905Y0150903D02*
X0004200Y0150903D01*
X0004200Y0162093D02*
X0098600Y0162093D01*
X0098600Y0163691D02*
X0090072Y0163691D01*
X0091288Y0165290D02*
X0097014Y0165290D01*
X0095416Y0166888D02*
X0091775Y0166888D01*
X0091775Y0168487D02*
X0093817Y0168487D01*
X0092219Y0170085D02*
X0091775Y0170085D01*
X0098073Y0173282D02*
X0098529Y0173282D01*
X0099671Y0171684D02*
X0100128Y0171684D01*
X0096931Y0174881D02*
X0096474Y0174881D01*
X0096250Y0176479D02*
X0096850Y0176479D01*
X0096850Y0178078D02*
X0096250Y0178078D01*
X0095884Y0179676D02*
X0096850Y0179676D01*
X0098027Y0181275D02*
X0095564Y0181275D01*
X0095245Y0182873D02*
X0099626Y0182873D01*
X0103050Y0177530D02*
X0109300Y0185030D01*
X0110336Y0181275D02*
X0111777Y0181275D01*
X0110600Y0179676D02*
X0109250Y0179676D01*
X0109250Y0178078D02*
X0110600Y0178078D01*
X0110600Y0176479D02*
X0109250Y0176479D01*
X0109169Y0174881D02*
X0110681Y0174881D01*
X0112279Y0173282D02*
X0107571Y0173282D01*
X0105972Y0171684D02*
X0113878Y0171684D01*
X0123000Y0178078D02*
X0174226Y0178078D01*
X0172628Y0179676D02*
X0123000Y0179676D01*
X0121823Y0181275D02*
X0171029Y0181275D01*
X0175550Y0191280D02*
X0191800Y0175030D01*
X0191800Y0170030D01*
X0199190Y0135542D01*
X0201911Y0138115D02*
X0203012Y0138115D01*
X0205550Y0138115D02*
X0205550Y0138115D01*
X0205550Y0139713D02*
X0205550Y0139713D01*
X0205550Y0141312D02*
X0205550Y0141312D01*
X0205550Y0142910D02*
X0205550Y0142910D01*
X0205550Y0144509D02*
X0205550Y0144509D01*
X0205550Y0146107D02*
X0205550Y0146107D01*
X0205550Y0147706D02*
X0205550Y0147706D01*
X0205550Y0149304D02*
X0205550Y0149304D01*
X0202873Y0149304D02*
X0199514Y0149304D01*
X0199856Y0147706D02*
X0201274Y0147706D01*
X0178268Y0146107D02*
X0174421Y0146107D01*
X0174650Y0145941D02*
X0174093Y0146346D01*
X0173479Y0146659D01*
X0172824Y0146871D01*
X0172144Y0146979D01*
X0171800Y0146979D01*
X0171800Y0140030D01*
X0171800Y0146979D01*
X0171456Y0146979D01*
X0170776Y0146871D01*
X0170121Y0146659D01*
X0169507Y0146346D01*
X0168950Y0145941D01*
X0168463Y0145454D01*
X0168058Y0144897D01*
X0167746Y0144284D01*
X0167533Y0143629D01*
X0167425Y0142949D01*
X0167425Y0140030D01*
X0171800Y0140030D01*
X0171800Y0140030D01*
X0171800Y0140029D01*
X0171800Y0140030D01*
X0176175Y0140030D01*
X0176175Y0142949D01*
X0176067Y0143629D01*
X0175854Y0144284D01*
X0175542Y0144897D01*
X0175137Y0145454D01*
X0174650Y0145941D01*
X0175740Y0144509D02*
X0177204Y0144509D01*
X0176825Y0142910D02*
X0176175Y0142910D01*
X0176175Y0141312D02*
X0176825Y0141312D01*
X0176825Y0139713D02*
X0176175Y0139713D01*
X0176175Y0138115D02*
X0176825Y0138115D01*
X0176825Y0136516D02*
X0176081Y0136516D01*
X0171800Y0141312D02*
X0171800Y0141312D01*
X0171800Y0142910D02*
X0171800Y0142910D01*
X0171800Y0144509D02*
X0171800Y0144509D01*
X0171800Y0146107D02*
X0171800Y0146107D01*
X0169179Y0146107D02*
X0165332Y0146107D01*
X0166017Y0145422D02*
X0164618Y0146822D01*
X0162790Y0147579D01*
X0160810Y0147579D01*
X0158982Y0146822D01*
X0157583Y0145422D01*
X0156825Y0143594D01*
X0156825Y0136465D01*
X0157583Y0134637D01*
X0158982Y0133237D01*
X0160810Y0132480D01*
X0162790Y0132480D01*
X0164618Y0133237D01*
X0166017Y0134637D01*
X0166775Y0136465D01*
X0166775Y0143594D01*
X0166017Y0145422D01*
X0166396Y0144509D02*
X0167860Y0144509D01*
X0167425Y0142910D02*
X0166775Y0142910D01*
X0166775Y0141312D02*
X0167425Y0141312D01*
X0167425Y0139713D02*
X0166775Y0139713D01*
X0166775Y0138115D02*
X0167425Y0138115D01*
X0167519Y0136516D02*
X0166775Y0136516D01*
X0166134Y0134918D02*
X0168236Y0134918D01*
X0166666Y0133319D02*
X0164700Y0133319D01*
X0163966Y0131721D02*
X0119759Y0131721D01*
X0119368Y0131330D02*
X0123000Y0134961D01*
X0123000Y0140098D01*
X0119368Y0143730D01*
X0114232Y0143730D01*
X0110600Y0140098D01*
X0110600Y0134961D01*
X0114232Y0131330D01*
X0119368Y0131330D01*
X0121358Y0133319D02*
X0128900Y0133319D01*
X0128982Y0133237D02*
X0130810Y0132480D01*
X0132790Y0132480D01*
X0134618Y0133237D01*
X0136017Y0134637D01*
X0136775Y0136465D01*
X0136775Y0143594D01*
X0136017Y0145422D01*
X0134618Y0146822D01*
X0132790Y0147579D01*
X0130810Y0147579D01*
X0128982Y0146822D01*
X0127583Y0145422D01*
X0126825Y0143594D01*
X0126825Y0136465D01*
X0127583Y0134637D01*
X0128982Y0133237D01*
X0127466Y0134918D02*
X0122956Y0134918D01*
X0123000Y0136516D02*
X0126825Y0136516D01*
X0126825Y0138115D02*
X0123000Y0138115D01*
X0123000Y0139713D02*
X0126825Y0139713D01*
X0126825Y0141312D02*
X0121786Y0141312D01*
X0120187Y0142910D02*
X0126825Y0142910D01*
X0127204Y0144509D02*
X0105000Y0144509D01*
X0105000Y0146107D02*
X0128268Y0146107D01*
X0135332Y0146107D02*
X0138268Y0146107D01*
X0137583Y0145422D02*
X0138982Y0146822D01*
X0140810Y0147579D01*
X0142790Y0147579D01*
X0144618Y0146822D01*
X0146017Y0145422D01*
X0146775Y0143594D01*
X0146775Y0136465D01*
X0146017Y0134637D01*
X0144618Y0133237D01*
X0142790Y0132480D01*
X0140810Y0132480D01*
X0138982Y0133237D01*
X0137583Y0134637D01*
X0136825Y0136465D01*
X0136825Y0143594D01*
X0137583Y0145422D01*
X0137204Y0144509D02*
X0136396Y0144509D01*
X0136775Y0142910D02*
X0136825Y0142910D01*
X0136775Y0141312D02*
X0136825Y0141312D01*
X0136775Y0139713D02*
X0136825Y0139713D01*
X0136775Y0138115D02*
X0136825Y0138115D01*
X0136775Y0136516D02*
X0136825Y0136516D01*
X0137466Y0134918D02*
X0136134Y0134918D01*
X0134700Y0133319D02*
X0138900Y0133319D01*
X0138125Y0130122D02*
X0105475Y0130122D01*
X0106009Y0131721D02*
X0113841Y0131721D01*
X0112242Y0133319D02*
X0107608Y0133319D01*
X0109206Y0134918D02*
X0110644Y0134918D01*
X0110600Y0136516D02*
X0109250Y0136516D01*
X0109250Y0138115D02*
X0110600Y0138115D01*
X0110600Y0139713D02*
X0109250Y0139713D01*
X0108036Y0141312D02*
X0111814Y0141312D01*
X0113413Y0142910D02*
X0106437Y0142910D01*
X0098600Y0142910D02*
X0091775Y0142910D01*
X0091775Y0143594D02*
X0091017Y0145422D01*
X0089618Y0146822D01*
X0087790Y0147579D01*
X0085810Y0147579D01*
X0083982Y0146822D01*
X0082583Y0145422D01*
X0081825Y0143594D01*
X0081825Y0136465D01*
X0082583Y0134637D01*
X0083982Y0133237D01*
X0085810Y0132480D01*
X0087790Y0132480D01*
X0089618Y0133237D01*
X0091017Y0134637D01*
X0091775Y0136465D01*
X0091775Y0143594D01*
X0091396Y0144509D02*
X0098600Y0144509D01*
X0098600Y0146107D02*
X0090332Y0146107D01*
X0083268Y0146107D02*
X0080332Y0146107D01*
X0081017Y0145422D02*
X0079618Y0146822D01*
X0077790Y0147579D01*
X0075810Y0147579D01*
X0073982Y0146822D01*
X0072583Y0145422D01*
X0071825Y0143594D01*
X0071825Y0136465D01*
X0072583Y0134637D01*
X0073982Y0133237D01*
X0075810Y0132480D01*
X0077790Y0132480D01*
X0079618Y0133237D01*
X0081017Y0134637D01*
X0081775Y0136465D01*
X0081775Y0143594D01*
X0081017Y0145422D01*
X0081396Y0144509D02*
X0082204Y0144509D01*
X0081825Y0142910D02*
X0081775Y0142910D01*
X0081775Y0141312D02*
X0081825Y0141312D01*
X0081775Y0139713D02*
X0081825Y0139713D01*
X0081775Y0138115D02*
X0081825Y0138115D01*
X0081775Y0136516D02*
X0081825Y0136516D01*
X0082466Y0134918D02*
X0081134Y0134918D01*
X0079700Y0133319D02*
X0083900Y0133319D01*
X0082842Y0130122D02*
X0069910Y0130122D01*
X0069202Y0130830D02*
X0066800Y0130830D01*
X0064398Y0130830D01*
X0061000Y0127432D01*
X0061000Y0125030D01*
X0066800Y0125030D01*
X0066800Y0130830D01*
X0066800Y0125030D01*
X0066800Y0125030D01*
X0072600Y0125030D01*
X0072600Y0127432D01*
X0069202Y0130830D01*
X0066800Y0130122D02*
X0066800Y0130122D01*
X0066800Y0128524D02*
X0066800Y0128524D01*
X0066800Y0126925D02*
X0066800Y0126925D01*
X0066800Y0125327D02*
X0066800Y0125327D01*
X0066800Y0125030D02*
X0066800Y0125029D01*
X0066800Y0119230D01*
X0069202Y0119230D01*
X0072600Y0122627D01*
X0072600Y0125029D01*
X0066800Y0125029D01*
X0066800Y0125029D01*
X0066800Y0119230D01*
X0064398Y0119230D01*
X0061000Y0122627D01*
X0061000Y0125029D01*
X0066800Y0125029D01*
X0066800Y0125030D01*
X0066800Y0123728D02*
X0066800Y0123728D01*
X0066800Y0122130D02*
X0066800Y0122130D01*
X0066800Y0120531D02*
X0066800Y0120531D01*
X0070504Y0120531D02*
X0082247Y0120531D01*
X0080649Y0122130D02*
X0072103Y0122130D01*
X0072600Y0123728D02*
X0080400Y0123728D01*
X0080400Y0125327D02*
X0072600Y0125327D01*
X0072600Y0126925D02*
X0080400Y0126925D01*
X0081243Y0128524D02*
X0071508Y0128524D01*
X0073900Y0133319D02*
X0068230Y0133319D01*
X0068479Y0133400D02*
X0069093Y0133713D01*
X0069650Y0134118D01*
X0070137Y0134605D01*
X0070542Y0135162D01*
X0070854Y0135775D01*
X0071067Y0136430D01*
X0071175Y0137110D01*
X0071175Y0140029D01*
X0066800Y0140029D01*
X0066800Y0133080D01*
X0067144Y0133080D01*
X0067824Y0133188D01*
X0068479Y0133400D01*
X0066800Y0133319D02*
X0066800Y0133319D01*
X0066800Y0133080D02*
X0066800Y0140029D01*
X0066800Y0140029D01*
X0066800Y0140030D01*
X0066800Y0146979D01*
X0066800Y0140030D01*
X0066800Y0140030D01*
X0071175Y0140030D01*
X0071175Y0142949D01*
X0071067Y0143629D01*
X0070854Y0144284D01*
X0070542Y0144897D01*
X0070137Y0145454D01*
X0069650Y0145941D01*
X0069093Y0146346D01*
X0068479Y0146659D01*
X0067824Y0146871D01*
X0067144Y0146979D01*
X0066800Y0146979D01*
X0066456Y0146979D01*
X0065776Y0146871D01*
X0065121Y0146659D01*
X0064507Y0146346D01*
X0063950Y0145941D01*
X0063463Y0145454D01*
X0063058Y0144897D01*
X0062746Y0144284D01*
X0062533Y0143629D01*
X0062425Y0142949D01*
X0062425Y0140030D01*
X0066800Y0140030D01*
X0066800Y0140029D01*
X0062425Y0140029D01*
X0062425Y0137110D01*
X0062533Y0136430D01*
X0062746Y0135775D01*
X0063058Y0135162D01*
X0063463Y0134605D01*
X0063950Y0134118D01*
X0064507Y0133713D01*
X0065121Y0133400D01*
X0065776Y0133188D01*
X0066456Y0133080D01*
X0066800Y0133080D01*
X0065370Y0133319D02*
X0059700Y0133319D01*
X0059618Y0133237D02*
X0061017Y0134637D01*
X0061775Y0136465D01*
X0061775Y0143594D01*
X0061017Y0145422D01*
X0059618Y0146822D01*
X0057790Y0147579D01*
X0055810Y0147579D01*
X0053982Y0146822D01*
X0052583Y0145422D01*
X0051825Y0143594D01*
X0051825Y0136465D01*
X0052583Y0134637D01*
X0053982Y0133237D01*
X0055810Y0132480D01*
X0057790Y0132480D01*
X0059618Y0133237D01*
X0061134Y0134918D02*
X0063236Y0134918D01*
X0062519Y0136516D02*
X0061775Y0136516D01*
X0061775Y0138115D02*
X0062425Y0138115D01*
X0062425Y0139713D02*
X0061775Y0139713D01*
X0061775Y0141312D02*
X0062425Y0141312D01*
X0062425Y0142910D02*
X0061775Y0142910D01*
X0061396Y0144509D02*
X0062860Y0144509D01*
X0064179Y0146107D02*
X0060332Y0146107D01*
X0066800Y0146107D02*
X0066800Y0146107D01*
X0066800Y0144509D02*
X0066800Y0144509D01*
X0066800Y0142910D02*
X0066800Y0142910D01*
X0066800Y0141312D02*
X0066800Y0141312D01*
X0066800Y0139713D02*
X0066800Y0139713D01*
X0066800Y0138115D02*
X0066800Y0138115D01*
X0066800Y0136516D02*
X0066800Y0136516D01*
X0066800Y0134918D02*
X0066800Y0134918D01*
X0070364Y0134918D02*
X0072466Y0134918D01*
X0071825Y0136516D02*
X0071081Y0136516D01*
X0071175Y0138115D02*
X0071825Y0138115D01*
X0071825Y0139713D02*
X0071175Y0139713D01*
X0071175Y0141312D02*
X0071825Y0141312D01*
X0071825Y0142910D02*
X0071175Y0142910D01*
X0070740Y0144509D02*
X0072204Y0144509D01*
X0073268Y0146107D02*
X0069421Y0146107D01*
X0053268Y0146107D02*
X0050332Y0146107D01*
X0051017Y0145422D02*
X0049618Y0146822D01*
X0047790Y0147579D01*
X0045810Y0147579D01*
X0043982Y0146822D01*
X0042583Y0145422D01*
X0041825Y0143594D01*
X0041825Y0136465D01*
X0042583Y0134637D01*
X0043982Y0133237D01*
X0045810Y0132480D01*
X0047790Y0132480D01*
X0049618Y0133237D01*
X0051017Y0134637D01*
X0051775Y0136465D01*
X0051775Y0143594D01*
X0051017Y0145422D01*
X0051396Y0144509D02*
X0052204Y0144509D01*
X0051825Y0142910D02*
X0051775Y0142910D01*
X0051775Y0141312D02*
X0051825Y0141312D01*
X0051775Y0139713D02*
X0051825Y0139713D01*
X0051775Y0138115D02*
X0051825Y0138115D01*
X0051775Y0136516D02*
X0051825Y0136516D01*
X0052466Y0134918D02*
X0051134Y0134918D01*
X0049700Y0133319D02*
X0053900Y0133319D01*
X0054368Y0131230D02*
X0049232Y0131230D01*
X0045600Y0127598D01*
X0045600Y0122461D01*
X0049232Y0118830D01*
X0054368Y0118830D01*
X0058000Y0122461D01*
X0058000Y0127598D01*
X0054368Y0131230D01*
X0055475Y0130122D02*
X0063690Y0130122D01*
X0062092Y0128524D02*
X0057074Y0128524D01*
X0058000Y0126925D02*
X0061000Y0126925D01*
X0061000Y0125327D02*
X0058000Y0125327D01*
X0058000Y0123728D02*
X0061000Y0123728D01*
X0061497Y0122130D02*
X0057668Y0122130D01*
X0056070Y0120531D02*
X0063096Y0120531D01*
X0064368Y0116230D02*
X0059232Y0116230D01*
X0057425Y0114423D01*
X0054368Y0117480D01*
X0049232Y0117480D01*
X0045600Y0113848D01*
X0045600Y0108711D01*
X0049232Y0105080D01*
X0054368Y0105080D01*
X0056175Y0106886D01*
X0059232Y0103830D01*
X0064368Y0103830D01*
X0068000Y0107461D01*
X0068000Y0112598D01*
X0064368Y0116230D01*
X0064862Y0115736D02*
X0096568Y0115736D01*
X0097140Y0114137D02*
X0066460Y0114137D01*
X0068000Y0112539D02*
X0095600Y0112539D01*
X0095600Y0110940D02*
X0068000Y0110940D01*
X0068000Y0109342D02*
X0095600Y0109342D01*
X0095600Y0107743D02*
X0068000Y0107743D01*
X0066683Y0106145D02*
X0096917Y0106145D01*
X0098515Y0104546D02*
X0065085Y0104546D01*
X0058515Y0104546D02*
X0004200Y0104546D01*
X0004200Y0102948D02*
X0212212Y0102948D01*
X0211200Y0104546D02*
X0210085Y0104546D01*
X0209368Y0102480D02*
X0204232Y0102480D01*
X0200600Y0098848D01*
X0200600Y0093711D01*
X0204232Y0090080D01*
X0209368Y0090080D01*
X0211200Y0091911D01*
X0211200Y0090210D01*
X0214480Y0086930D01*
X0216800Y0086930D01*
X0216800Y0092529D01*
X0216800Y0092529D01*
X0216800Y0092530D01*
X0216800Y0098130D01*
X0214480Y0098130D01*
X0213000Y0096649D01*
X0213000Y0098848D01*
X0209368Y0102480D01*
X0210498Y0101349D02*
X0213811Y0101349D01*
X0212097Y0099751D02*
X0229069Y0099751D01*
X0230401Y0101349D02*
X0219789Y0101349D01*
X0216800Y0101349D02*
X0216800Y0101349D01*
X0216800Y0102948D02*
X0216800Y0102948D01*
X0216800Y0104546D02*
X0216800Y0104546D01*
X0216800Y0106145D02*
X0216800Y0106145D01*
X0216800Y0098130D02*
X0216800Y0092530D01*
X0216800Y0092530D01*
X0222400Y0092530D01*
X0222400Y0094849D01*
X0219120Y0098130D01*
X0216800Y0098130D01*
X0216800Y0096554D02*
X0216800Y0096554D01*
X0216800Y0094955D02*
X0216800Y0094955D01*
X0216800Y0093357D02*
X0216800Y0093357D01*
X0216800Y0091758D02*
X0216800Y0091758D01*
X0216800Y0090160D02*
X0216800Y0090160D01*
X0216800Y0088561D02*
X0216800Y0088561D01*
X0216800Y0086963D02*
X0216800Y0086963D01*
X0217080Y0085364D02*
X0170115Y0085364D01*
X0169711Y0085768D02*
X0162315Y0085768D01*
X0157085Y0080538D01*
X0157085Y0073143D01*
X0162315Y0067913D01*
X0169711Y0067913D01*
X0174940Y0073143D01*
X0174940Y0080538D01*
X0169711Y0085768D01*
X0171713Y0083766D02*
X0215748Y0083766D01*
X0214401Y0082167D02*
X0173312Y0082167D01*
X0174910Y0080568D02*
X0213616Y0080568D01*
X0213237Y0078970D02*
X0174940Y0078970D01*
X0174940Y0074174D02*
X0181491Y0074174D01*
X0179892Y0072576D02*
X0174373Y0072576D01*
X0172775Y0070977D02*
X0178945Y0070977D01*
X0178945Y0069379D02*
X0171176Y0069379D01*
X0178945Y0066182D02*
X0130600Y0066182D01*
X0130454Y0064583D02*
X0179091Y0064583D01*
X0180690Y0062985D02*
X0128855Y0062985D01*
X0127257Y0061386D02*
X0182288Y0061386D01*
X0186472Y0061386D02*
X0188072Y0061386D01*
X0188072Y0062985D02*
X0186472Y0062985D01*
X0186472Y0064583D02*
X0188072Y0064583D01*
X0188072Y0066182D02*
X0186472Y0066182D01*
X0186472Y0067780D02*
X0123072Y0067780D01*
X0123072Y0066182D02*
X0121472Y0066182D01*
X0121472Y0064583D02*
X0123072Y0064583D01*
X0123072Y0062985D02*
X0121472Y0062985D01*
X0121472Y0061386D02*
X0123072Y0061386D01*
X0117288Y0061386D02*
X0062257Y0061386D01*
X0063855Y0062985D02*
X0115690Y0062985D01*
X0114091Y0064583D02*
X0065454Y0064583D01*
X0066600Y0056080D02*
X0064294Y0056080D01*
X0060750Y0052536D01*
X0060750Y0050230D01*
X0066600Y0050230D01*
X0066600Y0056080D01*
X0067000Y0056080D02*
X0069306Y0056080D01*
X0072850Y0052536D01*
X0072850Y0050230D01*
X0067000Y0050230D01*
X0066600Y0050230D01*
X0066600Y0049830D01*
X0060750Y0049830D01*
X0060750Y0047524D01*
X0064294Y0043980D01*
X0066600Y0043980D01*
X0066600Y0049829D01*
X0067000Y0049829D01*
X0067000Y0043980D01*
X0069306Y0043980D01*
X0072850Y0047524D01*
X0072850Y0049830D01*
X0067000Y0049830D01*
X0067000Y0050230D01*
X0067000Y0056080D01*
X0067000Y0054992D02*
X0066600Y0054992D01*
X0066600Y0053394D02*
X0067000Y0053394D01*
X0067000Y0051795D02*
X0066600Y0051795D01*
X0066600Y0050197D02*
X0004200Y0050197D01*
X0004200Y0051795D02*
X0060750Y0051795D01*
X0061608Y0053394D02*
X0004200Y0053394D01*
X0004200Y0054992D02*
X0063207Y0054992D01*
X0067000Y0050197D02*
X0196600Y0050197D01*
X0196600Y0050230D02*
X0196600Y0049830D01*
X0190750Y0049830D01*
X0190750Y0047524D01*
X0194294Y0043980D01*
X0196600Y0043980D01*
X0196600Y0049829D01*
X0197000Y0049829D01*
X0197000Y0043980D01*
X0199306Y0043980D01*
X0202850Y0047524D01*
X0202850Y0049830D01*
X0197000Y0049830D01*
X0197000Y0050230D01*
X0196600Y0050230D01*
X0196600Y0056080D01*
X0194294Y0056080D01*
X0190750Y0052536D01*
X0190750Y0050230D01*
X0196600Y0050230D01*
X0197000Y0050230D02*
X0197000Y0056080D01*
X0199306Y0056080D01*
X0202850Y0052536D01*
X0202850Y0050230D01*
X0197000Y0050230D01*
X0197000Y0050197D02*
X0206043Y0050197D01*
X0206443Y0051795D02*
X0202850Y0051795D01*
X0201992Y0053394D02*
X0206843Y0053394D01*
X0207242Y0054992D02*
X0200393Y0054992D01*
X0197000Y0054992D02*
X0196600Y0054992D01*
X0196600Y0053394D02*
X0197000Y0053394D01*
X0197000Y0051795D02*
X0196600Y0051795D01*
X0193207Y0054992D02*
X0070393Y0054992D01*
X0071992Y0053394D02*
X0191608Y0053394D01*
X0190750Y0051795D02*
X0072850Y0051795D01*
X0072850Y0048598D02*
X0190750Y0048598D01*
X0191274Y0047000D02*
X0072326Y0047000D01*
X0070728Y0045401D02*
X0192872Y0045401D01*
X0196600Y0045401D02*
X0197000Y0045401D01*
X0197000Y0047000D02*
X0196600Y0047000D01*
X0196600Y0048598D02*
X0197000Y0048598D01*
X0200728Y0045401D02*
X0204844Y0045401D01*
X0204445Y0043803D02*
X0004200Y0043803D01*
X0004200Y0045401D02*
X0062872Y0045401D01*
X0061274Y0047000D02*
X0004200Y0047000D01*
X0004200Y0048598D02*
X0060750Y0048598D01*
X0066600Y0048598D02*
X0067000Y0048598D01*
X0067000Y0047000D02*
X0066600Y0047000D01*
X0066600Y0045401D02*
X0067000Y0045401D01*
X0069555Y0036680D02*
X0064045Y0036680D01*
X0060150Y0032784D01*
X0060150Y0027275D01*
X0064045Y0023380D01*
X0069555Y0023380D01*
X0073450Y0027275D01*
X0073450Y0032784D01*
X0069555Y0036680D01*
X0070424Y0035810D02*
X0193176Y0035810D01*
X0191578Y0034212D02*
X0072022Y0034212D01*
X0073450Y0032613D02*
X0097764Y0032613D01*
X0098351Y0033200D02*
X0093472Y0028321D01*
X0093472Y0025672D01*
X0101000Y0025672D01*
X0101000Y0033200D01*
X0098351Y0033200D01*
X0101000Y0032613D02*
X0102600Y0032613D01*
X0102600Y0031015D02*
X0101000Y0031015D01*
X0101000Y0029416D02*
X0102600Y0029416D01*
X0102600Y0027818D02*
X0101000Y0027818D01*
X0101000Y0026219D02*
X0102600Y0026219D01*
X0102600Y0024621D02*
X0166000Y0024621D01*
X0166000Y0025672D02*
X0158472Y0025672D01*
X0158472Y0028321D01*
X0163351Y0033200D01*
X0166000Y0033200D01*
X0166000Y0025672D01*
X0166000Y0026219D02*
X0167600Y0026219D01*
X0167600Y0024621D02*
X0192804Y0024621D01*
X0191206Y0026219D02*
X0175128Y0026219D01*
X0175128Y0027818D02*
X0190150Y0027818D01*
X0190150Y0029416D02*
X0174033Y0029416D01*
X0172434Y0031015D02*
X0190150Y0031015D01*
X0190150Y0032613D02*
X0170836Y0032613D01*
X0167600Y0032613D02*
X0166000Y0032613D01*
X0166000Y0031015D02*
X0167600Y0031015D01*
X0167600Y0029416D02*
X0166000Y0029416D01*
X0166000Y0027818D02*
X0167600Y0027818D01*
X0161166Y0031015D02*
X0107434Y0031015D01*
X0105836Y0032613D02*
X0162764Y0032613D01*
X0159567Y0029416D02*
X0109033Y0029416D01*
X0110128Y0027818D02*
X0158472Y0027818D01*
X0158472Y0026219D02*
X0110128Y0026219D01*
X0110128Y0023022D02*
X0158472Y0023022D01*
X0158472Y0021424D02*
X0110128Y0021424D01*
X0108530Y0019825D02*
X0160070Y0019825D01*
X0161669Y0018227D02*
X0106931Y0018227D01*
X0096669Y0018227D02*
X0041931Y0018227D01*
X0043530Y0019825D02*
X0095070Y0019825D01*
X0093472Y0021424D02*
X0045128Y0021424D01*
X0045128Y0023022D02*
X0093472Y0023022D01*
X0093472Y0026219D02*
X0072394Y0026219D01*
X0073450Y0027818D02*
X0093472Y0027818D01*
X0094567Y0029416D02*
X0073450Y0029416D01*
X0073450Y0031015D02*
X0096166Y0031015D01*
X0101000Y0024621D02*
X0070796Y0024621D01*
X0062804Y0024621D02*
X0037600Y0024621D01*
X0037600Y0026219D02*
X0036000Y0026219D01*
X0036000Y0025672D02*
X0036000Y0033200D01*
X0033351Y0033200D01*
X0028472Y0028321D01*
X0028472Y0025672D01*
X0036000Y0025672D01*
X0036000Y0024621D02*
X0004200Y0024621D01*
X0004200Y0026219D02*
X0028472Y0026219D01*
X0028472Y0027818D02*
X0004200Y0027818D01*
X0004200Y0029416D02*
X0029567Y0029416D01*
X0031166Y0031015D02*
X0004200Y0031015D01*
X0004200Y0032613D02*
X0032764Y0032613D01*
X0036000Y0032613D02*
X0037600Y0032613D01*
X0037600Y0031015D02*
X0036000Y0031015D01*
X0036000Y0029416D02*
X0037600Y0029416D01*
X0037600Y0027818D02*
X0036000Y0027818D01*
X0042434Y0031015D02*
X0060150Y0031015D01*
X0060150Y0032613D02*
X0040836Y0032613D01*
X0044033Y0029416D02*
X0060150Y0029416D01*
X0060150Y0027818D02*
X0045128Y0027818D01*
X0045128Y0026219D02*
X0061206Y0026219D01*
X0061578Y0034212D02*
X0004200Y0034212D01*
X0004200Y0035810D02*
X0063176Y0035810D01*
X0031669Y0018227D02*
X0004200Y0018227D01*
X0004200Y0019825D02*
X0030070Y0019825D01*
X0028472Y0021424D02*
X0004200Y0021424D01*
X0004200Y0023022D02*
X0028472Y0023022D01*
X0004200Y0037409D02*
X0199654Y0037409D01*
X0201252Y0039007D02*
X0004200Y0039007D01*
X0004200Y0040606D02*
X0202851Y0040606D01*
X0204045Y0042204D02*
X0004200Y0042204D01*
X0004200Y0056591D02*
X0207642Y0056591D01*
X0208041Y0058189D02*
X0004200Y0058189D01*
X0004200Y0069379D02*
X0030849Y0069379D01*
X0029250Y0070977D02*
X0004200Y0070977D01*
X0004200Y0072576D02*
X0027652Y0072576D01*
X0027085Y0074174D02*
X0004200Y0074174D01*
X0004200Y0075773D02*
X0027085Y0075773D01*
X0027085Y0077371D02*
X0004200Y0077371D01*
X0004200Y0078970D02*
X0027085Y0078970D01*
X0027115Y0080568D02*
X0004200Y0080568D01*
X0004200Y0082167D02*
X0028714Y0082167D01*
X0030312Y0083766D02*
X0004200Y0083766D01*
X0004200Y0085364D02*
X0031911Y0085364D01*
X0056200Y0094955D02*
X0004200Y0094955D01*
X0004200Y0093357D02*
X0056803Y0093357D01*
X0056200Y0096554D02*
X0004200Y0096554D01*
X0004200Y0098152D02*
X0056200Y0098152D01*
X0057352Y0099751D02*
X0004200Y0099751D01*
X0004200Y0101349D02*
X0058950Y0101349D01*
X0056917Y0106145D02*
X0055433Y0106145D01*
X0048167Y0106145D02*
X0015433Y0106145D01*
X0014368Y0105080D02*
X0018000Y0108711D01*
X0018000Y0113848D01*
X0014368Y0117480D01*
X0009232Y0117480D01*
X0005600Y0113848D01*
X0005600Y0108711D01*
X0009232Y0105080D01*
X0014368Y0105080D01*
X0017032Y0107743D02*
X0046568Y0107743D01*
X0045600Y0109342D02*
X0018000Y0109342D01*
X0018000Y0110940D02*
X0045600Y0110940D01*
X0045600Y0112539D02*
X0018000Y0112539D01*
X0017710Y0114137D02*
X0045890Y0114137D01*
X0047488Y0115736D02*
X0016112Y0115736D01*
X0014513Y0117334D02*
X0049087Y0117334D01*
X0049129Y0118933D02*
X0014471Y0118933D01*
X0014368Y0118830D02*
X0018000Y0122461D01*
X0018000Y0127598D01*
X0014368Y0131230D01*
X0009232Y0131230D01*
X0005600Y0127598D01*
X0005600Y0122461D01*
X0009232Y0118830D01*
X0014368Y0118830D01*
X0016070Y0120531D02*
X0047530Y0120531D01*
X0045932Y0122130D02*
X0017668Y0122130D01*
X0018000Y0123728D02*
X0045600Y0123728D01*
X0045600Y0125327D02*
X0018000Y0125327D01*
X0018000Y0126925D02*
X0045600Y0126925D01*
X0046526Y0128524D02*
X0017074Y0128524D01*
X0015475Y0130122D02*
X0048125Y0130122D01*
X0043900Y0133319D02*
X0039700Y0133319D01*
X0039618Y0133237D02*
X0041017Y0134637D01*
X0041775Y0136465D01*
X0041775Y0143594D01*
X0041017Y0145422D01*
X0039618Y0146822D01*
X0037790Y0147579D01*
X0035810Y0147579D01*
X0033982Y0146822D01*
X0032583Y0145422D01*
X0031825Y0143594D01*
X0031825Y0136465D01*
X0032583Y0134637D01*
X0033982Y0133237D01*
X0035810Y0132480D01*
X0037790Y0132480D01*
X0039618Y0133237D01*
X0041134Y0134918D02*
X0042466Y0134918D01*
X0041825Y0136516D02*
X0041775Y0136516D01*
X0041775Y0138115D02*
X0041825Y0138115D01*
X0041775Y0139713D02*
X0041825Y0139713D01*
X0041775Y0141312D02*
X0041825Y0141312D01*
X0041775Y0142910D02*
X0041825Y0142910D01*
X0042204Y0144509D02*
X0041396Y0144509D01*
X0040332Y0146107D02*
X0043268Y0146107D01*
X0033268Y0146107D02*
X0030332Y0146107D01*
X0031396Y0144509D02*
X0032204Y0144509D01*
X0031825Y0142910D02*
X0031775Y0142910D01*
X0031775Y0141312D02*
X0031825Y0141312D01*
X0031775Y0139713D02*
X0031825Y0139713D01*
X0031775Y0138115D02*
X0031825Y0138115D01*
X0031775Y0136516D02*
X0031825Y0136516D01*
X0032466Y0134918D02*
X0031134Y0134918D01*
X0029700Y0133319D02*
X0033900Y0133319D01*
X0023900Y0133319D02*
X0004200Y0133319D01*
X0004200Y0131721D02*
X0091100Y0131721D01*
X0091100Y0130122D02*
X0090758Y0130122D01*
X0091164Y0133319D02*
X0089700Y0133319D01*
X0091134Y0134918D02*
X0092102Y0134918D01*
X0091775Y0136516D02*
X0094827Y0136516D01*
X0096850Y0138115D02*
X0091775Y0138115D01*
X0091775Y0139713D02*
X0096850Y0139713D01*
X0098064Y0141312D02*
X0091775Y0141312D01*
X0099335Y0131721D02*
X0100091Y0131721D01*
X0098125Y0130122D02*
X0097500Y0130122D01*
X0107074Y0128524D02*
X0136526Y0128524D01*
X0135600Y0126925D02*
X0108000Y0126925D01*
X0111027Y0125327D02*
X0135600Y0125327D01*
X0135600Y0123728D02*
X0115823Y0123728D01*
X0120618Y0122130D02*
X0135932Y0122130D01*
X0137530Y0120531D02*
X0125414Y0120531D01*
X0130210Y0118933D02*
X0134999Y0118933D01*
X0131800Y0115030D02*
X0101800Y0125030D01*
X0093371Y0118933D02*
X0089754Y0118933D01*
X0091353Y0120531D02*
X0091773Y0120531D01*
X0094970Y0117334D02*
X0054513Y0117334D01*
X0054471Y0118933D02*
X0083846Y0118933D01*
X0108050Y0117530D02*
X0115550Y0110030D01*
X0120210Y0114137D02*
X0124358Y0114137D01*
X0121750Y0112539D02*
X0129153Y0112539D01*
X0121750Y0110940D02*
X0149950Y0110940D01*
X0149950Y0110029D02*
X0149950Y0107710D01*
X0153230Y0104430D01*
X0155550Y0104430D01*
X0155550Y0110029D01*
X0155550Y0110029D01*
X0149950Y0110029D01*
X0149950Y0109342D02*
X0121750Y0109342D01*
X0121750Y0107743D02*
X0149950Y0107743D01*
X0151515Y0106145D02*
X0120433Y0106145D01*
X0118835Y0104546D02*
X0153114Y0104546D01*
X0155550Y0104546D02*
X0155550Y0104546D01*
X0155550Y0106145D02*
X0155550Y0106145D01*
X0155550Y0107743D02*
X0155550Y0107743D01*
X0155550Y0109342D02*
X0155550Y0109342D01*
X0155550Y0110940D02*
X0155550Y0110940D01*
X0155550Y0112539D02*
X0155550Y0112539D01*
X0155550Y0114137D02*
X0155550Y0114137D01*
X0159362Y0114137D02*
X0162140Y0114137D01*
X0161827Y0120531D02*
X0173096Y0120531D01*
X0171497Y0122130D02*
X0163426Y0122130D01*
X0165024Y0123728D02*
X0171000Y0123728D01*
X0171000Y0125327D02*
X0166623Y0125327D01*
X0168221Y0126925D02*
X0171000Y0126925D01*
X0162367Y0130122D02*
X0145475Y0130122D01*
X0147074Y0128524D02*
X0160769Y0128524D01*
X0159170Y0126925D02*
X0148000Y0126925D01*
X0148000Y0125327D02*
X0157572Y0125327D01*
X0155973Y0123728D02*
X0148000Y0123728D01*
X0147668Y0122130D02*
X0150985Y0122130D01*
X0150810Y0132480D02*
X0152790Y0132480D01*
X0154618Y0133237D01*
X0156017Y0134637D01*
X0156775Y0136465D01*
X0156775Y0143594D01*
X0156017Y0145422D01*
X0154618Y0146822D01*
X0152790Y0147579D01*
X0150810Y0147579D01*
X0148982Y0146822D01*
X0147583Y0145422D01*
X0146825Y0143594D01*
X0146825Y0136465D01*
X0147583Y0134637D01*
X0148982Y0133237D01*
X0150810Y0132480D01*
X0148900Y0133319D02*
X0144700Y0133319D01*
X0146134Y0134918D02*
X0147466Y0134918D01*
X0146825Y0136516D02*
X0146775Y0136516D01*
X0146775Y0138115D02*
X0146825Y0138115D01*
X0146775Y0139713D02*
X0146825Y0139713D01*
X0146775Y0141312D02*
X0146825Y0141312D01*
X0146775Y0142910D02*
X0146825Y0142910D01*
X0147204Y0144509D02*
X0146396Y0144509D01*
X0145332Y0146107D02*
X0148268Y0146107D01*
X0155332Y0146107D02*
X0158268Y0146107D01*
X0157204Y0144509D02*
X0156396Y0144509D01*
X0156775Y0142910D02*
X0156825Y0142910D01*
X0156775Y0141312D02*
X0156825Y0141312D01*
X0156775Y0139713D02*
X0156825Y0139713D01*
X0156775Y0138115D02*
X0156825Y0138115D01*
X0156775Y0136516D02*
X0156825Y0136516D01*
X0157466Y0134918D02*
X0156134Y0134918D01*
X0154700Y0133319D02*
X0158900Y0133319D01*
X0119562Y0115736D02*
X0118612Y0115736D01*
X0157986Y0104546D02*
X0163515Y0104546D01*
X0161917Y0106145D02*
X0159585Y0106145D01*
X0159248Y0101349D02*
X0163102Y0101349D01*
X0161503Y0099751D02*
X0160847Y0099751D01*
X0170498Y0101349D02*
X0203102Y0101349D01*
X0201503Y0099751D02*
X0172097Y0099751D01*
X0173000Y0098152D02*
X0200600Y0098152D01*
X0200600Y0096554D02*
X0173000Y0096554D01*
X0173000Y0094955D02*
X0200600Y0094955D01*
X0200955Y0093357D02*
X0172645Y0093357D01*
X0171047Y0091758D02*
X0202553Y0091758D01*
X0204152Y0090160D02*
X0169448Y0090160D01*
X0164152Y0090160D02*
X0158198Y0090160D01*
X0159797Y0091758D02*
X0162553Y0091758D01*
X0161911Y0085364D02*
X0105115Y0085364D01*
X0106713Y0083766D02*
X0160312Y0083766D01*
X0158714Y0082167D02*
X0108312Y0082167D01*
X0109910Y0080568D02*
X0157115Y0080568D01*
X0157085Y0078970D02*
X0109940Y0078970D01*
X0128054Y0074174D02*
X0157085Y0074174D01*
X0157652Y0072576D02*
X0129653Y0072576D01*
X0130600Y0070977D02*
X0159250Y0070977D01*
X0160849Y0069379D02*
X0130600Y0069379D01*
X0170085Y0104546D02*
X0203515Y0104546D01*
X0201917Y0106145D02*
X0171683Y0106145D01*
X0173000Y0107743D02*
X0200600Y0107743D01*
X0209862Y0115736D02*
X0212326Y0115736D01*
X0213000Y0098152D02*
X0227737Y0098152D01*
X0226405Y0096554D02*
X0220695Y0096554D01*
X0222294Y0094955D02*
X0225073Y0094955D01*
X0223740Y0093357D02*
X0222400Y0093357D01*
X0222400Y0091758D02*
X0222408Y0091758D01*
X0214447Y0086963D02*
X0004200Y0086963D01*
X0004200Y0088561D02*
X0212849Y0088561D01*
X0211250Y0090160D02*
X0209448Y0090160D01*
X0211047Y0091758D02*
X0211200Y0091758D01*
X0216800Y0080030D02*
X0206800Y0040030D01*
X0196800Y0030030D01*
X0175128Y0023022D02*
X0223472Y0023022D01*
X0223472Y0021424D02*
X0175128Y0021424D01*
X0173530Y0019825D02*
X0225070Y0019825D01*
X0226669Y0018227D02*
X0171931Y0018227D01*
X0202326Y0047000D02*
X0205244Y0047000D01*
X0205644Y0048598D02*
X0202850Y0048598D01*
X0195600Y0069379D02*
X0210839Y0069379D01*
X0216800Y0080030D02*
X0241800Y0110030D01*
X0256800Y0120030D01*
X0263000Y0118933D02*
X0263771Y0118933D01*
X0262873Y0117334D02*
X0264970Y0117334D01*
X0266568Y0115736D02*
X0261274Y0115736D01*
X0259676Y0114137D02*
X0268167Y0114137D01*
X0263943Y0110940D02*
X0260907Y0110940D01*
X0256800Y0106280D02*
X0266800Y0105030D01*
X0261712Y0101349D02*
X0260638Y0101349D01*
X0253924Y0114137D02*
X0253730Y0114137D01*
X0276707Y0082167D02*
X0288714Y0082167D01*
X0264992Y0077371D02*
X0239940Y0077371D01*
X0239940Y0075773D02*
X0248089Y0075773D01*
X0246491Y0074174D02*
X0239940Y0074174D01*
X0239373Y0072576D02*
X0244892Y0072576D01*
X0243945Y0070977D02*
X0237775Y0070977D01*
X0236176Y0069379D02*
X0243945Y0069379D01*
X0350550Y0162093D02*
X0350550Y0162093D01*
X0350550Y0163691D02*
X0350550Y0163691D01*
X0350550Y0165290D02*
X0350550Y0165290D01*
X0350550Y0166888D02*
X0350550Y0166888D01*
X0350550Y0168487D02*
X0350550Y0168487D01*
X0348045Y0168487D02*
X0343904Y0168487D01*
X0345432Y0166888D02*
X0346446Y0166888D01*
X0353055Y0168487D02*
X0353600Y0168487D01*
X0353322Y0173282D02*
X0331321Y0173282D01*
X0332919Y0174881D02*
X0351968Y0174881D01*
X0350614Y0176479D02*
X0334250Y0176479D01*
X0334250Y0178078D02*
X0349260Y0178078D01*
X0347905Y0179676D02*
X0334250Y0179676D01*
X0334250Y0181275D02*
X0346551Y0181275D01*
X0345197Y0182873D02*
X0332724Y0182873D01*
X0331126Y0184472D02*
X0340682Y0184472D01*
X0346046Y0186822D02*
X0326800Y0190030D01*
X0300550Y0215030D01*
X0306750Y0214843D02*
X0325900Y0214843D01*
X0325900Y0213245D02*
X0307064Y0213245D01*
X0308742Y0211646D02*
X0326839Y0211646D01*
X0325900Y0212586D02*
X0328456Y0210030D01*
X0325900Y0207473D01*
X0325900Y0202586D01*
X0329356Y0199130D01*
X0334244Y0199130D01*
X0337224Y0202110D01*
X0339605Y0199730D01*
X0341700Y0199730D01*
X0341700Y0204929D01*
X0341900Y0204929D01*
X0341900Y0199730D01*
X0343995Y0199730D01*
X0346800Y0202534D01*
X0349605Y0199730D01*
X0351700Y0199730D01*
X0351700Y0204929D01*
X0351900Y0204929D01*
X0351900Y0199730D01*
X0353995Y0199730D01*
X0356800Y0202534D01*
X0359605Y0199730D01*
X0361700Y0199730D01*
X0361700Y0204929D01*
X0361900Y0204929D01*
X0361900Y0199730D01*
X0363995Y0199730D01*
X0366376Y0202110D01*
X0369356Y0199130D01*
X0374244Y0199130D01*
X0377700Y0202586D01*
X0377700Y0207473D01*
X0375144Y0210030D01*
X0377700Y0212586D01*
X0377700Y0217473D01*
X0374244Y0220930D01*
X0369356Y0220930D01*
X0366376Y0217949D01*
X0363995Y0220330D01*
X0361900Y0220330D01*
X0361900Y0215130D01*
X0361700Y0215130D01*
X0361700Y0220330D01*
X0359605Y0220330D01*
X0356800Y0217525D01*
X0353995Y0220330D01*
X0351900Y0220330D01*
X0351900Y0215130D01*
X0351700Y0215130D01*
X0351700Y0220330D01*
X0349605Y0220330D01*
X0346800Y0217525D01*
X0343995Y0220330D01*
X0341900Y0220330D01*
X0341900Y0215130D01*
X0341700Y0215130D01*
X0341700Y0220330D01*
X0339605Y0220330D01*
X0337224Y0217949D01*
X0334244Y0220930D01*
X0329356Y0220930D01*
X0325900Y0217473D01*
X0325900Y0212586D01*
X0328438Y0210048D02*
X0310421Y0210048D01*
X0312099Y0208449D02*
X0326876Y0208449D01*
X0325900Y0206851D02*
X0313778Y0206851D01*
X0315456Y0205252D02*
X0325900Y0205252D01*
X0325900Y0203654D02*
X0317134Y0203654D01*
X0318813Y0202055D02*
X0326430Y0202055D01*
X0328029Y0200457D02*
X0320491Y0200457D01*
X0322170Y0198858D02*
X0392400Y0198858D01*
X0392400Y0197260D02*
X0323848Y0197260D01*
X0325527Y0195661D02*
X0392400Y0195661D01*
X0392400Y0194063D02*
X0327205Y0194063D01*
X0331656Y0192464D02*
X0392400Y0192464D01*
X0392400Y0200457D02*
X0375571Y0200457D01*
X0377170Y0202055D02*
X0392400Y0202055D01*
X0392400Y0203654D02*
X0377700Y0203654D01*
X0377700Y0205252D02*
X0392400Y0205252D01*
X0392400Y0206851D02*
X0377700Y0206851D01*
X0376724Y0208449D02*
X0392400Y0208449D01*
X0392400Y0210048D02*
X0375162Y0210048D01*
X0376761Y0211646D02*
X0392400Y0211646D01*
X0392400Y0213245D02*
X0377700Y0213245D01*
X0377700Y0214843D02*
X0392400Y0214843D01*
X0392400Y0216442D02*
X0377700Y0216442D01*
X0377133Y0218040D02*
X0392400Y0218040D01*
X0392400Y0219639D02*
X0375534Y0219639D01*
X0368066Y0219639D02*
X0364686Y0219639D01*
X0366284Y0218040D02*
X0366467Y0218040D01*
X0361900Y0218040D02*
X0361700Y0218040D01*
X0361700Y0216442D02*
X0361900Y0216442D01*
X0361700Y0215130D02*
X0356500Y0215130D01*
X0351900Y0215130D01*
X0351900Y0214930D01*
X0361700Y0214930D01*
X0361700Y0215130D01*
X0361700Y0214929D02*
X0361900Y0214929D01*
X0361900Y0205130D01*
X0361700Y0205130D01*
X0361700Y0210330D01*
X0361700Y0214929D01*
X0361700Y0214843D02*
X0361900Y0214843D01*
X0361900Y0213245D02*
X0361700Y0213245D01*
X0361700Y0211646D02*
X0361900Y0211646D01*
X0361900Y0210048D02*
X0361700Y0210048D01*
X0361700Y0208449D02*
X0361900Y0208449D01*
X0361900Y0206851D02*
X0361700Y0206851D01*
X0361700Y0205252D02*
X0361900Y0205252D01*
X0361700Y0205130D02*
X0361700Y0204930D01*
X0351900Y0204930D01*
X0351900Y0205130D01*
X0351700Y0205130D01*
X0351700Y0210330D01*
X0351700Y0214929D01*
X0351900Y0214929D01*
X0351900Y0205130D01*
X0356500Y0205130D01*
X0361700Y0205130D01*
X0361700Y0203654D02*
X0361900Y0203654D01*
X0361900Y0202055D02*
X0361700Y0202055D01*
X0361700Y0200457D02*
X0361900Y0200457D01*
X0364723Y0200457D02*
X0368029Y0200457D01*
X0366430Y0202055D02*
X0366321Y0202055D01*
X0358877Y0200457D02*
X0354723Y0200457D01*
X0356321Y0202055D02*
X0357279Y0202055D01*
X0351900Y0202055D02*
X0351700Y0202055D01*
X0351700Y0200457D02*
X0351900Y0200457D01*
X0348877Y0200457D02*
X0344723Y0200457D01*
X0346321Y0202055D02*
X0347279Y0202055D01*
X0347100Y0205130D02*
X0341900Y0205130D01*
X0341700Y0205130D01*
X0341700Y0210330D01*
X0341700Y0214929D01*
X0341900Y0214929D01*
X0341900Y0205130D01*
X0341900Y0204930D01*
X0351700Y0204930D01*
X0351700Y0205130D01*
X0347100Y0205130D01*
X0351700Y0205252D02*
X0351900Y0205252D01*
X0351900Y0203654D02*
X0351700Y0203654D01*
X0351700Y0206851D02*
X0351900Y0206851D01*
X0351900Y0208449D02*
X0351700Y0208449D01*
X0351700Y0210048D02*
X0351900Y0210048D01*
X0351900Y0211646D02*
X0351700Y0211646D01*
X0351700Y0213245D02*
X0351900Y0213245D01*
X0351900Y0214843D02*
X0351700Y0214843D01*
X0351700Y0214930D02*
X0341900Y0214930D01*
X0341900Y0215130D01*
X0347100Y0215130D01*
X0351700Y0215130D01*
X0351700Y0214930D01*
X0351700Y0216442D02*
X0351900Y0216442D01*
X0351900Y0218040D02*
X0351700Y0218040D01*
X0351700Y0219639D02*
X0351900Y0219639D01*
X0354686Y0219639D02*
X0358914Y0219639D01*
X0357316Y0218040D02*
X0356284Y0218040D01*
X0361700Y0219639D02*
X0361900Y0219639D01*
X0348914Y0219639D02*
X0344686Y0219639D01*
X0346284Y0218040D02*
X0347316Y0218040D01*
X0341900Y0218040D02*
X0341700Y0218040D01*
X0341700Y0216442D02*
X0341900Y0216442D01*
X0341900Y0214843D02*
X0341700Y0214843D01*
X0341700Y0213245D02*
X0341900Y0213245D01*
X0341900Y0211646D02*
X0341700Y0211646D01*
X0341700Y0210048D02*
X0341900Y0210048D01*
X0341900Y0208449D02*
X0341700Y0208449D01*
X0341700Y0206851D02*
X0341900Y0206851D01*
X0341900Y0205252D02*
X0341700Y0205252D01*
X0341700Y0203654D02*
X0341900Y0203654D01*
X0341900Y0202055D02*
X0341700Y0202055D01*
X0341700Y0200457D02*
X0341900Y0200457D01*
X0338877Y0200457D02*
X0335571Y0200457D01*
X0337170Y0202055D02*
X0337279Y0202055D01*
X0319603Y0192464D02*
X0304383Y0192464D01*
X0305982Y0190866D02*
X0321282Y0190866D01*
X0322960Y0189267D02*
X0306750Y0189267D01*
X0306750Y0187669D02*
X0324554Y0187669D01*
X0324974Y0184472D02*
X0306260Y0184472D01*
X0306750Y0186070D02*
X0331091Y0186070D01*
X0323376Y0182873D02*
X0304662Y0182873D01*
X0295118Y0190866D02*
X0294626Y0190866D01*
X0294205Y0192464D02*
X0296717Y0192464D01*
X0297400Y0195661D02*
X0293194Y0195661D01*
X0293784Y0194063D02*
X0317925Y0194063D01*
X0316247Y0195661D02*
X0303700Y0195661D01*
X0305298Y0197260D02*
X0314568Y0197260D01*
X0312890Y0198858D02*
X0306750Y0198858D01*
X0306750Y0200457D02*
X0311211Y0200457D01*
X0309533Y0202055D02*
X0306750Y0202055D01*
X0306750Y0203654D02*
X0307854Y0203654D01*
X0306176Y0205252D02*
X0305345Y0205252D01*
X0304498Y0206851D02*
X0303747Y0206851D01*
X0302819Y0208449D02*
X0249130Y0208449D01*
X0249900Y0210048D02*
X0257612Y0210048D01*
X0258230Y0209430D02*
X0254950Y0212710D01*
X0254950Y0215029D01*
X0260550Y0215029D01*
X0260550Y0209430D01*
X0262870Y0209430D01*
X0266150Y0212710D01*
X0266150Y0215029D01*
X0260550Y0215029D01*
X0260550Y0215029D01*
X0260550Y0209430D01*
X0258230Y0209430D01*
X0260550Y0210048D02*
X0260550Y0210048D01*
X0260550Y0211646D02*
X0260550Y0211646D01*
X0260550Y0213245D02*
X0260550Y0213245D01*
X0260550Y0214843D02*
X0260550Y0214843D01*
X0260550Y0215029D02*
X0260550Y0215030D01*
X0260550Y0220630D01*
X0258230Y0220630D01*
X0254950Y0217349D01*
X0254950Y0215030D01*
X0260550Y0215030D01*
X0260550Y0215030D01*
X0260550Y0220630D01*
X0262870Y0220630D01*
X0266150Y0217349D01*
X0266150Y0215030D01*
X0260550Y0215030D01*
X0260550Y0215029D01*
X0260550Y0216442D02*
X0260550Y0216442D01*
X0260550Y0218040D02*
X0260550Y0218040D01*
X0260550Y0219639D02*
X0260550Y0219639D01*
X0263860Y0219639D02*
X0296391Y0219639D01*
X0294793Y0218040D02*
X0265459Y0218040D01*
X0266150Y0216442D02*
X0294350Y0216442D01*
X0294350Y0214843D02*
X0266150Y0214843D01*
X0266150Y0213245D02*
X0294350Y0213245D01*
X0295165Y0211646D02*
X0265086Y0211646D01*
X0263488Y0210048D02*
X0296763Y0210048D01*
X0297353Y0206851D02*
X0262898Y0206851D01*
X0256014Y0211646D02*
X0250190Y0211646D01*
X0249971Y0210196D02*
X0249971Y0210196D01*
X0250431Y0213245D02*
X0254950Y0213245D01*
X0254950Y0214843D02*
X0250672Y0214843D01*
X0250487Y0216442D02*
X0254950Y0216442D01*
X0255641Y0218040D02*
X0250246Y0218040D01*
X0250005Y0219639D02*
X0257240Y0219639D01*
X0249310Y0221237D02*
X0392400Y0221237D01*
X0392400Y0222836D02*
X0248540Y0222836D01*
X0247850Y0224268D02*
X0247850Y0224268D01*
X0247696Y0224435D02*
X0392400Y0224435D01*
X0392400Y0226033D02*
X0246213Y0226033D01*
X0304709Y0219639D02*
X0328066Y0219639D01*
X0326467Y0218040D02*
X0306307Y0218040D01*
X0306750Y0216442D02*
X0325900Y0216442D01*
X0335534Y0219639D02*
X0338914Y0219639D01*
X0337316Y0218040D02*
X0337133Y0218040D01*
X0341700Y0219639D02*
X0341900Y0219639D01*
X0175550Y0191280D02*
X0173050Y0201280D01*
X0129900Y0195661D02*
X0108200Y0195661D01*
X0108200Y0197260D02*
X0128302Y0197260D01*
X0126850Y0198858D02*
X0107022Y0198858D01*
X0105424Y0200457D02*
X0126850Y0200457D01*
X0126850Y0202055D02*
X0072694Y0202055D01*
X0071620Y0203130D02*
X0074900Y0199849D01*
X0074900Y0197530D01*
X0069300Y0197530D01*
X0069300Y0203130D01*
X0066980Y0203130D01*
X0063700Y0199849D01*
X0063700Y0197530D01*
X0069300Y0197530D01*
X0069300Y0197530D01*
X0069300Y0203130D01*
X0071620Y0203130D01*
X0069300Y0202055D02*
X0069300Y0202055D01*
X0069300Y0200457D02*
X0069300Y0200457D01*
X0069300Y0198858D02*
X0069300Y0198858D01*
X0069300Y0197530D02*
X0069300Y0197529D01*
X0069300Y0191930D01*
X0071620Y0191930D01*
X0074900Y0195210D01*
X0074900Y0197529D01*
X0069300Y0197529D01*
X0069300Y0197529D01*
X0069300Y0191930D01*
X0066980Y0191930D01*
X0063700Y0195210D01*
X0063700Y0197529D01*
X0069300Y0197529D01*
X0069300Y0197530D01*
X0069300Y0197260D02*
X0069300Y0197260D01*
X0069300Y0195661D02*
X0069300Y0195661D01*
X0069300Y0194063D02*
X0069300Y0194063D01*
X0069300Y0192464D02*
X0069300Y0192464D01*
X0072154Y0192464D02*
X0081650Y0192464D01*
X0081650Y0194063D02*
X0073753Y0194063D01*
X0074900Y0195661D02*
X0081650Y0195661D01*
X0081650Y0197260D02*
X0074900Y0197260D01*
X0074900Y0198858D02*
X0082828Y0198858D01*
X0084426Y0200457D02*
X0074292Y0200457D01*
X0065906Y0202055D02*
X0033542Y0202055D01*
X0035141Y0200457D02*
X0064308Y0200457D01*
X0063700Y0198858D02*
X0035500Y0198858D01*
X0035500Y0197260D02*
X0063700Y0197260D01*
X0063700Y0195661D02*
X0035500Y0195661D01*
X0034601Y0194063D02*
X0064847Y0194063D01*
X0066446Y0192464D02*
X0033003Y0192464D01*
X0027580Y0189267D02*
X0061020Y0189267D01*
X0059421Y0187669D02*
X0029179Y0187669D01*
X0030500Y0186348D02*
X0026868Y0189980D01*
X0021732Y0189980D01*
X0018100Y0186348D01*
X0018100Y0181211D01*
X0021732Y0177580D01*
X0026868Y0177580D01*
X0030500Y0181211D01*
X0030500Y0186348D01*
X0030500Y0186070D02*
X0058100Y0186070D01*
X0058100Y0184472D02*
X0030500Y0184472D01*
X0030500Y0182873D02*
X0058100Y0182873D01*
X0058100Y0181275D02*
X0030500Y0181275D01*
X0028965Y0179676D02*
X0059635Y0179676D01*
X0061234Y0178078D02*
X0027366Y0178078D01*
X0027144Y0176979D02*
X0027824Y0176871D01*
X0028479Y0176659D01*
X0029093Y0176346D01*
X0029650Y0175941D01*
X0030137Y0175454D01*
X0030542Y0174897D01*
X0030854Y0174284D01*
X0031067Y0173629D01*
X0031175Y0172949D01*
X0031175Y0170030D01*
X0026800Y0170030D01*
X0026800Y0176979D01*
X0026800Y0170030D01*
X0026800Y0170030D01*
X0026800Y0170029D01*
X0026800Y0163080D01*
X0027144Y0163080D01*
X0027824Y0163188D01*
X0028479Y0163400D01*
X0029093Y0163713D01*
X0029650Y0164118D01*
X0030137Y0164605D01*
X0030542Y0165162D01*
X0030854Y0165775D01*
X0031067Y0166430D01*
X0031175Y0167110D01*
X0031175Y0170029D01*
X0026800Y0170029D01*
X0026800Y0170029D01*
X0026800Y0163080D01*
X0026456Y0163080D01*
X0025776Y0163188D01*
X0025121Y0163400D01*
X0024507Y0163713D01*
X0023950Y0164118D01*
X0023463Y0164605D01*
X0023058Y0165162D01*
X0022746Y0165775D01*
X0022533Y0166430D01*
X0022425Y0167110D01*
X0022425Y0170029D01*
X0026800Y0170029D01*
X0026800Y0170030D01*
X0022425Y0170030D01*
X0022425Y0172949D01*
X0022533Y0173629D01*
X0022746Y0174284D01*
X0023058Y0174897D01*
X0023463Y0175454D01*
X0023950Y0175941D01*
X0024507Y0176346D01*
X0025121Y0176659D01*
X0025776Y0176871D01*
X0026456Y0176979D01*
X0026800Y0176979D01*
X0027144Y0176979D01*
X0026800Y0176479D02*
X0026800Y0176479D01*
X0026800Y0174881D02*
X0026800Y0174881D01*
X0026800Y0173282D02*
X0026800Y0173282D01*
X0026800Y0171684D02*
X0026800Y0171684D01*
X0026800Y0170085D02*
X0026800Y0170085D01*
X0026800Y0168487D02*
X0026800Y0168487D01*
X0026800Y0166888D02*
X0026800Y0166888D01*
X0026800Y0165290D02*
X0026800Y0165290D01*
X0026800Y0163691D02*
X0026800Y0163691D01*
X0029050Y0163691D02*
X0033528Y0163691D01*
X0033982Y0163237D02*
X0035810Y0162480D01*
X0037790Y0162480D01*
X0039618Y0163237D01*
X0041017Y0164637D01*
X0041775Y0166465D01*
X0041775Y0173594D01*
X0041017Y0175422D01*
X0039618Y0176822D01*
X0037790Y0177579D01*
X0035810Y0177579D01*
X0033982Y0176822D01*
X0032583Y0175422D01*
X0031825Y0173594D01*
X0031825Y0166465D01*
X0032583Y0164637D01*
X0033982Y0163237D01*
X0032312Y0165290D02*
X0030607Y0165290D01*
X0031140Y0166888D02*
X0031825Y0166888D01*
X0031825Y0168487D02*
X0031175Y0168487D01*
X0031175Y0170085D02*
X0031825Y0170085D01*
X0031825Y0171684D02*
X0031175Y0171684D01*
X0031122Y0173282D02*
X0031825Y0173282D01*
X0032358Y0174881D02*
X0030550Y0174881D01*
X0028832Y0176479D02*
X0033639Y0176479D01*
X0039961Y0176479D02*
X0043639Y0176479D01*
X0043982Y0176822D02*
X0042583Y0175422D01*
X0041825Y0173594D01*
X0041825Y0166465D01*
X0042583Y0164637D01*
X0043982Y0163237D01*
X0045810Y0162480D01*
X0047790Y0162480D01*
X0049618Y0163237D01*
X0051017Y0164637D01*
X0051775Y0166465D01*
X0051775Y0173594D01*
X0051017Y0175422D01*
X0049618Y0176822D01*
X0047790Y0177579D01*
X0045810Y0177579D01*
X0043982Y0176822D01*
X0042358Y0174881D02*
X0041242Y0174881D01*
X0041775Y0173282D02*
X0041825Y0173282D01*
X0041775Y0171684D02*
X0041825Y0171684D01*
X0041775Y0170085D02*
X0041825Y0170085D01*
X0041775Y0168487D02*
X0041825Y0168487D01*
X0041775Y0166888D02*
X0041825Y0166888D01*
X0042312Y0165290D02*
X0041288Y0165290D01*
X0040072Y0163691D02*
X0043528Y0163691D01*
X0050072Y0163691D02*
X0053528Y0163691D01*
X0053982Y0163237D02*
X0055810Y0162480D01*
X0057790Y0162480D01*
X0059618Y0163237D01*
X0061017Y0164637D01*
X0061775Y0166465D01*
X0061775Y0173594D01*
X0061017Y0175422D01*
X0059618Y0176822D01*
X0057790Y0177579D01*
X0055810Y0177579D01*
X0053982Y0176822D01*
X0052583Y0175422D01*
X0051825Y0173594D01*
X0051825Y0166465D01*
X0052583Y0164637D01*
X0053982Y0163237D01*
X0052312Y0165290D02*
X0051288Y0165290D01*
X0051775Y0166888D02*
X0051825Y0166888D01*
X0051775Y0168487D02*
X0051825Y0168487D01*
X0051775Y0170085D02*
X0051825Y0170085D01*
X0051775Y0171684D02*
X0051825Y0171684D01*
X0051775Y0173282D02*
X0051825Y0173282D01*
X0052358Y0174881D02*
X0051242Y0174881D01*
X0049961Y0176479D02*
X0053639Y0176479D01*
X0059961Y0176479D02*
X0064768Y0176479D01*
X0064507Y0176346D02*
X0063950Y0175941D01*
X0063463Y0175454D01*
X0063058Y0174897D01*
X0062746Y0174284D01*
X0062533Y0173629D01*
X0062425Y0172949D01*
X0062425Y0170030D01*
X0066800Y0170030D01*
X0066800Y0176979D01*
X0066800Y0170030D01*
X0066800Y0170030D01*
X0071175Y0170030D01*
X0071175Y0172949D01*
X0071067Y0173629D01*
X0070854Y0174284D01*
X0070542Y0174897D01*
X0070137Y0175454D01*
X0069650Y0175941D01*
X0069093Y0176346D01*
X0068479Y0176659D01*
X0067824Y0176871D01*
X0067144Y0176979D01*
X0066800Y0176979D01*
X0066456Y0176979D01*
X0065776Y0176871D01*
X0065121Y0176659D01*
X0064507Y0176346D01*
X0063050Y0174881D02*
X0061242Y0174881D01*
X0061775Y0173282D02*
X0062478Y0173282D01*
X0062425Y0171684D02*
X0061775Y0171684D01*
X0061775Y0170085D02*
X0062425Y0170085D01*
X0062425Y0170029D02*
X0062425Y0167110D01*
X0062533Y0166430D01*
X0062746Y0165775D01*
X0063058Y0165162D01*
X0063463Y0164605D01*
X0063950Y0164118D01*
X0064507Y0163713D01*
X0065121Y0163400D01*
X0065776Y0163188D01*
X0066456Y0163080D01*
X0066800Y0163080D01*
X0067144Y0163080D01*
X0067824Y0163188D01*
X0068479Y0163400D01*
X0069093Y0163713D01*
X0069650Y0164118D01*
X0070137Y0164605D01*
X0070542Y0165162D01*
X0070854Y0165775D01*
X0071067Y0166430D01*
X0071175Y0167110D01*
X0071175Y0170029D01*
X0066800Y0170029D01*
X0066800Y0163080D01*
X0066800Y0170029D01*
X0066800Y0170029D01*
X0066800Y0170030D01*
X0066800Y0170029D01*
X0062425Y0170029D01*
X0062425Y0168487D02*
X0061775Y0168487D01*
X0061775Y0166888D02*
X0062460Y0166888D01*
X0062993Y0165290D02*
X0061288Y0165290D01*
X0060072Y0163691D02*
X0064550Y0163691D01*
X0066800Y0163691D02*
X0066800Y0163691D01*
X0066800Y0165290D02*
X0066800Y0165290D01*
X0066800Y0166888D02*
X0066800Y0166888D01*
X0066800Y0168487D02*
X0066800Y0168487D01*
X0066800Y0170085D02*
X0066800Y0170085D01*
X0066800Y0171684D02*
X0066800Y0171684D01*
X0066800Y0173282D02*
X0066800Y0173282D01*
X0066800Y0174881D02*
X0066800Y0174881D01*
X0066800Y0176479D02*
X0066800Y0176479D01*
X0067366Y0178078D02*
X0072170Y0178078D01*
X0073639Y0176479D02*
X0068832Y0176479D01*
X0070550Y0174881D02*
X0072358Y0174881D01*
X0071825Y0173282D02*
X0071122Y0173282D01*
X0071175Y0171684D02*
X0071825Y0171684D01*
X0071825Y0170085D02*
X0071175Y0170085D01*
X0071175Y0168487D02*
X0071825Y0168487D01*
X0071825Y0166888D02*
X0071140Y0166888D01*
X0070607Y0165290D02*
X0072312Y0165290D01*
X0073528Y0163691D02*
X0069050Y0163691D01*
X0080072Y0163691D02*
X0083528Y0163691D01*
X0082312Y0165290D02*
X0081288Y0165290D01*
X0081775Y0166888D02*
X0081825Y0166888D01*
X0081775Y0168487D02*
X0081825Y0168487D01*
X0081775Y0170085D02*
X0081825Y0170085D01*
X0086800Y0170030D02*
X0076800Y0180030D01*
X0064300Y0183780D01*
X0069179Y0187669D02*
X0087130Y0187669D01*
X0087663Y0186070D02*
X0070500Y0186070D01*
X0073129Y0184472D02*
X0088196Y0184472D01*
X0088718Y0182873D02*
X0078376Y0182873D01*
X0080080Y0181275D02*
X0089038Y0181275D01*
X0089357Y0179676D02*
X0081679Y0179676D01*
X0083277Y0178078D02*
X0089677Y0178078D01*
X0084761Y0189267D02*
X0067580Y0189267D01*
X0083163Y0190866D02*
X0014732Y0190866D01*
X0014368Y0191230D02*
X0009232Y0191230D01*
X0005600Y0187598D01*
X0005600Y0182461D01*
X0009232Y0178830D01*
X0014368Y0178830D01*
X0018000Y0182461D01*
X0018000Y0187598D01*
X0014368Y0191230D01*
X0016330Y0189267D02*
X0021020Y0189267D01*
X0019421Y0187669D02*
X0017929Y0187669D01*
X0018000Y0186070D02*
X0018100Y0186070D01*
X0018100Y0184472D02*
X0018000Y0184472D01*
X0018000Y0182873D02*
X0018100Y0182873D01*
X0018100Y0181275D02*
X0016813Y0181275D01*
X0015215Y0179676D02*
X0019635Y0179676D01*
X0021234Y0178078D02*
X0004200Y0178078D01*
X0004200Y0179676D02*
X0008385Y0179676D01*
X0006787Y0181275D02*
X0004200Y0181275D01*
X0004200Y0182873D02*
X0005600Y0182873D01*
X0005600Y0184472D02*
X0004200Y0184472D01*
X0004200Y0186070D02*
X0005600Y0186070D01*
X0005671Y0187669D02*
X0004200Y0187669D01*
X0004200Y0189267D02*
X0007270Y0189267D01*
X0008868Y0190866D02*
X0004200Y0190866D01*
X0004200Y0192464D02*
X0025597Y0192464D01*
X0023999Y0194063D02*
X0004200Y0194063D01*
X0004200Y0195661D02*
X0023100Y0195661D01*
X0023100Y0197260D02*
X0004200Y0197260D01*
X0004200Y0198858D02*
X0015584Y0198858D01*
X0013151Y0199041D02*
X0013151Y0199041D01*
X0009542Y0200457D02*
X0004200Y0200457D01*
X0004200Y0202055D02*
X0007059Y0202055D01*
X0008600Y0200827D02*
X0008600Y0200827D01*
X0005055Y0203654D02*
X0004200Y0203654D01*
X0004778Y0203875D02*
X0004778Y0203875D01*
X0018026Y0198675D02*
X0018026Y0198675D01*
X0018827Y0198858D02*
X0023100Y0198858D01*
X0022792Y0199763D02*
X0022792Y0199763D01*
X0029850Y0205252D02*
X0128255Y0205252D01*
X0126850Y0203654D02*
X0031944Y0203654D01*
X0030350Y0205791D02*
X0030350Y0205791D01*
X0030861Y0206851D02*
X0129853Y0206851D01*
X0098176Y0200457D02*
X0091674Y0200457D01*
X0093272Y0198858D02*
X0096578Y0198858D01*
X0095400Y0197260D02*
X0094450Y0197260D01*
X0024768Y0176479D02*
X0004200Y0176479D01*
X0004200Y0174881D02*
X0023050Y0174881D01*
X0022478Y0173282D02*
X0004200Y0173282D01*
X0004200Y0171684D02*
X0022425Y0171684D01*
X0022425Y0170085D02*
X0004200Y0170085D01*
X0004200Y0168487D02*
X0022425Y0168487D01*
X0022460Y0166888D02*
X0004200Y0166888D01*
X0004200Y0165290D02*
X0022993Y0165290D01*
X0024550Y0163691D02*
X0004200Y0163691D01*
X0004200Y0136516D02*
X0021825Y0136516D01*
X0022466Y0134918D02*
X0004200Y0134918D01*
X0004200Y0130122D02*
X0008125Y0130122D01*
X0006526Y0128524D02*
X0004200Y0128524D01*
X0004200Y0126925D02*
X0005600Y0126925D01*
X0005600Y0125327D02*
X0004200Y0125327D01*
X0004200Y0123728D02*
X0005600Y0123728D01*
X0005932Y0122130D02*
X0004200Y0122130D01*
X0004200Y0120531D02*
X0007530Y0120531D01*
X0009129Y0118933D02*
X0004200Y0118933D01*
X0004200Y0117334D02*
X0009087Y0117334D01*
X0007488Y0115736D02*
X0004200Y0115736D01*
X0004200Y0114137D02*
X0005890Y0114137D01*
X0005600Y0112539D02*
X0004200Y0112539D01*
X0004200Y0110940D02*
X0005600Y0110940D01*
X0005600Y0109342D02*
X0004200Y0109342D01*
X0004200Y0107743D02*
X0006568Y0107743D01*
X0008167Y0106145D02*
X0004200Y0106145D01*
X0056112Y0115736D02*
X0058738Y0115736D01*
D20*
X0206800Y0175030D03*
M02*
