G75*
%MOIN*%
%OFA0B0*%
%FSLAX25Y25*%
%IPPOS*%
%LPD*%
%AMOC8*
5,1,8,0,0,1.08239X$1,22.5*
%
%ADD10C,0.00000*%
%ADD11C,0.00400*%
D10*
X0001800Y0015030D02*
X0001800Y0229990D01*
X0394800Y0229990D01*
X0394800Y0015030D01*
X0001800Y0015030D01*
X0011288Y0215030D02*
X0011290Y0215178D01*
X0011296Y0215326D01*
X0011306Y0215474D01*
X0011320Y0215621D01*
X0011338Y0215768D01*
X0011359Y0215914D01*
X0011385Y0216060D01*
X0011415Y0216205D01*
X0011448Y0216349D01*
X0011486Y0216492D01*
X0011527Y0216634D01*
X0011572Y0216775D01*
X0011620Y0216915D01*
X0011673Y0217054D01*
X0011729Y0217191D01*
X0011789Y0217326D01*
X0011852Y0217460D01*
X0011919Y0217592D01*
X0011990Y0217722D01*
X0012064Y0217850D01*
X0012141Y0217976D01*
X0012222Y0218100D01*
X0012306Y0218222D01*
X0012393Y0218341D01*
X0012484Y0218458D01*
X0012578Y0218573D01*
X0012674Y0218685D01*
X0012774Y0218795D01*
X0012876Y0218901D01*
X0012982Y0219005D01*
X0013090Y0219106D01*
X0013201Y0219204D01*
X0013314Y0219300D01*
X0013430Y0219392D01*
X0013548Y0219481D01*
X0013669Y0219566D01*
X0013792Y0219649D01*
X0013917Y0219728D01*
X0014044Y0219804D01*
X0014173Y0219876D01*
X0014304Y0219945D01*
X0014437Y0220010D01*
X0014572Y0220071D01*
X0014708Y0220129D01*
X0014845Y0220184D01*
X0014984Y0220234D01*
X0015125Y0220281D01*
X0015266Y0220324D01*
X0015409Y0220364D01*
X0015553Y0220399D01*
X0015697Y0220431D01*
X0015843Y0220458D01*
X0015989Y0220482D01*
X0016136Y0220502D01*
X0016283Y0220518D01*
X0016430Y0220530D01*
X0016578Y0220538D01*
X0016726Y0220542D01*
X0016874Y0220542D01*
X0017022Y0220538D01*
X0017170Y0220530D01*
X0017317Y0220518D01*
X0017464Y0220502D01*
X0017611Y0220482D01*
X0017757Y0220458D01*
X0017903Y0220431D01*
X0018047Y0220399D01*
X0018191Y0220364D01*
X0018334Y0220324D01*
X0018475Y0220281D01*
X0018616Y0220234D01*
X0018755Y0220184D01*
X0018892Y0220129D01*
X0019028Y0220071D01*
X0019163Y0220010D01*
X0019296Y0219945D01*
X0019427Y0219876D01*
X0019556Y0219804D01*
X0019683Y0219728D01*
X0019808Y0219649D01*
X0019931Y0219566D01*
X0020052Y0219481D01*
X0020170Y0219392D01*
X0020286Y0219300D01*
X0020399Y0219204D01*
X0020510Y0219106D01*
X0020618Y0219005D01*
X0020724Y0218901D01*
X0020826Y0218795D01*
X0020926Y0218685D01*
X0021022Y0218573D01*
X0021116Y0218458D01*
X0021207Y0218341D01*
X0021294Y0218222D01*
X0021378Y0218100D01*
X0021459Y0217976D01*
X0021536Y0217850D01*
X0021610Y0217722D01*
X0021681Y0217592D01*
X0021748Y0217460D01*
X0021811Y0217326D01*
X0021871Y0217191D01*
X0021927Y0217054D01*
X0021980Y0216915D01*
X0022028Y0216775D01*
X0022073Y0216634D01*
X0022114Y0216492D01*
X0022152Y0216349D01*
X0022185Y0216205D01*
X0022215Y0216060D01*
X0022241Y0215914D01*
X0022262Y0215768D01*
X0022280Y0215621D01*
X0022294Y0215474D01*
X0022304Y0215326D01*
X0022310Y0215178D01*
X0022312Y0215030D01*
X0022310Y0214882D01*
X0022304Y0214734D01*
X0022294Y0214586D01*
X0022280Y0214439D01*
X0022262Y0214292D01*
X0022241Y0214146D01*
X0022215Y0214000D01*
X0022185Y0213855D01*
X0022152Y0213711D01*
X0022114Y0213568D01*
X0022073Y0213426D01*
X0022028Y0213285D01*
X0021980Y0213145D01*
X0021927Y0213006D01*
X0021871Y0212869D01*
X0021811Y0212734D01*
X0021748Y0212600D01*
X0021681Y0212468D01*
X0021610Y0212338D01*
X0021536Y0212210D01*
X0021459Y0212084D01*
X0021378Y0211960D01*
X0021294Y0211838D01*
X0021207Y0211719D01*
X0021116Y0211602D01*
X0021022Y0211487D01*
X0020926Y0211375D01*
X0020826Y0211265D01*
X0020724Y0211159D01*
X0020618Y0211055D01*
X0020510Y0210954D01*
X0020399Y0210856D01*
X0020286Y0210760D01*
X0020170Y0210668D01*
X0020052Y0210579D01*
X0019931Y0210494D01*
X0019808Y0210411D01*
X0019683Y0210332D01*
X0019556Y0210256D01*
X0019427Y0210184D01*
X0019296Y0210115D01*
X0019163Y0210050D01*
X0019028Y0209989D01*
X0018892Y0209931D01*
X0018755Y0209876D01*
X0018616Y0209826D01*
X0018475Y0209779D01*
X0018334Y0209736D01*
X0018191Y0209696D01*
X0018047Y0209661D01*
X0017903Y0209629D01*
X0017757Y0209602D01*
X0017611Y0209578D01*
X0017464Y0209558D01*
X0017317Y0209542D01*
X0017170Y0209530D01*
X0017022Y0209522D01*
X0016874Y0209518D01*
X0016726Y0209518D01*
X0016578Y0209522D01*
X0016430Y0209530D01*
X0016283Y0209542D01*
X0016136Y0209558D01*
X0015989Y0209578D01*
X0015843Y0209602D01*
X0015697Y0209629D01*
X0015553Y0209661D01*
X0015409Y0209696D01*
X0015266Y0209736D01*
X0015125Y0209779D01*
X0014984Y0209826D01*
X0014845Y0209876D01*
X0014708Y0209931D01*
X0014572Y0209989D01*
X0014437Y0210050D01*
X0014304Y0210115D01*
X0014173Y0210184D01*
X0014044Y0210256D01*
X0013917Y0210332D01*
X0013792Y0210411D01*
X0013669Y0210494D01*
X0013548Y0210579D01*
X0013430Y0210668D01*
X0013314Y0210760D01*
X0013201Y0210856D01*
X0013090Y0210954D01*
X0012982Y0211055D01*
X0012876Y0211159D01*
X0012774Y0211265D01*
X0012674Y0211375D01*
X0012578Y0211487D01*
X0012484Y0211602D01*
X0012393Y0211719D01*
X0012306Y0211838D01*
X0012222Y0211960D01*
X0012141Y0212084D01*
X0012064Y0212210D01*
X0011990Y0212338D01*
X0011919Y0212468D01*
X0011852Y0212600D01*
X0011789Y0212734D01*
X0011729Y0212869D01*
X0011673Y0213006D01*
X0011620Y0213145D01*
X0011572Y0213285D01*
X0011527Y0213426D01*
X0011486Y0213568D01*
X0011448Y0213711D01*
X0011415Y0213855D01*
X0011385Y0214000D01*
X0011359Y0214146D01*
X0011338Y0214292D01*
X0011320Y0214439D01*
X0011306Y0214586D01*
X0011296Y0214734D01*
X0011290Y0214882D01*
X0011288Y0215030D01*
X0228788Y0215030D02*
X0228790Y0215178D01*
X0228796Y0215326D01*
X0228806Y0215474D01*
X0228820Y0215621D01*
X0228838Y0215768D01*
X0228859Y0215914D01*
X0228885Y0216060D01*
X0228915Y0216205D01*
X0228948Y0216349D01*
X0228986Y0216492D01*
X0229027Y0216634D01*
X0229072Y0216775D01*
X0229120Y0216915D01*
X0229173Y0217054D01*
X0229229Y0217191D01*
X0229289Y0217326D01*
X0229352Y0217460D01*
X0229419Y0217592D01*
X0229490Y0217722D01*
X0229564Y0217850D01*
X0229641Y0217976D01*
X0229722Y0218100D01*
X0229806Y0218222D01*
X0229893Y0218341D01*
X0229984Y0218458D01*
X0230078Y0218573D01*
X0230174Y0218685D01*
X0230274Y0218795D01*
X0230376Y0218901D01*
X0230482Y0219005D01*
X0230590Y0219106D01*
X0230701Y0219204D01*
X0230814Y0219300D01*
X0230930Y0219392D01*
X0231048Y0219481D01*
X0231169Y0219566D01*
X0231292Y0219649D01*
X0231417Y0219728D01*
X0231544Y0219804D01*
X0231673Y0219876D01*
X0231804Y0219945D01*
X0231937Y0220010D01*
X0232072Y0220071D01*
X0232208Y0220129D01*
X0232345Y0220184D01*
X0232484Y0220234D01*
X0232625Y0220281D01*
X0232766Y0220324D01*
X0232909Y0220364D01*
X0233053Y0220399D01*
X0233197Y0220431D01*
X0233343Y0220458D01*
X0233489Y0220482D01*
X0233636Y0220502D01*
X0233783Y0220518D01*
X0233930Y0220530D01*
X0234078Y0220538D01*
X0234226Y0220542D01*
X0234374Y0220542D01*
X0234522Y0220538D01*
X0234670Y0220530D01*
X0234817Y0220518D01*
X0234964Y0220502D01*
X0235111Y0220482D01*
X0235257Y0220458D01*
X0235403Y0220431D01*
X0235547Y0220399D01*
X0235691Y0220364D01*
X0235834Y0220324D01*
X0235975Y0220281D01*
X0236116Y0220234D01*
X0236255Y0220184D01*
X0236392Y0220129D01*
X0236528Y0220071D01*
X0236663Y0220010D01*
X0236796Y0219945D01*
X0236927Y0219876D01*
X0237056Y0219804D01*
X0237183Y0219728D01*
X0237308Y0219649D01*
X0237431Y0219566D01*
X0237552Y0219481D01*
X0237670Y0219392D01*
X0237786Y0219300D01*
X0237899Y0219204D01*
X0238010Y0219106D01*
X0238118Y0219005D01*
X0238224Y0218901D01*
X0238326Y0218795D01*
X0238426Y0218685D01*
X0238522Y0218573D01*
X0238616Y0218458D01*
X0238707Y0218341D01*
X0238794Y0218222D01*
X0238878Y0218100D01*
X0238959Y0217976D01*
X0239036Y0217850D01*
X0239110Y0217722D01*
X0239181Y0217592D01*
X0239248Y0217460D01*
X0239311Y0217326D01*
X0239371Y0217191D01*
X0239427Y0217054D01*
X0239480Y0216915D01*
X0239528Y0216775D01*
X0239573Y0216634D01*
X0239614Y0216492D01*
X0239652Y0216349D01*
X0239685Y0216205D01*
X0239715Y0216060D01*
X0239741Y0215914D01*
X0239762Y0215768D01*
X0239780Y0215621D01*
X0239794Y0215474D01*
X0239804Y0215326D01*
X0239810Y0215178D01*
X0239812Y0215030D01*
X0239810Y0214882D01*
X0239804Y0214734D01*
X0239794Y0214586D01*
X0239780Y0214439D01*
X0239762Y0214292D01*
X0239741Y0214146D01*
X0239715Y0214000D01*
X0239685Y0213855D01*
X0239652Y0213711D01*
X0239614Y0213568D01*
X0239573Y0213426D01*
X0239528Y0213285D01*
X0239480Y0213145D01*
X0239427Y0213006D01*
X0239371Y0212869D01*
X0239311Y0212734D01*
X0239248Y0212600D01*
X0239181Y0212468D01*
X0239110Y0212338D01*
X0239036Y0212210D01*
X0238959Y0212084D01*
X0238878Y0211960D01*
X0238794Y0211838D01*
X0238707Y0211719D01*
X0238616Y0211602D01*
X0238522Y0211487D01*
X0238426Y0211375D01*
X0238326Y0211265D01*
X0238224Y0211159D01*
X0238118Y0211055D01*
X0238010Y0210954D01*
X0237899Y0210856D01*
X0237786Y0210760D01*
X0237670Y0210668D01*
X0237552Y0210579D01*
X0237431Y0210494D01*
X0237308Y0210411D01*
X0237183Y0210332D01*
X0237056Y0210256D01*
X0236927Y0210184D01*
X0236796Y0210115D01*
X0236663Y0210050D01*
X0236528Y0209989D01*
X0236392Y0209931D01*
X0236255Y0209876D01*
X0236116Y0209826D01*
X0235975Y0209779D01*
X0235834Y0209736D01*
X0235691Y0209696D01*
X0235547Y0209661D01*
X0235403Y0209629D01*
X0235257Y0209602D01*
X0235111Y0209578D01*
X0234964Y0209558D01*
X0234817Y0209542D01*
X0234670Y0209530D01*
X0234522Y0209522D01*
X0234374Y0209518D01*
X0234226Y0209518D01*
X0234078Y0209522D01*
X0233930Y0209530D01*
X0233783Y0209542D01*
X0233636Y0209558D01*
X0233489Y0209578D01*
X0233343Y0209602D01*
X0233197Y0209629D01*
X0233053Y0209661D01*
X0232909Y0209696D01*
X0232766Y0209736D01*
X0232625Y0209779D01*
X0232484Y0209826D01*
X0232345Y0209876D01*
X0232208Y0209931D01*
X0232072Y0209989D01*
X0231937Y0210050D01*
X0231804Y0210115D01*
X0231673Y0210184D01*
X0231544Y0210256D01*
X0231417Y0210332D01*
X0231292Y0210411D01*
X0231169Y0210494D01*
X0231048Y0210579D01*
X0230930Y0210668D01*
X0230814Y0210760D01*
X0230701Y0210856D01*
X0230590Y0210954D01*
X0230482Y0211055D01*
X0230376Y0211159D01*
X0230274Y0211265D01*
X0230174Y0211375D01*
X0230078Y0211487D01*
X0229984Y0211602D01*
X0229893Y0211719D01*
X0229806Y0211838D01*
X0229722Y0211960D01*
X0229641Y0212084D01*
X0229564Y0212210D01*
X0229490Y0212338D01*
X0229419Y0212468D01*
X0229352Y0212600D01*
X0229289Y0212734D01*
X0229229Y0212869D01*
X0229173Y0213006D01*
X0229120Y0213145D01*
X0229072Y0213285D01*
X0229027Y0213426D01*
X0228986Y0213568D01*
X0228948Y0213711D01*
X0228915Y0213855D01*
X0228885Y0214000D01*
X0228859Y0214146D01*
X0228838Y0214292D01*
X0228820Y0214439D01*
X0228806Y0214586D01*
X0228796Y0214734D01*
X0228790Y0214882D01*
X0228788Y0215030D01*
D11*
X0273935Y0056301D02*
X0273935Y0055434D01*
X0273935Y0053699D02*
X0273935Y0050230D01*
X0274802Y0050230D02*
X0273067Y0050230D01*
X0271365Y0051097D02*
X0271365Y0052832D01*
X0270497Y0053699D01*
X0267895Y0053699D01*
X0267895Y0055434D02*
X0267895Y0050230D01*
X0270497Y0050230D01*
X0271365Y0051097D01*
X0273935Y0053699D02*
X0274802Y0053699D01*
X0276489Y0051964D02*
X0276489Y0055434D01*
X0279959Y0055434D02*
X0279959Y0051964D01*
X0278224Y0050230D01*
X0276489Y0051964D01*
X0281645Y0051964D02*
X0285115Y0051964D01*
X0285115Y0051097D02*
X0285115Y0052832D01*
X0284248Y0053699D01*
X0282513Y0053699D01*
X0281645Y0052832D01*
X0281645Y0051964D01*
X0282513Y0050230D02*
X0284248Y0050230D01*
X0285115Y0051097D01*
X0286818Y0050230D02*
X0288553Y0050230D01*
X0287685Y0050230D02*
X0287685Y0055434D01*
X0288553Y0055434D01*
X0291107Y0053699D02*
X0290239Y0052832D01*
X0290239Y0051097D01*
X0291107Y0050230D01*
X0293709Y0050230D01*
X0295412Y0050230D02*
X0297147Y0050230D01*
X0296279Y0050230D02*
X0296279Y0053699D01*
X0297147Y0053699D01*
X0298841Y0053699D02*
X0299709Y0053699D01*
X0301444Y0051964D01*
X0301444Y0050230D02*
X0301444Y0053699D01*
X0303130Y0055434D02*
X0306600Y0055434D01*
X0304865Y0055434D02*
X0304865Y0050230D01*
X0303531Y0044549D02*
X0305065Y0041480D01*
X0306600Y0044549D01*
X0301996Y0044549D02*
X0300461Y0046083D01*
X0300461Y0041480D01*
X0298927Y0041480D02*
X0301996Y0041480D01*
X0292788Y0043781D02*
X0289719Y0043781D01*
X0283580Y0045316D02*
X0282813Y0046083D01*
X0281278Y0046083D01*
X0280511Y0045316D01*
X0280511Y0044549D01*
X0283580Y0041480D01*
X0280511Y0041480D01*
X0278976Y0042247D02*
X0275907Y0045316D01*
X0275907Y0042247D01*
X0276674Y0041480D01*
X0278209Y0041480D01*
X0278976Y0042247D01*
X0278976Y0045316D01*
X0278209Y0046083D01*
X0276674Y0046083D01*
X0275907Y0045316D01*
X0274373Y0044549D02*
X0272838Y0046083D01*
X0272838Y0041480D01*
X0274373Y0041480D02*
X0271303Y0041480D01*
X0269769Y0041480D02*
X0269769Y0042247D01*
X0266699Y0045316D01*
X0266699Y0046083D01*
X0269769Y0046083D01*
X0265341Y0050230D02*
X0266208Y0051097D01*
X0266208Y0052832D01*
X0265341Y0053699D01*
X0263606Y0053699D01*
X0262739Y0052832D01*
X0262739Y0051964D01*
X0266208Y0051964D01*
X0265341Y0050230D02*
X0263606Y0050230D01*
X0261052Y0051097D02*
X0260184Y0050230D01*
X0258450Y0050230D01*
X0257582Y0051097D01*
X0257582Y0052832D01*
X0258450Y0053699D01*
X0260184Y0053699D01*
X0261052Y0052832D01*
X0261052Y0051097D01*
X0255895Y0051964D02*
X0255895Y0055434D01*
X0252426Y0055434D02*
X0252426Y0051964D01*
X0254161Y0050230D01*
X0255895Y0051964D01*
X0250739Y0051097D02*
X0249872Y0050230D01*
X0248137Y0050230D01*
X0247269Y0051097D01*
X0245583Y0050230D02*
X0245583Y0053699D01*
X0243848Y0055434D01*
X0242113Y0053699D01*
X0242113Y0050230D01*
X0242113Y0052832D02*
X0245583Y0052832D01*
X0247269Y0054567D02*
X0248137Y0055434D01*
X0249872Y0055434D01*
X0250739Y0054567D01*
X0250739Y0051097D01*
X0291107Y0053699D02*
X0293709Y0053699D01*
X0293709Y0048495D01*
X0296279Y0055434D02*
X0296279Y0056301D01*
X0171600Y0054833D02*
X0171600Y0050230D01*
X0168531Y0050230D01*
X0166996Y0050997D02*
X0166229Y0051764D01*
X0163927Y0051764D01*
X0163927Y0052531D02*
X0163927Y0050230D01*
X0166229Y0050230D01*
X0166996Y0050997D01*
X0166229Y0053299D02*
X0164694Y0053299D01*
X0163927Y0052531D01*
X0162392Y0053299D02*
X0162392Y0050997D01*
X0161625Y0050230D01*
X0159323Y0050230D01*
X0159323Y0049462D02*
X0160090Y0048695D01*
X0160858Y0048695D01*
X0159323Y0049462D02*
X0159323Y0053299D01*
X0157788Y0052531D02*
X0157788Y0050997D01*
X0157021Y0050230D01*
X0155486Y0050230D01*
X0154719Y0050997D01*
X0154719Y0052531D01*
X0155486Y0053299D01*
X0157021Y0053299D01*
X0157788Y0052531D01*
X0153184Y0053299D02*
X0153184Y0050997D01*
X0152417Y0050230D01*
X0150115Y0050230D01*
X0150115Y0053299D01*
X0148580Y0053299D02*
X0147046Y0053299D01*
X0147813Y0054066D02*
X0147813Y0050997D01*
X0147046Y0050230D01*
X0145511Y0050230D02*
X0145511Y0050997D01*
X0144744Y0050997D01*
X0144744Y0050230D01*
X0145511Y0050230D01*
X0145511Y0052531D02*
X0145511Y0053299D01*
X0144744Y0053299D01*
X0144744Y0052531D01*
X0145511Y0052531D01*
X0138605Y0051764D02*
X0137071Y0053299D01*
X0136303Y0053299D01*
X0134769Y0052531D02*
X0134769Y0050997D01*
X0134001Y0050230D01*
X0132467Y0050230D01*
X0131699Y0051764D02*
X0134769Y0051764D01*
X0134769Y0052531D02*
X0134001Y0053299D01*
X0132467Y0053299D01*
X0131699Y0052531D01*
X0131699Y0051764D01*
X0130165Y0053299D02*
X0128630Y0050230D01*
X0127095Y0053299D01*
X0125561Y0052531D02*
X0124793Y0053299D01*
X0123259Y0053299D01*
X0122491Y0052531D01*
X0122491Y0051764D01*
X0125561Y0051764D01*
X0125561Y0050997D02*
X0125561Y0052531D01*
X0125561Y0050997D02*
X0124793Y0050230D01*
X0123259Y0050230D01*
X0120957Y0050230D02*
X0120957Y0053299D01*
X0120957Y0051764D02*
X0119422Y0053299D01*
X0118655Y0053299D01*
X0117120Y0052531D02*
X0116353Y0053299D01*
X0114051Y0053299D01*
X0112516Y0052531D02*
X0111749Y0053299D01*
X0110214Y0053299D01*
X0109447Y0052531D01*
X0109447Y0051764D01*
X0112516Y0051764D01*
X0112516Y0050997D02*
X0112516Y0052531D01*
X0112516Y0050997D02*
X0111749Y0050230D01*
X0110214Y0050230D01*
X0107912Y0050230D02*
X0106378Y0050230D01*
X0107145Y0050230D02*
X0107145Y0054833D01*
X0107912Y0054833D01*
X0104076Y0053299D02*
X0102541Y0053299D01*
X0101774Y0052531D01*
X0101774Y0050230D01*
X0104076Y0050230D01*
X0104843Y0050997D01*
X0104076Y0051764D01*
X0101774Y0051764D01*
X0100239Y0050230D02*
X0100239Y0053299D01*
X0097937Y0053299D01*
X0097170Y0052531D01*
X0097170Y0050230D01*
X0095635Y0050997D02*
X0095635Y0052531D01*
X0094868Y0053299D01*
X0092566Y0053299D01*
X0092566Y0054833D02*
X0092566Y0050230D01*
X0094868Y0050230D01*
X0095635Y0050997D01*
X0091031Y0052531D02*
X0089497Y0052531D01*
X0090264Y0054066D02*
X0090264Y0050230D01*
X0087962Y0050230D02*
X0086427Y0050230D01*
X0087195Y0050230D02*
X0087195Y0053299D01*
X0087962Y0053299D01*
X0087195Y0054833D02*
X0087195Y0055601D01*
X0089497Y0054833D02*
X0090264Y0054066D01*
X0084893Y0054833D02*
X0084125Y0054833D01*
X0084125Y0050230D01*
X0083358Y0050230D02*
X0084893Y0050230D01*
X0081823Y0050230D02*
X0080289Y0050230D01*
X0081056Y0050230D02*
X0081056Y0054833D01*
X0081823Y0054833D01*
X0087962Y0044833D02*
X0091031Y0040230D01*
X0092566Y0040230D02*
X0095635Y0040230D01*
X0095635Y0040997D01*
X0092566Y0044066D01*
X0092566Y0044833D01*
X0095635Y0044833D01*
X0091031Y0044833D02*
X0087962Y0040230D01*
X0097170Y0040230D02*
X0100239Y0040230D01*
X0100239Y0044833D01*
X0106378Y0042531D02*
X0106378Y0040230D01*
X0106378Y0042531D02*
X0107145Y0043299D01*
X0109447Y0043299D01*
X0109447Y0040230D01*
X0110982Y0041764D02*
X0114051Y0041764D01*
X0114051Y0040997D02*
X0114051Y0042531D01*
X0113284Y0043299D01*
X0111749Y0043299D01*
X0110982Y0042531D01*
X0110982Y0041764D01*
X0111749Y0040230D02*
X0113284Y0040230D01*
X0114051Y0040997D01*
X0115586Y0040997D02*
X0116353Y0041764D01*
X0117888Y0041764D01*
X0118655Y0042531D01*
X0117888Y0043299D01*
X0115586Y0043299D01*
X0115586Y0040997D02*
X0116353Y0040230D01*
X0118655Y0040230D01*
X0120190Y0043299D02*
X0120957Y0043299D01*
X0122491Y0041764D01*
X0122491Y0040230D02*
X0122491Y0043299D01*
X0124026Y0042531D02*
X0124026Y0040230D01*
X0126328Y0040230D01*
X0127095Y0040997D01*
X0126328Y0041764D01*
X0124026Y0041764D01*
X0124026Y0042531D02*
X0124793Y0043299D01*
X0126328Y0043299D01*
X0128630Y0040230D02*
X0131699Y0040230D01*
X0131699Y0044833D01*
X0138605Y0044833D02*
X0138605Y0040230D01*
X0135536Y0040230D01*
X0134001Y0040230D02*
X0133234Y0040230D01*
X0133234Y0040997D01*
X0134001Y0040997D01*
X0134001Y0040230D01*
X0144744Y0040230D02*
X0145511Y0040230D01*
X0145511Y0040997D01*
X0144744Y0040997D01*
X0144744Y0040230D01*
X0144744Y0042531D02*
X0145511Y0042531D01*
X0145511Y0043299D01*
X0144744Y0043299D01*
X0144744Y0042531D01*
X0147046Y0042531D02*
X0147046Y0040230D01*
X0147046Y0042531D02*
X0147813Y0043299D01*
X0150115Y0043299D01*
X0150115Y0040230D01*
X0151650Y0040230D02*
X0153952Y0040230D01*
X0154719Y0040997D01*
X0154719Y0042531D01*
X0153952Y0043299D01*
X0151650Y0043299D01*
X0151650Y0039462D01*
X0152417Y0038695D01*
X0153184Y0038695D01*
X0156254Y0040230D02*
X0157788Y0040230D01*
X0157021Y0040230D02*
X0157021Y0043299D01*
X0157788Y0043299D01*
X0159323Y0043299D02*
X0161625Y0043299D01*
X0162392Y0042531D01*
X0161625Y0041764D01*
X0160090Y0041764D01*
X0159323Y0040997D01*
X0160090Y0040230D01*
X0162392Y0040230D01*
X0163927Y0041764D02*
X0166996Y0041764D01*
X0166996Y0040997D02*
X0166996Y0042531D01*
X0166229Y0043299D01*
X0164694Y0043299D01*
X0163927Y0042531D01*
X0163927Y0041764D01*
X0164694Y0040230D02*
X0166229Y0040230D01*
X0166996Y0040997D01*
X0168531Y0040997D02*
X0168531Y0044066D01*
X0169298Y0044833D01*
X0171600Y0044833D01*
X0171600Y0040230D01*
X0169298Y0040230D01*
X0168531Y0040997D01*
X0157021Y0044833D02*
X0157021Y0045601D01*
X0138605Y0050230D02*
X0138605Y0053299D01*
X0117120Y0052531D02*
X0116353Y0051764D01*
X0114818Y0051764D01*
X0114051Y0050997D01*
X0114818Y0050230D01*
X0117120Y0050230D01*
M02*
